<svg width="220" height="56" viewBox="0 0 220 56" fill="none" xmlns="http://www.w3.org/2000/svg">
<path d="M49.1489 11.6123H58.9289C65.2157 11.6123 68.0973 16.2146 68.0973 21.2472C68.0973 26.2797 65.2157 30.9701 58.9289 30.9701H49.1489V11.6123ZM57.768 26.9224C61.2923 26.9224 62.7435 24.9736 62.7435 21.2472C62.7435 17.5207 61.2612 15.6601 57.768 15.6601H54.2747V26.9275H57.768V26.9224Z" fill="#F2F9FF"/>
<path d="M69.5537 23.6881C69.5537 19.7855 71.7098 15.945 77.9084 15.945C84.1071 15.945 86.232 19.7855 86.232 23.6881C86.232 27.5908 84.076 31.4313 77.9084 31.4313C71.7409 31.4313 69.5537 27.6167 69.5537 23.6881ZM77.9084 27.5286C80.2666 27.5286 81.2254 26.5957 81.2254 23.6881C81.2254 20.7806 80.2666 19.8477 77.9084 19.8477C75.5502 19.8477 74.5603 20.7806 74.5603 23.6881C74.5603 26.5957 75.5191 27.5286 77.9084 27.5286Z" fill="#F2F9FF"/>
<path d="M95.779 15.945C101.076 15.945 103.641 18.9148 103.724 22.5531H98.8058C98.6918 20.8376 97.7848 19.8477 95.8671 19.8477C93.7733 19.8477 92.5501 20.7806 92.5501 23.6881C92.5501 26.5957 93.6852 27.5286 95.779 27.5286C97.8729 27.5286 98.7177 26.3936 98.8628 24.7921H103.781C103.693 28.2542 101.278 31.4313 95.8619 31.4313C89.8343 31.4313 87.5383 27.6167 87.5383 23.6881C87.5383 19.7596 89.7514 15.945 95.779 15.945Z" fill="#F2F9FF"/>
<path d="M106.782 25.2326V20.169H104.221V17.8419L107.191 16.5307L109.259 12.8923H111.794V16.4167H115.753V20.1742H111.794V27.0155H115.287V30.9752H112.638C108.186 30.9752 106.787 28.9954 106.787 25.2378L106.782 25.2326Z" fill="#F2F9FF"/>
<path d="M116.94 23.6881C116.94 19.7855 119.096 15.945 125.295 15.945C131.494 15.945 133.619 19.7855 133.619 23.6881C133.619 27.5908 131.462 31.4313 125.295 31.4313C119.127 31.4313 116.94 27.6167 116.94 23.6881ZM125.295 27.5286C127.653 27.5286 128.612 26.5957 128.612 23.6881C128.612 20.7806 127.653 19.8477 125.295 19.8477C122.937 19.8477 121.947 20.7806 121.947 23.6881C121.947 26.5957 122.906 27.5286 125.295 27.5286Z" fill="#F2F9FF"/>
<path d="M135.567 16.4117H140.429V19.3244C141.009 17.3135 142.207 16.1785 144.534 16.1785H145.757V21.04H143.979C141.59 21.04 140.574 22.2061 140.574 25.1447V30.9651H135.567V16.4117Z" fill="#F2F9FF"/>
<path d="M72.9899 35.811H78.0276L74.7106 55.1689H66.0086L63.0699 40.0609L60.1572 55.1689H51.4812L48.1331 35.811H53.1708L55.9643 51.997L59.2554 35.811H66.8845L70.2015 51.997L72.995 35.811H72.9899Z" fill="#F2F9FF"/>
<path d="M79.769 35.811H84.9778V38.8377H79.769V35.811ZM79.8571 40.6155H84.8638V55.1688H79.8571V40.6155Z" fill="#F2F9FF"/>
<path d="M94.2344 52.6395C95.867 52.6395 96.5045 52.116 96.5045 51.2712C96.5045 50.5456 96.2402 49.934 94.5557 49.7267L91.472 49.3795C88.6473 49.0581 87.1339 47.5448 87.1339 45.0155C87.1339 41.5534 90.1037 40.1541 94.0064 40.1541C97.909 40.1541 100.817 41.5223 101.112 44.9274H96.5719C96.4267 43.7924 95.6389 43.1238 94.0375 43.1238C92.3479 43.1238 91.7104 43.7354 91.7104 44.5491C91.7104 45.1607 92.0576 45.7152 93.4259 45.8603L96.4267 46.1506C99.8629 46.4978 101.288 47.8972 101.288 50.6907C101.288 53.4843 99.5727 55.6403 94.1567 55.6403C88.7406 55.6403 86.8489 53.1681 86.7349 50.4886H91.275C91.3942 51.6806 92.379 52.6447 94.2448 52.6447L94.2344 52.6395Z" fill="#F2F9FF"/>
<path d="M102.646 47.8661C102.646 43.6473 105.092 40.1541 110.679 40.1541C116.619 40.1541 118.51 43.9116 118.51 47.9542C118.51 48.4207 118.479 48.856 118.422 49.1773H107.507C107.797 51.5044 108.964 52.2922 110.798 52.2922C112.281 52.2922 113.188 51.6495 113.592 50.7788H118.453C117.987 53.2821 115.981 55.6403 110.679 55.6403C104.771 55.6403 102.646 51.8569 102.646 47.8661ZM113.768 46.2646C113.592 44.4299 112.69 43.44 110.767 43.44C108.844 43.44 107.886 44.1656 107.564 46.2646H113.763H113.768Z" fill="#F2F9FF"/>
<path d="M39.4777 24.1341V29.7056C39.4777 31.4108 38.5656 32.9915 37.0885 33.8415L22.5403 42.2377L25.7433 30.2861C26.1838 28.638 27.4743 27.3526 29.1225 26.9121L39.4777 24.1341Z" fill="#0072E5"/>
<path d="M39.4777 12.8665V18.4381L29.1276 15.6652C27.4795 15.2247 26.1941 13.9342 25.7536 12.286L22.5454 0.329285L37.0884 8.72545C38.5707 9.58062 39.4777 11.1562 39.4777 12.8613V12.8665Z" fill="#0072E5"/>
<path d="M23.6027 17.811C25.0695 19.2777 26.8057 20.4646 28.7493 21.2886C26.8109 22.1179 25.0643 23.3047 23.5975 24.7715C22.1308 26.2434 20.9388 27.99 20.1147 29.9388C19.2906 27.99 18.1038 26.2434 16.6318 24.7715C15.1599 23.2996 13.4289 22.1231 11.4905 21.2938C13.4289 20.4697 15.1703 19.2829 16.6422 17.8161C18.1089 16.3442 19.301 14.5976 20.1251 12.6489C20.9491 14.5976 22.136 16.3442 23.6079 17.811H23.6027Z" fill="#0072E5"/>
<path d="M17.6943 0.329285L14.4913 12.2809C14.0508 13.929 12.7602 15.2195 11.1173 15.6601L0.756836 18.4329V12.8613C0.756836 11.1562 1.66901 9.57544 3.14093 8.72545L17.6943 0.329285Z" fill="#0072E5"/>
<path d="M17.6942 42.2377L3.14606 33.8415C1.66896 32.9864 0.761963 31.4108 0.761963 29.7056V24.1341L11.1172 26.9121C12.7654 27.3526 14.0507 28.6431 14.4913 30.2861L17.6942 42.2377Z" fill="#0072E5"/>
<rect x="153.757" y="11.9849" width="66" height="32" rx="6" fill="#47CD89"/>
<path d="M165.341 32.9849V24.5689H161.917V22.3449H171.581V24.5689H168.157V32.9849H165.341ZM181.789 31.0649C181.789 31.9289 181.885 32.3769 181.997 32.9849H179.149C179.021 32.5529 178.957 31.9449 178.957 31.0649V30.6329C178.957 29.6089 178.301 29.1289 177.389 29.1289H175.453V32.9849H172.605V22.3449H178.493C180.893 22.3449 182.061 23.5769 182.061 25.2889C182.061 26.8089 181.085 27.8329 179.757 28.1049C180.861 28.3449 181.789 28.9049 181.789 30.4729V31.0649ZM175.453 27.1129H177.741C178.717 27.1129 179.117 26.6649 179.117 25.7529C179.117 24.9209 178.701 24.5049 177.757 24.5049H175.453V27.1129ZM183.244 32.9849V30.7609H185.116V24.5689H183.244V22.3449H189.804V24.5689H187.932V30.7609H189.804V32.9849H183.244ZM202.202 32.9849H199.37L198.682 30.9849H194.122L193.418 32.9849H190.602L194.234 22.3449H198.57L202.202 32.9849ZM194.842 28.8569H197.962L196.394 24.3289L194.842 28.8569ZM203.121 32.9849V22.3449H205.969V30.7609H210.753V32.9849H203.121Z" fill="white"/>
</svg>
