<svg width="61" height="88" viewBox="0 0 61 88" fill="none" xmlns="http://www.w3.org/2000/svg">
<path d="M0.637939 31.5732H6.74863C10.6767 31.5732 12.4772 34.4504 12.4772 37.5965C12.4772 40.7426 10.6767 43.6749 6.74863 43.6749H0.637939V31.5732ZM6.02325 41.1444C8.2253 41.1444 9.13202 39.9261 9.13202 37.5965C9.13202 35.2669 8.20586 34.1037 6.02325 34.1037H3.84063V41.1476H6.02325V41.1444Z" fill="#001933"/>
<path d="M13.3872 39.1257C13.3872 36.6859 14.7343 34.285 18.6074 34.285C22.4804 34.285 23.8081 36.6859 23.8081 39.1257C23.8081 41.5655 22.4609 43.9663 18.6074 43.9663C14.7538 43.9663 13.3872 41.5817 13.3872 39.1257ZM18.6074 41.5266C20.0808 41.5266 20.6799 40.9434 20.6799 39.1257C20.6799 37.308 20.0808 36.7248 18.6074 36.7248C17.1339 36.7248 16.5154 37.308 16.5154 39.1257C16.5154 40.9434 17.1145 41.5266 18.6074 41.5266Z" fill="#001933"/>
<path d="M29.7729 34.285C33.0825 34.285 34.6854 36.1416 34.7373 38.4161H31.6641C31.5929 37.3437 31.0262 36.7248 29.828 36.7248C28.5197 36.7248 27.7555 37.308 27.7555 39.1257C27.7555 40.9434 28.4647 41.5266 29.7729 41.5266C31.0812 41.5266 31.6091 40.817 31.6997 39.8158H34.7729C34.7178 41.9802 33.2088 43.9663 29.8247 43.9663C26.0586 43.9663 24.624 41.5817 24.624 39.1257C24.624 36.6697 26.0068 34.285 29.7729 34.285Z" fill="#001933"/>
<path d="M36.6479 40.0913V36.9258H35.0482V35.471L36.9038 34.6512L38.1959 32.3767H39.7794V34.58H42.2535V36.929H39.7794V41.2059H41.962V43.6813H40.3072C37.5255 43.6813 36.6512 42.4436 36.6512 40.0945L36.6479 40.0913Z" fill="#001933"/>
<path d="M42.995 39.1257C42.995 36.6859 44.3421 34.285 48.2151 34.285C52.0882 34.285 53.4159 36.6859 53.4159 39.1257C53.4159 41.5655 52.0687 43.9663 48.2151 43.9663C44.3616 43.9663 42.995 41.5817 42.995 39.1257ZM48.2151 41.5266C49.6886 41.5266 50.2877 40.9434 50.2877 39.1257C50.2877 37.308 49.6886 36.7248 48.2151 36.7248C46.7417 36.7248 46.1232 37.308 46.1232 39.1257C46.1232 40.9434 46.7223 41.5266 48.2151 41.5266Z" fill="#001933"/>
<path d="M54.6335 34.5767H57.6711V36.3976C58.0338 35.1405 58.7818 34.4309 60.2358 34.4309H61.0001V37.4701H59.8893C58.3965 37.4701 57.7617 38.1991 57.7617 40.0362V43.6748H54.6335V34.5767Z" fill="#001933"/>
<path d="M15.5342 46.7043H18.6818L16.6093 58.806H11.1722L9.33604 49.3612L7.51611 58.806H2.09195L0 46.7043H3.14764L4.89308 56.8231L6.94941 46.7043H11.7162L13.7887 56.8231L15.5342 46.7043Z" fill="#001933"/>
<path d="M19.7699 46.7043H23.0244V48.5965H19.7699V46.7043ZM19.8249 49.7079H22.9532V58.806H19.8249V49.7079Z" fill="#001933"/>
<path d="M28.808 57.2216C29.8281 57.2216 30.2264 56.8944 30.2264 56.3663C30.2264 55.9127 30.0613 55.5303 29.0088 55.4007L27.082 55.1836C25.3171 54.9828 24.3715 54.0367 24.3715 52.4555C24.3715 50.2911 26.2271 49.4163 28.6655 49.4163C31.104 49.4163 32.9207 50.2717 33.1053 52.4004H30.2685C30.1778 51.6908 29.6856 51.2729 28.685 51.2729C27.6293 51.2729 27.231 51.6552 27.231 52.1639C27.231 52.5462 27.4479 52.8929 28.3028 52.9836L30.1778 53.1651C32.3248 53.3822 33.2154 54.257 33.2154 56.0034C33.2154 57.7498 32.1435 59.0976 28.7594 59.0976C25.3754 59.0976 24.1934 57.5521 24.1222 55.877H26.959C27.0334 56.6222 27.6487 57.2249 28.8145 57.2249L28.808 57.2216Z" fill="#001933"/>
<path d="M34.0637 54.2375C34.0637 51.6001 35.5922 49.4163 39.0831 49.4163C42.7942 49.4163 43.9762 51.7654 43.9762 54.2926C43.9762 54.5842 43.9568 54.8564 43.9211 55.0573H37.1013C37.2826 56.5121 38.0112 57.0046 39.1576 57.0046C40.0837 57.0046 40.6504 56.6028 40.903 56.0585H43.9406C43.6491 57.6234 42.3959 59.0976 39.0831 59.0976C35.3914 59.0976 34.0637 56.7324 34.0637 54.2375ZM41.0131 53.2364C40.903 52.0894 40.3396 51.4705 39.1381 51.4705C37.9367 51.4705 37.3376 51.9241 37.1369 53.2364H41.0099H41.0131Z" fill="#001933"/>
<path d="M24.8509 15.2109V18.6939C24.8509 19.7599 24.2809 20.7481 23.358 21.2795L14.2681 26.5284L16.2693 19.0568C16.5446 18.0265 17.3509 17.223 18.3807 16.9476L24.8509 15.2109Z" fill="#0072E5"/>
<path d="M24.8508 8.167V11.6501L18.3839 9.91664C17.3541 9.64123 16.551 8.83446 16.2758 7.80411L14.2712 0.329285L23.3579 5.57819C24.2841 6.1128 24.8508 7.09778 24.8508 8.16376V8.167Z" fill="#0072E5"/>
<path d="M14.9351 11.258C15.8516 12.1749 16.9364 12.9169 18.1508 13.4321C16.9396 13.9505 15.8483 14.6925 14.9319 15.6094C14.0154 16.5296 13.2706 17.6215 12.7557 18.8397C12.2408 17.6215 11.4993 16.5296 10.5796 15.6094C9.66639 14.6957 8.57831 13.9537 7.36719 13.4353C8.57831 12.9201 9.66639 12.1782 10.5861 11.2612C11.5025 10.3411 12.2473 9.24915 12.7622 8.03088C13.2771 9.24915 14.0187 10.3411 14.9384 11.258H14.9351Z" fill="#0072E5"/>
<path d="M11.2402 0.329285L9.23892 7.80087C8.96367 8.83121 8.15733 9.63799 7.13078 9.9134L0.660645 11.6501V8.167C0.660645 7.10102 1.23059 6.1128 2.15027 5.58143L11.2402 0.329285Z" fill="#0072E5"/>
<path d="M11.2402 26.5284L2.15027 21.2795C1.22735 20.7449 0.660645 19.7599 0.660645 18.6939V15.2109L7.13078 16.9476C8.16057 17.223 8.96367 18.0297 9.23892 19.0568L11.2402 26.5284Z" fill="#0072E5"/>
<rect y="63.0976" width="46" height="24" rx="6" fill="#47CD89"/>
<path d="M6.688 79.0976V72.7856H4.12V71.1176H11.368V72.7856H8.8V79.0976H6.688ZM19.0243 77.6576C19.0243 78.3056 19.0963 78.6416 19.1803 79.0976H17.0443C16.9483 78.7736 16.9003 78.3176 16.9003 77.6576V77.3336C16.9003 76.5656 16.4083 76.2056 15.7243 76.2056H14.2723V79.0976H12.1363V71.1176H16.5523C18.3523 71.1176 19.2283 72.0416 19.2283 73.3256C19.2283 74.4656 18.4963 75.2336 17.5003 75.4376C18.3283 75.6176 19.0243 76.0376 19.0243 77.2136V77.6576ZM14.2723 74.6936H15.9883C16.7203 74.6936 17.0203 74.3576 17.0203 73.6736C17.0203 73.0496 16.7083 72.7376 16.0003 72.7376H14.2723V74.6936ZM20.1151 79.0976V77.4296H21.5191V72.7856H20.1151V71.1176H25.0351V72.7856H23.6311V77.4296H25.0351V79.0976H20.1151ZM34.3337 79.0976H32.2097L31.6937 77.5976H28.2737L27.7457 79.0976H25.6337L28.3577 71.1176H31.6097L34.3337 79.0976ZM28.8137 76.0016H31.1537L29.9777 72.6056L28.8137 76.0016ZM35.023 79.0976V71.1176H37.159V77.4296H40.747V79.0976H35.023Z" fill="white"/>
</svg>
