<svg width="193" height="37" viewBox="0 0 193 37" fill="none" xmlns="http://www.w3.org/2000/svg">
<path d="M42.4481 10.4606H50.8493C56.2498 10.4606 58.7251 14.4141 58.7251 18.7371C58.7251 23.0601 56.2498 27.0893 50.8493 27.0893H42.4481V10.4606ZM49.852 23.6122C52.8795 23.6122 54.1261 21.9382 54.1261 18.7371C54.1261 15.536 52.8528 13.9377 49.852 13.9377H46.8513V23.6166H49.852V23.6122Z" fill="#F2F9FF"/>
<path d="M59.9762 20.8341C59.9762 17.4816 61.8283 14.1826 67.153 14.1826C72.4778 14.1826 74.3032 17.4816 74.3032 20.8341C74.3032 24.1865 72.4511 27.4855 67.153 27.4855C61.855 27.4855 59.9762 24.2088 59.9762 20.8341ZM67.153 24.1331C69.1788 24.1331 70.0024 23.3317 70.0024 20.8341C70.0024 18.3364 69.1788 17.535 67.153 17.535C65.1273 17.535 64.277 18.3364 64.277 20.8341C64.277 23.3317 65.1006 24.1331 67.153 24.1331Z" fill="#F2F9FF"/>
<path d="M82.5041 14.1826C87.0542 14.1826 89.258 16.7336 89.3293 19.859H85.1042C85.0062 18.3854 84.2271 17.535 82.5798 17.535C80.7812 17.535 79.7305 18.3364 79.7305 20.8341C79.7305 23.3317 80.7055 24.1331 82.5041 24.1331C84.3028 24.1331 85.0285 23.1581 85.1532 21.7824H89.3782C89.3026 24.7564 87.2279 27.4855 82.5754 27.4855C77.3975 27.4855 75.4252 24.2088 75.4252 20.8341C75.4252 17.4593 77.3263 14.1826 82.5041 14.1826Z" fill="#F2F9FF"/>
<path d="M91.9558 22.1608V17.811H89.7565V15.812L92.3075 14.6856L94.084 11.5602H96.261V14.5877H99.6625V17.8155H96.261V23.6923H99.2618V27.0938H96.9867C93.1624 27.0938 91.9603 25.393 91.9603 22.1652L91.9558 22.1608Z" fill="#F2F9FF"/>
<path d="M100.682 20.8341C100.682 17.4816 102.534 14.1826 107.859 14.1826C113.184 14.1826 115.009 17.4816 115.009 20.8341C115.009 24.1865 113.157 27.4855 107.859 27.4855C102.561 27.4855 100.682 24.2088 100.682 20.8341ZM107.859 24.1331C109.885 24.1331 110.708 23.3317 110.708 20.8341C110.708 18.3364 109.885 17.535 107.859 17.535C105.833 17.535 104.983 18.3364 104.983 20.8341C104.983 23.3317 105.806 24.1331 107.859 24.1331Z" fill="#F2F9FF"/>
<path d="M116.683 14.5832H120.859V17.0853C121.358 15.3578 122.386 14.3828 124.385 14.3828H125.436V18.5589H123.909C121.857 18.5589 120.984 19.5607 120.984 22.085V27.0848H116.683V14.5832Z" fill="#F2F9FF"/>
<path d="M153.654 10.4828H157.981L155.132 27.1116H147.657L145.132 14.1336L142.63 27.1116H135.177L132.301 10.4828H136.629L139.029 24.3869L141.856 10.4828H148.409L151.259 24.3869L153.658 10.4828H153.654Z" fill="#F2F9FF"/>
<path d="M159.477 10.4828H163.952V13.0829H159.477V10.4828ZM159.553 14.61H163.854V27.1116H159.553V14.61Z" fill="#F2F9FF"/>
<path d="M171.908 24.9344C173.31 24.9344 173.858 24.4848 173.858 23.7591C173.858 23.1358 173.631 22.6104 172.184 22.4323L169.535 22.134C167.108 21.858 165.808 20.558 165.808 18.3853C165.808 15.4113 168.359 14.2092 171.712 14.2092C175.064 14.2092 177.562 15.3846 177.816 18.3096H173.916C173.791 17.3346 173.114 16.7603 171.739 16.7603C170.287 16.7603 169.74 17.2857 169.74 17.9846C169.74 18.51 170.038 18.9864 171.213 19.111L173.791 19.3604C176.743 19.6586 177.967 20.8607 177.967 23.2604C177.967 25.6601 176.493 27.5122 171.841 27.5122C167.188 27.5122 165.563 25.3886 165.466 23.0868H169.366C169.468 24.1108 170.314 24.9389 171.917 24.9389L171.908 24.9344Z" fill="#F2F9FF"/>
<path d="M179.129 20.834C179.129 17.21 181.23 14.2092 186.03 14.2092C191.132 14.2092 192.757 17.437 192.757 20.9097C192.757 21.3104 192.73 21.6844 192.681 21.9604H183.305C183.554 23.9594 184.556 24.6361 186.132 24.6361C187.405 24.6361 188.184 24.0841 188.532 23.3361H192.708C192.307 25.4865 190.584 27.5122 186.03 27.5122C180.954 27.5122 179.129 24.2622 179.129 20.834ZM188.683 19.4583C188.532 17.8822 187.757 17.0319 186.105 17.0319C184.454 17.0319 183.63 17.6552 183.354 19.4583H188.679H188.683Z" fill="#F2F9FF"/>
<path d="M34.1405 21.217V26.003C34.1405 27.4678 33.3569 28.8257 32.088 29.5558L19.5909 36.7683L22.3423 26.5017C22.7207 25.0859 23.8293 23.9818 25.2451 23.6033L34.1405 21.217Z" fill="#0072E5"/>
<path d="M34.1404 11.538V16.3241L25.2494 13.9422C23.8337 13.5638 22.7295 12.4552 22.3511 11.0394L19.5952 0.768311L32.0879 7.98078C33.3612 8.71538 34.1404 10.0688 34.1404 11.5336V11.538Z" fill="#0072E5"/>
<path d="M20.5035 15.7853C21.7634 17.0453 23.2549 18.0648 24.9244 18.7727C23.2593 19.4851 21.759 20.5046 20.499 21.7646C19.2391 23.029 18.2773 24.5397 17.5694 26.2137C16.8615 24.5397 15.7797 23.029 14.5153 21.7646C13.2509 20.5001 11.7639 19.4895 10.0988 18.7772C11.7639 18.0693 13.2598 17.0497 14.5242 15.7898C15.7842 14.5254 16.8615 12.9968 17.5694 11.3228C18.2773 12.9968 19.2435 14.5254 20.5079 15.7853H20.5035Z" fill="#0072E5"/>
<path d="M15.428 0.768311L12.6766 11.0349C12.2982 12.4507 11.1896 13.5593 9.77825 13.9377L0.878418 16.3196V11.5336C0.878418 10.0688 1.66199 8.71093 2.9264 7.98078L15.428 0.768311Z" fill="#0072E5"/>
<path d="M15.4279 36.7683L2.93074 29.5558C1.66188 28.8212 0.882751 27.4678 0.882751 26.003V21.217L9.77813 23.6033C11.1939 23.9818 12.298 25.0903 12.6765 26.5017L15.4279 36.7683Z" fill="#0072E5"/>
</svg>
