<svg width="61" height="86" viewBox="0 0 61 86" fill="none" xmlns="http://www.w3.org/2000/svg">
<path d="M0.637939 32.1343H6.74863C10.6767 32.1343 12.4772 35.0115 12.4772 38.1576C12.4772 41.3037 10.6767 44.2359 6.74863 44.2359H0.637939V32.1343ZM6.02325 41.7054C8.2253 41.7054 9.13202 40.4872 9.13202 38.1576C9.13202 35.8279 8.20586 34.6648 6.02325 34.6648H3.84063V41.7087H6.02325V41.7054Z" fill="#001933"/>
<path d="M13.3872 39.6867C13.3872 37.247 14.7343 34.8461 18.6074 34.8461C22.4804 34.8461 23.8081 37.247 23.8081 39.6867C23.8081 42.1265 22.4609 44.5274 18.6074 44.5274C14.7538 44.5274 13.3872 42.1427 13.3872 39.6867ZM18.6074 42.0876C20.0808 42.0876 20.6799 41.5044 20.6799 39.6867C20.6799 37.869 20.0808 37.2858 18.6074 37.2858C17.1339 37.2858 16.5154 37.869 16.5154 39.6867C16.5154 41.5044 17.1145 42.0876 18.6074 42.0876Z" fill="#001933"/>
<path d="M29.7729 34.8461C33.0825 34.8461 34.6854 36.7026 34.7373 38.9772H31.6641C31.5929 37.9047 31.0262 37.2858 29.828 37.2858C28.5197 37.2858 27.7555 37.869 27.7555 39.6867C27.7555 41.5044 28.4647 42.0876 29.7729 42.0876C31.0812 42.0876 31.6091 41.378 31.6997 40.3769H34.7729C34.7178 42.5412 33.2088 44.5274 29.8247 44.5274C26.0586 44.5274 24.624 42.1427 24.624 39.6867C24.624 37.2308 26.0068 34.8461 29.7729 34.8461Z" fill="#001933"/>
<path d="M36.6479 40.6523V37.4868H35.0482V36.032L36.9038 35.2123L38.1959 32.9377H39.7794V35.141H42.2535V37.49H39.7794V41.7669H41.962V44.2423H40.3072C37.5255 44.2423 36.6512 43.0046 36.6512 40.6556L36.6479 40.6523Z" fill="#001933"/>
<path d="M42.995 39.6867C42.995 37.247 44.3421 34.8461 48.2151 34.8461C52.0882 34.8461 53.4159 37.247 53.4159 39.6867C53.4159 42.1265 52.0687 44.5274 48.2151 44.5274C44.3616 44.5274 42.995 42.1427 42.995 39.6867ZM48.2151 42.0876C49.6886 42.0876 50.2877 41.5044 50.2877 39.6867C50.2877 37.869 49.6886 37.2858 48.2151 37.2858C46.7417 37.2858 46.1232 37.869 46.1232 39.6867C46.1232 41.5044 46.7223 42.0876 48.2151 42.0876Z" fill="#001933"/>
<path d="M54.6335 35.1377H57.6711V36.9587C58.0338 35.7015 58.7818 34.9919 60.2358 34.9919H61.0001V38.0311H59.8893C58.3965 38.0311 57.7617 38.7601 57.7617 40.5973V44.2358H54.6335V35.1377Z" fill="#001933"/>
<path d="M15.5342 47.2654H18.6818L16.6093 59.367H11.1722L9.33604 49.9222L7.51611 59.367H2.09195L0 47.2654H3.14764L4.89308 57.3841L6.94941 47.2654H11.7162L13.7887 57.3841L15.5342 47.2654Z" fill="#001933"/>
<path d="M19.7699 47.2654H23.0244V49.1576H19.7699V47.2654ZM19.8249 50.2689H22.9532V59.367H19.8249V50.2689Z" fill="#001933"/>
<path d="M28.808 57.7826C29.8281 57.7826 30.2264 57.4554 30.2264 56.9272C30.2264 56.4736 30.0613 56.0913 29.0088 55.9617L27.082 55.7446C25.3171 55.5437 24.3715 54.5976 24.3715 53.0165C24.3715 50.8521 26.2271 49.9773 28.6655 49.9773C31.104 49.9773 32.9207 50.8327 33.1053 52.9614H30.2685C30.1778 52.2518 29.6856 51.8339 28.685 51.8339C27.6293 51.8339 27.231 52.2162 27.231 52.7249C27.231 53.1072 27.4479 53.4539 28.3028 53.5446L30.1778 53.7261C32.3248 53.9431 33.2154 54.818 33.2154 56.5643C33.2154 58.3107 32.1435 59.6586 28.7594 59.6586C25.3754 59.6586 24.1934 58.1131 24.1222 56.438H26.959C27.0334 57.1832 27.6487 57.7859 28.8145 57.7859L28.808 57.7826Z" fill="#001933"/>
<path d="M34.0637 54.7985C34.0637 52.1611 35.5922 49.9773 39.0831 49.9773C42.7942 49.9773 43.9762 52.3263 43.9762 54.8536C43.9762 55.1452 43.9568 55.4174 43.9211 55.6182H37.1013C37.2826 57.073 38.0112 57.5655 39.1576 57.5655C40.0837 57.5655 40.6504 57.1638 40.903 56.6194H43.9406C43.6491 58.1844 42.3959 59.6586 39.0831 59.6586C35.3914 59.6586 34.0637 57.2934 34.0637 54.7985ZM41.0131 53.7973C40.903 52.6503 40.3396 52.0315 39.1381 52.0315C37.9367 52.0315 37.3376 52.4851 37.1369 53.7973H41.0099H41.0131Z" fill="#001933"/>
<path d="M24.8509 15.7719V19.2549C24.8509 20.3209 24.2809 21.3091 23.358 21.8405L14.2681 27.0894L16.2693 19.6178C16.5446 18.5875 17.3509 17.7839 18.3807 17.5085L24.8509 15.7719Z" fill="#0072E5"/>
<path d="M24.8508 8.72798V12.211L18.3839 10.4776C17.3541 10.2022 16.551 9.39543 16.2758 8.36509L14.2712 0.890259L23.3579 6.13916C24.2841 6.67378 24.8508 7.65875 24.8508 8.72474V8.72798Z" fill="#0072E5"/>
<path d="M14.9351 11.819C15.8516 12.736 16.9364 13.4779 18.1508 13.9931C16.9396 14.5115 15.8483 15.2535 14.9319 16.1704C14.0154 17.0906 13.2706 18.1825 12.7557 19.4008C12.2408 18.1825 11.4993 17.0906 10.5796 16.1704C9.66639 15.2567 8.57831 14.5148 7.36719 13.9963C8.57831 13.4812 9.66639 12.7392 10.5861 11.8223C11.5025 10.9021 12.2473 9.81018 12.7622 8.59192C13.2771 9.81018 14.0187 10.9021 14.9384 11.819H14.9351Z" fill="#0072E5"/>
<path d="M11.2402 0.890259L9.23892 8.36185C8.96367 9.39219 8.15733 10.199 7.13078 10.4744L0.660645 12.211V8.72798C0.660645 7.66199 1.23059 6.67377 2.15027 6.1424L11.2402 0.890259Z" fill="#0072E5"/>
<path d="M11.2402 27.0894L2.15027 21.8405C1.22735 21.3059 0.660645 20.3209 0.660645 19.2549V15.7719L7.13078 17.5085C8.16057 17.7839 8.96367 18.5907 9.23892 19.6178L11.2402 27.0894Z" fill="#0072E5"/>
<path d="M0 69.6586C0 66.3449 2.68629 63.6586 6 63.6586H34C37.3137 63.6586 40 66.3449 40 69.6586V79.6586C40 82.9723 37.3137 85.6586 34 85.6586H6C2.68629 85.6586 0 82.9723 0 79.6586V69.6586Z" fill="#0C111D"/>
<path d="M8.2429 78.6586V69.9313H11.6861C12.348 69.9313 12.9119 70.0577 13.3778 70.3106C13.8438 70.5606 14.1989 70.9086 14.4432 71.3546C14.6903 71.7978 14.8139 72.3091 14.8139 72.8887C14.8139 73.4682 14.6889 73.9796 14.4389 74.4228C14.1889 74.866 13.8267 75.2111 13.3523 75.4583C12.8807 75.7054 12.3097 75.829 11.6392 75.829H9.4446V74.3503H11.3409C11.696 74.3503 11.9886 74.2893 12.2188 74.1671C12.4517 74.0421 12.625 73.8702 12.7386 73.6515C12.8551 73.4299 12.9134 73.1756 12.9134 72.8887C12.9134 72.5989 12.8551 72.3461 12.7386 72.1302C12.625 71.9114 12.4517 71.7424 12.2188 71.6231C11.9858 71.5009 11.6903 71.4398 11.3324 71.4398H10.0881V78.6586H8.2429ZM16.0124 78.6586V69.9313H19.4556C20.1147 69.9313 20.6772 70.0492 21.1431 70.285C21.6119 70.5179 21.9684 70.8489 22.2127 71.2779C22.4599 71.704 22.5835 72.2054 22.5835 72.7821C22.5835 73.3617 22.4585 73.8603 22.2085 74.2779C21.9585 74.6927 21.5962 75.0108 21.1218 75.2324C20.6502 75.454 20.0792 75.5648 19.4087 75.5648H17.1033V74.0819H19.1104C19.4627 74.0819 19.7553 74.0336 19.9883 73.937C20.2212 73.8404 20.3945 73.6955 20.5082 73.5023C20.6246 73.3091 20.6829 73.0691 20.6829 72.7821C20.6829 72.4924 20.6246 72.2481 20.5082 72.0492C20.3945 71.8503 20.2198 71.6998 19.984 71.5975C19.7511 71.4924 19.457 71.4398 19.1019 71.4398H17.8576V78.6586H16.0124ZM20.7255 74.687L22.8945 78.6586H20.8576L18.7354 74.687H20.7255ZM31.9073 74.2949C31.9073 75.2466 31.7269 76.0563 31.3661 76.7239C31.0082 77.3915 30.5195 77.9015 29.9002 78.2537C29.2837 78.6032 28.5906 78.7779 27.8207 78.7779C27.0451 78.7779 26.3491 78.6018 25.7326 78.2495C25.1161 77.8972 24.6289 77.3873 24.271 76.7196C23.913 76.052 23.734 75.2438 23.734 74.2949C23.734 73.3432 23.913 72.5336 24.271 71.866C24.6289 71.1983 25.1161 70.6898 25.7326 70.3404C26.3491 69.9881 27.0451 69.812 27.8207 69.812C28.5906 69.812 29.2837 69.9881 29.9002 70.3404C30.5195 70.6898 31.0082 71.1983 31.3661 71.866C31.7269 72.5336 31.9073 73.3432 31.9073 74.2949ZM30.0366 74.2949C30.0366 73.6785 29.9442 73.1586 29.7596 72.7353C29.5778 72.312 29.3207 71.991 28.9883 71.7722C28.6559 71.5535 28.2667 71.4441 27.8207 71.4441C27.3746 71.4441 26.9854 71.5535 26.6531 71.7722C26.3207 71.991 26.0621 72.312 25.8775 72.7353C25.6957 73.1586 25.6048 73.6785 25.6048 74.2949C25.6048 74.9114 25.6957 75.4313 25.8775 75.8546C26.0621 76.2779 26.3207 76.5989 26.6531 76.8177C26.9854 77.0364 27.3746 77.1458 27.8207 77.1458C28.2667 77.1458 28.6559 77.0364 28.9883 76.8177C29.3207 76.5989 29.5778 76.2779 29.7596 75.8546C29.9442 75.4313 30.0366 74.9114 30.0366 74.2949Z" fill="white"/>
</svg>
