<svg width="95" height="131" viewBox="0 0 95 131" fill="none" xmlns="http://www.w3.org/2000/svg">
<path d="M1.73999 48.4756H11.1565C17.2095 48.4756 19.9841 52.9093 19.9841 57.7574C19.9841 62.6055 17.2095 67.1241 11.1565 67.1241H1.73999V48.4756ZM10.0387 63.2246C13.432 63.2246 14.8292 61.3473 14.8292 57.7574C14.8292 54.1675 13.402 52.3751 10.0387 52.3751H6.67528V63.2296H10.0387V63.2246Z" fill="#001933"/>
<path d="M21.3862 60.114C21.3862 56.3543 23.4621 52.6546 29.4304 52.6546C35.3987 52.6546 37.4446 56.3543 37.4446 60.114C37.4446 63.8736 35.3687 67.5733 29.4304 67.5733C23.4921 67.5733 21.3862 63.8986 21.3862 60.114ZM29.4304 63.8137C31.7009 63.8137 32.6241 62.915 32.6241 60.114C32.6241 57.313 31.7009 56.4142 29.4304 56.4142C27.1599 56.4142 26.2067 57.313 26.2067 60.114C26.2067 62.915 27.1299 63.8137 29.4304 63.8137Z" fill="#001933"/>
<path d="M46.6365 52.6546C51.7365 52.6546 54.2066 55.5155 54.2865 59.0205H49.5508C49.441 57.3679 48.5677 56.4142 46.7214 56.4142C44.7053 56.4142 43.5277 57.313 43.5277 60.114C43.5277 62.915 44.6205 63.8137 46.6365 63.8137C48.6526 63.8137 49.466 62.7203 49.6057 61.1775H54.3414C54.2565 64.5127 51.9311 67.5733 46.7164 67.5733C40.9128 67.5733 38.7021 63.8986 38.7021 60.114C38.7021 56.3294 40.833 52.6546 46.6365 52.6546Z" fill="#001933"/>
<path d="M57.2308 61.602V56.7239H54.7656V54.4821L57.625 53.2189L59.6161 49.7139H62.0563V53.1091H65.8688V56.7289H62.0563V63.3195H65.4197V67.1341H62.8697C58.5831 67.1341 57.2358 65.2268 57.2358 61.607L57.2308 61.602Z" fill="#001933"/>
<path d="M67.0115 60.114C67.0115 56.3543 69.0874 52.6546 75.0556 52.6546C81.0239 52.6546 83.0699 56.3543 83.0699 60.114C83.0699 63.8736 80.994 67.5733 75.0556 67.5733C69.1173 67.5733 67.0115 63.8986 67.0115 60.114ZM75.0556 63.8137C77.3262 63.8137 78.2494 62.915 78.2494 60.114C78.2494 57.313 77.3262 56.4142 75.0556 56.4142C72.7851 56.4142 71.832 57.313 71.832 60.114C71.832 62.915 72.7552 63.8137 75.0556 63.8137Z" fill="#001933"/>
<path d="M84.9463 53.104H89.6271V55.91C90.186 53.9728 91.3387 52.8793 93.5793 52.8793H94.757V57.5627H93.0453C90.7449 57.5627 89.7668 58.6861 89.7668 61.517V67.124H84.9463V53.104Z" fill="#001933"/>
<path d="M24.6947 71.7924H29.5452L26.3515 90.4408H17.973L15.1435 75.8866L12.339 90.4408H3.98049L0.756836 71.7924H5.60729L8.297 87.3852L11.4658 71.7924H18.8113L22.005 87.3852L24.6947 71.7924Z" fill="#001933"/>
<path d="M31.2219 71.7924H36.2371V74.7083H31.2219V71.7924ZM31.3068 76.4208H36.1273V90.4408H31.3068V76.4208Z" fill="#001933"/>
<path d="M45.1495 87.9994C46.7214 87.9994 47.3352 87.4951 47.3352 86.6812C47.3352 85.9822 47.0807 85.3931 45.4589 85.1934L42.4897 84.8588C39.7701 84.5493 38.313 83.0914 38.313 80.6548C38.313 77.3196 41.1723 75.9715 44.9299 75.9715C48.6875 75.9715 51.487 77.2896 51.7715 80.5699H47.4001C47.2603 79.4765 46.5018 78.8324 44.9599 78.8324C43.3331 78.8324 42.7193 79.4216 42.7193 80.2055C42.7193 80.7946 43.0536 81.3289 44.371 81.4687L47.2603 81.7483C50.5688 82.0828 51.9411 83.4309 51.9411 86.122C51.9411 88.8132 50.2894 90.8902 45.0746 90.8902C39.8599 90.8902 38.0385 88.5086 37.9287 85.9273H42.3001C42.4149 87.0757 43.363 88.0044 45.1595 88.0044L45.1495 87.9994Z" fill="#001933"/>
<path d="M53.2485 83.4009C53.2485 79.3367 55.6039 75.9715 60.9833 75.9715C66.7021 75.9715 68.5235 79.5913 68.5235 83.4858C68.5235 83.9352 68.4935 84.3546 68.4386 84.6641H57.9293C58.2088 86.9059 59.3316 87.6648 61.0981 87.6648C62.5253 87.6648 63.3986 87.0457 63.7878 86.2069H68.4686C68.0195 88.6185 66.0883 90.8902 60.9833 90.8902C55.2945 90.8902 53.2485 87.2454 53.2485 83.4009ZM63.9575 81.8581C63.7878 80.0906 62.9195 79.137 61.0681 79.137C59.2168 79.137 58.2936 79.836 57.9842 81.8581H63.9525H63.9575Z" fill="#001933"/>
<path d="M39.0516 23.2616V28.629C39.0516 30.2716 38.1733 31.7944 36.7511 32.6133L22.7437 40.7018L25.8276 29.1882C26.2517 27.6004 27.4943 26.3622 29.0812 25.9378L39.0516 23.2616Z" fill="#0072E5"/>
<path d="M39.0517 12.4071V17.7744L29.0863 15.1032C27.4994 14.6788 26.2619 13.4356 25.8377 11.8479L22.7488 0.329285L36.7512 8.41776C38.1784 9.24159 39.0517 10.7594 39.0517 12.4021V12.4071Z" fill="#0072E5"/>
<path d="M23.7717 17.1702C25.1839 18.5832 26.8556 19.7266 28.7269 20.5205C26.8606 21.3193 25.1789 22.4627 23.7667 23.8757C22.3545 25.2937 21.2067 26.9763 20.4133 28.8536C19.6198 26.9763 18.4771 25.2937 17.0599 23.8757C15.6526 22.4677 13.9759 21.3243 12.1096 20.5255C13.9759 19.7316 15.6526 18.5882 17.0699 17.1752C18.4821 15.7573 19.6298 14.0747 20.4233 12.1973C21.2167 14.0747 22.3594 15.7573 23.7767 17.1702H23.7717Z" fill="#0072E5"/>
<path d="M18.0778 0.329285L14.9939 11.8429C14.5697 13.4306 13.3272 14.6738 11.7453 15.0982L1.7749 17.7744V12.4071C1.7749 10.7644 2.65317 9.24159 4.07038 8.42275L18.0778 0.329285Z" fill="#0072E5"/>
<path d="M18.0778 40.7018L4.07038 32.6133C2.64818 31.7894 1.7749 30.2716 1.7749 28.629V23.2616L11.7453 25.9378C13.3322 26.3622 14.5697 27.6054 14.9939 29.1882L18.0778 40.7018Z" fill="#0072E5"/>
<rect x="0.756836" y="98.8903" width="66" height="32" rx="6" fill="#47CD89"/>
<path d="M12.3408 119.89V111.474H8.91684V109.25H18.5808V111.474H15.1568V119.89H12.3408ZM28.7892 117.97C28.7892 118.834 28.8852 119.282 28.9972 119.89H26.1492C26.0212 119.458 25.9572 118.85 25.9572 117.97V117.538C25.9572 116.514 25.3012 116.034 24.3892 116.034H22.4532V119.89H19.6052V109.25H25.4932C27.8932 109.25 29.0612 110.482 29.0612 112.194C29.0612 113.714 28.0852 114.738 26.7572 115.01C27.8612 115.25 28.7892 115.81 28.7892 117.378V117.97ZM22.4532 114.018H24.7412C25.7172 114.018 26.1172 113.57 26.1172 112.658C26.1172 111.826 25.7012 111.41 24.7572 111.41H22.4532V114.018ZM30.2436 119.89V117.666H32.1156V111.474H30.2436V109.25H36.8036V111.474H34.9316V117.666H36.8036V119.89H30.2436ZM49.2017 119.89H46.3697L45.6817 117.89H41.1217L40.4177 119.89H37.6017L41.2337 109.25H45.5697L49.2017 119.89ZM41.8417 115.762H44.9617L43.3937 111.234L41.8417 115.762ZM50.1208 119.89V109.25H52.9688V117.666H57.7528V119.89H50.1208Z" fill="white"/>
</svg>
