<svg width="94" height="132" viewBox="0 0 94 132" fill="none" xmlns="http://www.w3.org/2000/svg">
<path d="M0.983093 48.5975H10.3996C16.4527 48.5975 19.2272 53.0312 19.2272 57.8793C19.2272 62.7274 16.4527 67.246 10.3996 67.246H0.983093V48.5975ZM9.28176 63.3465C12.6751 63.3465 14.0723 61.4692 14.0723 57.8793C14.0723 54.2894 12.6451 52.497 9.28176 52.497H5.91838V63.3515H9.28176V63.3465Z" fill="#F2F9FF"/>
<path d="M20.6294 60.2359C20.6294 56.4762 22.7053 52.7765 28.6736 52.7765C34.6418 52.7765 36.6878 56.4762 36.6878 60.2359C36.6878 63.9955 34.6119 67.6952 28.6736 67.6952C22.7353 67.6952 20.6294 64.0205 20.6294 60.2359ZM28.6736 63.9356C30.9441 63.9356 31.8673 63.0369 31.8673 60.2359C31.8673 57.4348 30.9441 56.5361 28.6736 56.5361C26.4031 56.5361 25.4499 57.4348 25.4499 60.2359C25.4499 63.0369 26.3731 63.9356 28.6736 63.9356Z" fill="#F2F9FF"/>
<path d="M45.8797 52.7765C50.9797 52.7765 53.4498 55.6374 53.5297 59.1424H48.794C48.6842 57.4898 47.8109 56.5361 45.9646 56.5361C43.9485 56.5361 42.7708 57.4348 42.7708 60.2359C42.7708 63.0369 43.8637 63.9356 45.8797 63.9356C47.8958 63.9356 48.7092 62.8421 48.8489 61.2993H53.5846C53.4997 64.6346 51.1743 67.6952 45.9596 67.6952C40.156 67.6952 37.9453 64.0205 37.9453 60.2359C37.9453 56.4513 40.0762 52.7765 45.8797 52.7765Z" fill="#F2F9FF"/>
<path d="M56.4739 61.7239V56.8458H54.0087V54.604L56.8681 53.3408L58.8592 49.8358H61.2994V53.231H65.1119V56.8508H61.2994V63.4414H64.6628V67.256H62.1128C57.8262 67.256 56.4789 65.3487 56.4789 61.7289L56.4739 61.7239Z" fill="#F2F9FF"/>
<path d="M66.2546 60.2359C66.2546 56.4762 68.3306 52.7765 74.2988 52.7765C80.2671 52.7765 82.313 56.4762 82.313 60.2359C82.313 63.9955 80.2371 67.6952 74.2988 67.6952C68.3605 67.6952 66.2546 64.0205 66.2546 60.2359ZM74.2988 63.9356C76.5693 63.9356 77.4925 63.0369 77.4925 60.2359C77.4925 57.4348 76.5693 56.5361 74.2988 56.5361C72.0283 56.5361 71.0751 57.4348 71.0751 60.2359C71.0751 63.0369 71.9983 63.9356 74.2988 63.9356Z" fill="#F2F9FF"/>
<path d="M84.1893 53.2259H88.8701V56.0319C89.429 54.0947 90.5817 53.0012 92.8223 53.0012H94V57.6845H92.2884C89.9879 57.6845 89.0098 58.8079 89.0098 61.6389V67.2459H84.1893V53.2259Z" fill="#F2F9FF"/>
<path d="M23.9379 71.9143H28.7883L25.5946 90.5627H17.2161L14.3867 76.0085L11.5822 90.5627H3.22366L0 71.9143H4.85045L7.54016 87.5071L10.7089 71.9143H18.0545L21.2482 87.5071L23.9379 71.9143Z" fill="#F2F9FF"/>
<path d="M30.465 71.9143H35.4802V74.8302H30.465V71.9143ZM30.5499 76.5427H35.3704V90.5627H30.5499V76.5427Z" fill="#F2F9FF"/>
<path d="M44.3926 88.1212C45.9645 88.1212 46.5783 87.617 46.5783 86.8031C46.5783 86.1041 46.3238 85.515 44.702 85.3152L41.7329 84.9807C39.0132 84.6712 37.5561 83.2132 37.5561 80.7767C37.5561 77.4415 40.4155 76.0934 44.1731 76.0934C47.9307 76.0934 50.7302 77.4115 51.0146 80.6918H46.6432C46.5035 79.5984 45.745 78.9543 44.203 78.9543C42.5762 78.9543 41.9624 79.5435 41.9624 80.3273C41.9624 80.9165 42.2968 81.4507 43.6142 81.5905L46.5035 81.8702C49.812 82.2047 51.1843 83.5528 51.1843 86.2439C51.1843 88.9351 49.5325 91.0121 44.3178 91.0121C39.103 91.0121 37.2816 88.6305 37.1718 86.0492H41.5432C41.658 87.1976 42.6062 88.1262 44.4026 88.1262L44.3926 88.1212Z" fill="#F2F9FF"/>
<path d="M52.4917 83.5228C52.4917 79.4586 54.8471 76.0934 60.2265 76.0934C65.9452 76.0934 67.7666 79.7132 67.7666 83.6077C67.7666 84.057 67.7367 84.4764 67.6818 84.786H57.1725C57.4519 87.0278 58.5747 87.7867 60.3412 87.7867C61.7684 87.7867 62.6417 87.1676 63.031 86.3288H67.7117C67.2626 88.7404 65.3314 91.0121 60.2265 91.0121C54.5377 91.0121 52.4917 87.3673 52.4917 83.5228ZM63.2006 81.98C63.031 80.2125 62.1627 79.2589 60.3113 79.2589C58.46 79.2589 57.5368 79.9579 57.2274 81.98H63.1956H63.2006Z" fill="#F2F9FF"/>
<path d="M38.2947 23.3835V28.7509C38.2947 30.3936 37.4164 31.9164 35.9942 32.7352L21.9868 40.8237L25.0707 29.3101C25.4949 27.7224 26.7374 26.4841 28.3243 26.0597L38.2947 23.3835Z" fill="#0072E5"/>
<path d="M38.2947 12.529V17.8963L28.3293 15.2251C26.7424 14.8007 25.5048 13.5575 25.0807 11.9698L21.9918 0.451172L35.9942 8.53965C37.4214 9.36347 38.2947 10.8813 38.2947 12.524V12.529Z" fill="#0072E5"/>
<path d="M23.0147 17.2921C24.4269 18.7051 26.0986 19.8485 27.97 20.6424C26.1036 21.4412 24.4219 22.5846 23.0097 23.9976C21.5975 25.4156 20.4498 27.0982 19.6563 28.9755C18.8629 27.0982 17.7201 25.4156 16.3029 23.9976C14.8957 22.5896 13.219 21.4462 11.3527 20.6473C13.219 19.8535 14.8957 18.7101 16.3129 17.2971C17.7251 15.8791 18.8729 14.1965 19.6663 12.3192C20.4597 14.1965 21.6025 15.8791 23.0197 17.2921H23.0147Z" fill="#0072E5"/>
<path d="M17.3209 0.451172L14.237 11.9648C13.8128 13.5525 12.5703 14.7957 10.9884 15.2201L1.01801 17.8963V12.529C1.01801 10.8863 1.89628 9.36347 3.31349 8.54464L17.3209 0.451172Z" fill="#0072E5"/>
<path d="M17.3209 40.8237L3.31349 32.7352C1.89129 31.9114 1.01801 30.3936 1.01801 28.7509V23.3835L10.9884 26.0597C12.5753 26.4841 13.8128 27.7274 14.237 29.3101L17.3209 40.8237Z" fill="#0072E5"/>
<path d="M0 105.012C0 101.698 2.68629 99.0122 6 99.0122H44C47.3137 99.0122 50 101.698 50 105.012V125.012C50 128.326 47.3137 131.012 44 131.012H6C2.68629 131.012 0 128.326 0 125.012V105.012Z" fill="white"/>
<path d="M9.32386 121.012V109.376H13.9148C14.7973 109.376 15.5492 109.544 16.1705 109.882C16.7917 110.215 17.2652 110.679 17.5909 111.274C17.9205 111.864 18.0852 112.546 18.0852 113.319C18.0852 114.092 17.9186 114.774 17.5852 115.364C17.2519 115.955 16.7689 116.416 16.1364 116.745C15.5076 117.075 14.7462 117.239 13.8523 117.239H10.9261V115.268H13.4545C13.928 115.268 14.3182 115.186 14.625 115.024C14.9356 114.857 15.1667 114.628 15.3182 114.336C15.4735 114.041 15.5511 113.702 15.5511 113.319C15.5511 112.933 15.4735 112.596 15.3182 112.308C15.1667 112.016 14.9356 111.791 14.625 111.632C14.3144 111.469 13.9205 111.387 13.4432 111.387H11.7841V121.012H9.32386ZM19.6832 121.012V109.376H24.2741C25.1529 109.376 25.9029 109.533 26.5241 109.847C27.1491 110.158 27.6245 110.599 27.9503 111.171C28.2798 111.739 28.4446 112.408 28.4446 113.177C28.4446 113.95 28.2779 114.614 27.9446 115.171C27.6113 115.724 27.1283 116.149 26.4957 116.444C25.867 116.739 25.1056 116.887 24.2116 116.887H21.1378V114.91H23.8139C24.2836 114.91 24.6738 114.846 24.9844 114.717C25.295 114.588 25.526 114.395 25.6776 114.137C25.8329 113.88 25.9105 113.56 25.9105 113.177C25.9105 112.791 25.8329 112.465 25.6776 112.2C25.526 111.935 25.2931 111.734 24.9787 111.597C24.6681 111.457 24.276 111.387 23.8026 111.387H22.1435V121.012H19.6832ZM25.9673 115.717L28.8594 121.012H26.1435L23.3139 115.717H25.9673ZM40.8764 115.194C40.8764 116.463 40.6359 117.543 40.1548 118.433C39.6776 119.323 39.026 120.003 38.2003 120.472C37.3783 120.938 36.4541 121.171 35.4276 121.171C34.3935 121.171 33.4654 120.936 32.6435 120.467C31.8215 119.997 31.1719 119.317 30.6946 118.427C30.2173 117.537 29.9787 116.459 29.9787 115.194C29.9787 113.925 30.2173 112.846 30.6946 111.955C31.1719 111.065 31.8215 110.387 32.6435 109.921C33.4654 109.452 34.3935 109.217 35.4276 109.217C36.4541 109.217 37.3783 109.452 38.2003 109.921C39.026 110.387 39.6776 111.065 40.1548 111.955C40.6359 112.846 40.8764 113.925 40.8764 115.194ZM38.3821 115.194C38.3821 114.372 38.259 113.679 38.0128 113.114C37.7704 112.55 37.4276 112.122 36.9844 111.83C36.5412 111.539 36.0223 111.393 35.4276 111.393C34.8329 111.393 34.3139 111.539 33.8707 111.83C33.4276 112.122 33.0829 112.55 32.8366 113.114C32.5942 113.679 32.473 114.372 32.473 115.194C32.473 116.016 32.5942 116.709 32.8366 117.274C33.0829 117.838 33.4276 118.266 33.8707 118.558C34.3139 118.849 34.8329 118.995 35.4276 118.995C36.0223 118.995 36.5412 118.849 36.9844 118.558C37.4276 118.266 37.7704 117.838 38.0128 117.274C38.259 116.709 38.3821 116.016 38.3821 115.194Z" fill="#0C111D"/>
</svg>
