<svg width="192" height="27" viewBox="0 0 192 27" fill="none" xmlns="http://www.w3.org/2000/svg">
<path d="M30.7637 7.50208H36.981C40.9777 7.50208 42.8096 10.4279 42.8096 13.6271C42.8096 16.8264 40.9777 19.8082 36.981 19.8082H30.7637V7.50208ZM36.243 17.235C38.4835 17.235 39.406 15.9961 39.406 13.6271C39.406 11.2582 38.4637 10.0753 36.243 10.0753H34.0223V17.2383H36.243V17.235Z" fill="#F2F9FF"/>
<path d="M43.7354 15.179C43.7354 12.698 45.1061 10.2565 49.0467 10.2565C52.9873 10.2565 54.3381 12.698 54.3381 15.179C54.3381 17.66 52.9675 20.1014 49.0467 20.1014C45.1258 20.1014 43.7354 17.6765 43.7354 15.179ZM49.0467 17.6204C50.5458 17.6204 51.1553 17.0274 51.1553 15.179C51.1553 13.3306 50.5458 12.7375 49.0467 12.7375C47.5475 12.7375 46.9182 13.3306 46.9182 15.179C46.9182 17.0274 47.5277 17.6204 49.0467 17.6204Z" fill="#F2F9FF"/>
<path d="M60.4073 10.2565C63.7746 10.2565 65.4055 12.1445 65.4582 14.4574H62.3314C62.259 13.3668 61.6824 12.7375 60.4633 12.7375C59.1322 12.7375 58.3546 13.3306 58.3546 15.179C58.3546 17.0274 59.0762 17.6204 60.4073 17.6204C61.7384 17.6204 62.2754 16.8989 62.3677 15.8808H65.4945C65.4385 18.0817 63.9031 20.1014 60.46 20.1014C56.6281 20.1014 55.1685 17.6765 55.1685 15.179C55.1685 12.6815 56.5754 10.2565 60.4073 10.2565Z" fill="#F2F9FF"/>
<path d="M67.402 16.1608V12.9418H65.7744V11.4624L67.6623 10.6288L68.9769 8.31586H70.5881V10.5563H73.1053V12.9451H70.5881V17.2942H72.8088V19.8115H71.1251C68.2949 19.8115 67.4053 18.5528 67.4053 16.1641L67.402 16.1608Z" fill="#F2F9FF"/>
<path d="M73.8598 15.179C73.8598 12.698 75.2304 10.2565 79.171 10.2565C83.1116 10.2565 84.4625 12.698 84.4625 15.179C84.4625 17.66 83.0919 20.1014 79.171 20.1014C75.2502 20.1014 73.8598 17.6765 73.8598 15.179ZM79.171 17.6204C80.6702 17.6204 81.2797 17.0274 81.2797 15.179C81.2797 13.3306 80.6702 12.7375 79.171 12.7375C77.6719 12.7375 77.0426 13.3306 77.0426 15.179C77.0426 17.0274 77.6521 17.6204 79.171 17.6204Z" fill="#F2F9FF"/>
<path d="M85.7015 10.5531H88.7921V12.4047C89.1611 11.1264 89.9222 10.4048 91.4016 10.4048H92.1791V13.4953H91.049C89.5301 13.4953 88.8843 14.2367 88.8843 16.1048V19.8049H85.7015V10.5531Z" fill="#F2F9FF"/>
<path d="M113.062 7.51855H116.264L114.156 19.8247H108.624L106.755 10.2203L104.904 19.8247H99.3883L97.2598 7.51855H100.462L102.238 17.8083L104.33 7.51855H109.18L111.289 17.8083L113.065 7.51855H113.062Z" fill="#F2F9FF"/>
<path d="M117.371 7.51855H120.683V9.44273H117.371V7.51855ZM117.427 10.5728H120.61V19.8247H117.427V10.5728Z" fill="#F2F9FF"/>
<path d="M126.571 18.2135C127.608 18.2135 128.014 17.8807 128.014 17.3437C128.014 16.8824 127.846 16.4936 126.775 16.3618L124.814 16.1411C123.019 15.9368 122.057 14.9747 122.057 13.3668C122.057 11.1659 123.945 10.2763 126.426 10.2763C128.907 10.2763 130.755 11.1461 130.943 13.3108H128.057C127.964 12.5893 127.463 12.1642 126.445 12.1642C125.371 12.1642 124.966 12.553 124.966 13.0703C124.966 13.4591 125.187 13.8116 126.057 13.9039L127.964 14.0884C130.149 14.3092 131.055 15.1988 131.055 16.9747C131.055 18.7506 129.964 20.1212 126.521 20.1212C123.078 20.1212 121.875 18.5496 121.803 16.8462H124.689C124.765 17.604 125.391 18.2168 126.577 18.2168L126.571 18.2135Z" fill="#F2F9FF"/>
<path d="M131.915 15.179C131.915 12.497 133.47 10.2763 137.022 10.2763C140.797 10.2763 142 12.665 142 15.235C142 15.5315 141.98 15.8083 141.944 16.0126H135.005C135.19 17.4919 135.931 17.9928 137.097 17.9928C138.04 17.9928 138.616 17.5842 138.873 17.0307H141.964C141.667 18.6221 140.392 20.1212 137.022 20.1212C133.265 20.1212 131.915 17.716 131.915 15.179ZM138.985 14.1609C138.873 12.9945 138.3 12.3652 137.078 12.3652C135.855 12.3652 135.246 12.8265 135.041 14.1609H138.982H138.985Z" fill="#F2F9FF"/>
<path d="M24.6157 15.4623V19.0043C24.6157 20.0883 24.0358 21.0932 23.0968 21.6335L13.8482 26.9711L15.8844 19.3733C16.1645 18.3255 16.9849 17.5084 18.0326 17.2284L24.6157 15.4623Z" fill="#0072E5"/>
<path d="M24.6156 8.29944V11.8414L18.0359 10.0786C16.9881 9.79858 16.171 8.97817 15.8909 7.93042L13.8514 0.329285L23.0967 5.66688C24.039 6.21053 24.6156 7.21215 24.6156 8.29615V8.29944Z" fill="#0072E5"/>
<path d="M14.5235 11.4427C15.456 12.3751 16.5597 13.1296 17.7953 13.6535C16.563 14.1807 15.4527 14.9352 14.5202 15.8676C13.5878 16.8034 12.876 17.9214 12.3521 19.1602C11.8283 17.9214 11.0277 16.8034 10.092 15.8676C9.15628 14.9319 8.05581 14.184 6.82355 13.6568C8.05581 13.1329 9.16287 12.3784 10.0986 11.446C11.031 10.5103 11.8283 9.37905 12.3521 8.1402C12.876 9.37905 13.5911 10.5103 14.5268 11.4427H14.5235Z" fill="#0072E5"/>
<path d="M10.7675 0.329285L8.73126 7.92713C8.4512 8.97488 7.63079 9.79529 6.58633 10.0753L0 11.8381V8.29615C0 7.21215 0.579887 6.20723 1.51561 5.66688L10.7675 0.329285Z" fill="#0072E5"/>
<path d="M10.7674 26.9711L1.51885 21.6335C0.579827 21.0899 0.00323486 20.0883 0.00323486 19.0043V15.4623L6.58627 17.2284C7.63403 17.5084 8.45114 18.3288 8.7312 19.3733L10.7674 26.9711Z" fill="#0072E5"/>
<rect x="146" y="1.65021" width="46" height="24" rx="6" fill="#47CD89"/>
<path d="M152.688 17.6502V11.3382H150.12V9.67021H157.368V11.3382H154.8V17.6502H152.688ZM165.024 16.2102C165.024 16.8582 165.096 17.1942 165.18 17.6502H163.044C162.948 17.3262 162.9 16.8702 162.9 16.2102V15.8862C162.9 15.1182 162.408 14.7582 161.724 14.7582H160.272V17.6502H158.136V9.67021H162.552C164.352 9.67021 165.228 10.5942 165.228 11.8782C165.228 13.0182 164.496 13.7862 163.5 13.9902C164.328 14.1702 165.024 14.5902 165.024 15.7662V16.2102ZM160.272 13.2462H161.988C162.72 13.2462 163.02 12.9102 163.02 12.2262C163.02 11.6022 162.708 11.2902 162 11.2902H160.272V13.2462ZM166.115 17.6502V15.9822H167.519V11.3382H166.115V9.67021H171.035V11.3382H169.631V15.9822H171.035V17.6502H166.115ZM180.334 17.6502H178.21L177.694 16.1502H174.274L173.746 17.6502H171.634L174.358 9.67021H177.61L180.334 17.6502ZM174.814 14.5542H177.154L175.978 11.1582L174.814 14.5542ZM181.023 17.6502V9.67021H183.159V15.9822H186.747V17.6502H181.023Z" fill="white"/>
</svg>
