<svg width="95" height="92" viewBox="0 0 95 92" fill="none" xmlns="http://www.w3.org/2000/svg">
<path d="M1.61841 48.9147H11.0349C17.088 48.9147 19.8625 53.3484 19.8625 58.1964C19.8625 63.0445 17.088 67.5631 11.0349 67.5631H1.61841V48.9147ZM9.91708 63.6637C13.3104 63.6637 14.7077 61.7863 14.7077 58.1964C14.7077 54.6066 13.2805 52.8141 9.91708 52.8141H6.5537V63.6687H9.91708V63.6637Z" fill="#001933"/>
<path d="M21.2646 60.553C21.2646 56.7934 23.3406 53.0936 29.3088 53.0936C35.2771 53.0936 37.323 56.7934 37.323 60.553C37.323 64.3126 35.2471 68.0124 29.3088 68.0124C23.3705 68.0124 21.2646 64.3376 21.2646 60.553ZM29.3088 64.2527C31.5793 64.2527 32.5025 63.354 32.5025 60.553C32.5025 57.752 31.5793 56.8533 29.3088 56.8533C27.0383 56.8533 26.0852 57.752 26.0852 60.553C26.0852 63.354 27.0083 64.2527 29.3088 64.2527Z" fill="#001933"/>
<path d="M46.515 53.0936C51.6149 53.0936 54.0851 55.9546 54.1649 59.4596H49.4292C49.3194 57.8069 48.4461 56.8533 46.5998 56.8533C44.5838 56.8533 43.4061 57.752 43.4061 60.553C43.4061 63.354 44.4989 64.2527 46.515 64.2527C48.531 64.2527 49.3444 63.1593 49.4841 61.6165H54.2198C54.135 64.9517 51.8095 68.0124 46.5948 68.0124C40.7912 68.0124 38.5806 64.3376 38.5806 60.553C38.5806 56.7684 40.7114 53.0936 46.515 53.0936Z" fill="#001933"/>
<path d="M57.1092 62.041V57.163H54.644V54.9212L57.5034 53.658L59.4945 50.153H61.9347V53.5481H65.7472V57.168H61.9347V63.7586H65.2981V67.5731H62.7481C58.4615 67.5731 57.1142 65.6659 57.1142 62.046L57.1092 62.041Z" fill="#001933"/>
<path d="M66.8899 60.553C66.8899 56.7934 68.9658 53.0936 74.9341 53.0936C80.9023 53.0936 82.9483 56.7934 82.9483 60.553C82.9483 64.3126 80.8724 68.0124 74.9341 68.0124C68.9957 68.0124 66.8899 64.3376 66.8899 60.553ZM74.9341 64.2527C77.2046 64.2527 78.1278 63.354 78.1278 60.553C78.1278 57.752 77.2046 56.8533 74.9341 56.8533C72.6635 56.8533 71.7104 57.752 71.7104 60.553C71.7104 63.354 72.6336 64.2527 74.9341 64.2527Z" fill="#001933"/>
<path d="M84.8247 53.543H89.5055V56.349C90.0644 54.4118 91.2171 53.3184 93.4577 53.3184H94.6354V58.0017H92.9238C90.6233 58.0017 89.6452 59.1251 89.6452 61.9561V67.5631H84.8247V53.543Z" fill="#001933"/>
<path d="M24.5731 72.2314H29.4236L26.2299 90.8799H17.8514L15.0219 76.3256L12.2175 90.8799H3.85891L0.635254 72.2314H5.48571L8.17541 87.8242L11.3442 72.2314H18.6897L21.8834 87.8242L24.5731 72.2314Z" fill="#001933"/>
<path d="M31.1003 72.2314H36.1155V75.1473H31.1003V72.2314ZM31.1852 76.8598H36.0057V90.8799H31.1852V76.8598Z" fill="#001933"/>
<path d="M45.0279 88.4384C46.5998 88.4384 47.2136 87.9341 47.2136 87.1203C47.2136 86.4213 46.9591 85.8321 45.3373 85.6324L42.3682 85.2979C39.6485 84.9883 38.1914 83.5304 38.1914 81.0939C38.1914 77.7586 41.0507 76.4105 44.8084 76.4105C48.566 76.4105 51.3654 77.7286 51.6499 81.009H47.2785C47.1388 79.9155 46.3803 79.2714 44.8383 79.2714C43.2115 79.2714 42.5977 79.8606 42.5977 80.6445C42.5977 81.2336 42.932 81.7679 44.2495 81.9077L47.1388 82.1873C50.4473 82.5218 51.8196 83.8699 51.8196 86.5611C51.8196 89.2522 50.1678 91.3293 44.9531 91.3293C39.7383 91.3293 37.9169 88.9477 37.8071 86.3663H42.1785C42.2933 87.5147 43.2414 88.4434 45.0379 88.4434L45.0279 88.4384Z" fill="#001933"/>
<path d="M53.127 83.8399C53.127 79.7757 55.4823 76.4105 60.8617 76.4105C66.5805 76.4105 68.4019 80.0304 68.4019 83.9248C68.4019 84.3742 68.372 84.7936 68.3171 85.1031H57.8077C58.0872 87.3449 59.21 88.1039 60.9765 88.1039C62.4037 88.1039 63.277 87.4847 63.6662 86.6459H68.347C67.8979 89.0575 65.9667 91.3293 60.8617 91.3293C55.1729 91.3293 53.127 87.6845 53.127 83.8399ZM63.8359 82.2971C63.6662 80.5297 62.7979 79.576 60.9466 79.576C59.0952 79.576 58.172 80.275 57.8626 82.2971H63.8309H63.8359Z" fill="#001933"/>
<path d="M38.93 23.7006V29.068C38.93 30.7106 38.0517 32.2335 36.6295 33.0523L22.6221 41.1408L25.706 29.6272C26.1302 28.0394 27.3727 26.8012 28.9596 26.3768L38.93 23.7006Z" fill="#0072E5"/>
<path d="M38.9301 12.8461V18.2135L28.9647 15.5423C27.3778 15.1179 26.1403 13.8746 25.7161 12.2869L22.6272 0.768311L36.6296 8.85679C38.0568 9.68061 38.9301 11.1985 38.9301 12.8411V12.8461Z" fill="#0072E5"/>
<path d="M23.6501 17.6093C25.0623 19.0223 26.734 20.1656 28.6053 20.9595C26.739 21.7584 25.0573 22.9017 23.6451 24.3147C22.2329 25.7327 21.0851 27.4153 20.2917 29.2926C19.4983 27.4153 18.3555 25.7327 16.9383 24.3147C15.5311 22.9067 13.8544 21.7633 11.988 20.9645C13.8544 20.1706 15.5311 19.0272 16.9483 17.6143C18.3605 16.1963 19.5082 14.5137 20.3017 12.6364C21.0951 14.5137 22.2379 16.1963 23.6551 17.6093H23.6501Z" fill="#0072E5"/>
<path d="M17.9562 0.768311L14.8723 12.2819C14.4481 13.8696 13.2056 15.1129 11.6237 15.5373L1.65332 18.2135V12.8461C1.65332 11.2034 2.53159 9.68061 3.9488 8.86178L17.9562 0.768311Z" fill="#0072E5"/>
<path d="M17.9562 41.1408L3.9488 33.0523C2.5266 32.2285 1.65332 30.7106 1.65332 29.068V23.7006L11.6237 26.3768C13.2106 26.8012 14.4481 28.0444 14.8723 29.6272L17.9562 41.1408Z" fill="#0072E5"/>
</svg>
