<svg width="204" height="57" viewBox="0 0 204 57" fill="none" xmlns="http://www.w3.org/2000/svg">
<path d="M49.1489 12.1732H58.9289C65.2157 12.1732 68.0973 16.7756 68.0973 21.8081C68.0973 26.8406 65.2157 31.531 58.9289 31.531H49.1489V12.1732ZM57.768 27.4833C61.2923 27.4833 62.7435 25.5345 62.7435 21.8081C62.7435 18.0816 61.2612 16.221 57.768 16.221H54.2747V27.4885H57.768V27.4833Z" fill="#F2F9FF"/>
<path d="M69.5537 24.2491C69.5537 20.3465 71.7098 16.506 77.9084 16.506C84.1071 16.506 86.232 20.3465 86.232 24.2491C86.232 28.1518 84.076 31.9922 77.9084 31.9922C71.7409 31.9922 69.5537 28.1777 69.5537 24.2491ZM77.9084 28.0896C80.2666 28.0896 81.2254 27.1567 81.2254 24.2491C81.2254 21.3416 80.2666 20.4086 77.9084 20.4086C75.5502 20.4086 74.5603 21.3416 74.5603 24.2491C74.5603 27.1567 75.5191 28.0896 77.9084 28.0896Z" fill="#F2F9FF"/>
<path d="M95.779 16.506C101.076 16.506 103.641 19.4757 103.724 23.1141H98.8058C98.6918 21.3986 97.7848 20.4086 95.8671 20.4086C93.7733 20.4086 92.5501 21.3416 92.5501 24.2491C92.5501 27.1567 93.6852 28.0896 95.779 28.0896C97.8729 28.0896 98.7177 26.9545 98.8628 25.3531H103.781C103.693 28.8152 101.278 31.9922 95.8619 31.9922C89.8343 31.9922 87.5383 28.1777 87.5383 24.2491C87.5383 20.3205 89.7514 16.506 95.779 16.506Z" fill="#F2F9FF"/>
<path d="M106.782 25.7935V20.7299H104.221V18.4028L107.191 17.0916L109.259 13.4532H111.794V16.9776H115.753V20.7351H111.794V27.5764H115.287V31.5361H112.638C108.186 31.5361 106.787 29.5563 106.787 25.7987L106.782 25.7935Z" fill="#F2F9FF"/>
<path d="M116.94 24.2491C116.94 20.3465 119.096 16.506 125.295 16.506C131.494 16.506 133.619 20.3465 133.619 24.2491C133.619 28.1518 131.462 31.9922 125.295 31.9922C119.127 31.9922 116.94 28.1777 116.94 24.2491ZM125.295 28.0896C127.653 28.0896 128.612 27.1567 128.612 24.2491C128.612 21.3416 127.653 20.4086 125.295 20.4086C122.937 20.4086 121.947 21.3416 121.947 24.2491C121.947 27.1567 122.906 28.0896 125.295 28.0896Z" fill="#F2F9FF"/>
<path d="M135.567 16.9726H140.429V19.8854C141.009 17.8744 142.207 16.7394 144.534 16.7394H145.757V21.6009H143.979C141.59 21.6009 140.574 22.767 140.574 25.7057V31.526H135.567V16.9726Z" fill="#F2F9FF"/>
<path d="M72.9899 36.3721H78.0276L74.7106 55.7299H66.0086L63.0699 40.622L60.1572 55.7299H51.4812L48.1331 36.3721H53.1708L55.9643 52.558L59.2554 36.3721H66.8845L70.2015 52.558L72.995 36.3721H72.9899Z" fill="#F2F9FF"/>
<path d="M79.769 36.3721H84.9778V39.3988H79.769V36.3721ZM79.8571 41.1765H84.8638V55.7299H79.8571V41.1765Z" fill="#F2F9FF"/>
<path d="M94.2344 53.2005C95.867 53.2005 96.5045 52.677 96.5045 51.8322C96.5045 51.1066 96.2402 50.4951 94.5557 50.2878L91.472 49.9405C88.6473 49.6192 87.1339 48.1058 87.1339 45.5766C87.1339 42.1145 90.1037 40.7151 94.0064 40.7151C97.909 40.7151 100.817 42.0834 101.112 45.4885H96.5719C96.4267 44.3534 95.6389 43.6848 94.0375 43.6848C92.3479 43.6848 91.7104 44.2964 91.7104 45.1101C91.7104 45.7217 92.0576 46.2763 93.4259 46.4214L96.4267 46.7116C99.8629 47.0589 101.288 48.4582 101.288 51.2518C101.288 54.0453 99.5727 56.2014 94.1567 56.2014C88.7406 56.2014 86.8489 53.7291 86.7349 51.0496H91.275C91.3942 52.2417 92.379 53.2057 94.2448 53.2057L94.2344 53.2005Z" fill="#F2F9FF"/>
<path d="M102.646 48.4271C102.646 44.2083 105.092 40.7151 110.679 40.7151C116.619 40.7151 118.51 44.4726 118.51 48.5152C118.51 48.9817 118.479 49.417 118.422 49.7384H107.507C107.797 52.0655 108.964 52.8533 110.798 52.8533C112.281 52.8533 113.188 52.2106 113.592 51.3399H118.453C117.987 53.8432 115.981 56.2014 110.679 56.2014C104.771 56.2014 102.646 52.4179 102.646 48.4271ZM113.768 46.8256C113.592 44.9909 112.69 44.001 110.767 44.001C108.844 44.001 107.886 44.7266 107.564 46.8256H113.763H113.768Z" fill="#F2F9FF"/>
<path d="M39.4777 24.6951V30.2666C39.4777 31.9717 38.5656 33.5525 37.0885 34.4025L22.5403 42.7987L25.7433 30.8471C26.1838 29.1989 27.4743 27.9136 29.1225 27.4731L39.4777 24.6951Z" fill="#0072E5"/>
<path d="M39.4777 13.4275V18.999L29.1276 16.2262C27.4795 15.7857 26.1941 14.4952 25.7536 12.847L22.5454 0.890259L37.0884 9.28643C38.5707 10.1416 39.4777 11.7172 39.4777 13.4223V13.4275Z" fill="#0072E5"/>
<path d="M23.6027 18.3719C25.0695 19.8387 26.8057 21.0255 28.7493 21.8496C26.8109 22.6789 25.0643 23.8657 23.5975 25.3325C22.1308 26.8044 20.9388 28.551 20.1147 30.4997C19.2906 28.551 18.1038 26.8044 16.6318 25.3325C15.1599 23.8605 13.4289 22.684 11.4905 21.8548C13.4289 21.0307 15.1703 19.8438 16.6422 18.3771C18.1089 16.9052 19.301 15.1586 20.1251 13.2098C20.9491 15.1586 22.136 16.9052 23.6079 18.3719H23.6027Z" fill="#0072E5"/>
<path d="M17.6943 0.890259L14.4913 12.8418C14.0508 14.49 12.7602 15.7805 11.1173 16.221L0.756836 18.9938V13.4223C0.756836 11.7172 1.66901 10.1364 3.14093 9.28643L17.6943 0.890259Z" fill="#0072E5"/>
<path d="M17.6942 42.7987L3.14606 34.4025C1.66896 33.5473 0.761963 31.9717 0.761963 30.2666V24.6951L11.1172 27.4731C12.7654 27.9136 14.0507 29.2041 14.4913 30.8471L17.6942 42.7987Z" fill="#0072E5"/>
<path d="M153.757 18.5459C153.757 15.2322 156.443 12.5459 159.757 12.5459H197.757C201.071 12.5459 203.757 15.2322 203.757 18.5459V38.5459C203.757 41.8596 201.071 44.5459 197.757 44.5459H159.757C156.443 44.5459 153.757 41.8596 153.757 38.5459V18.5459Z" fill="white"/>
<path d="M163.081 34.5459V22.9095H167.672C168.554 22.9095 169.306 23.0781 169.927 23.4152C170.549 23.7485 171.022 24.2126 171.348 24.8073C171.677 25.3982 171.842 26.08 171.842 26.8527C171.842 27.6254 171.675 28.3073 171.342 28.8982C171.009 29.4891 170.526 29.9493 169.893 30.2789C169.264 30.6084 168.503 30.7732 167.609 30.7732H164.683V28.8016H167.211C167.685 28.8016 168.075 28.7201 168.382 28.5573C168.692 28.3906 168.924 28.1614 169.075 27.8698C169.23 27.5743 169.308 27.2353 169.308 26.8527C169.308 26.4664 169.23 26.1292 169.075 25.8414C168.924 25.5497 168.692 25.3243 168.382 25.1652C168.071 25.0023 167.677 24.9209 167.2 24.9209H165.541V34.5459H163.081ZM173.44 34.5459V22.9095H178.031C178.91 22.9095 179.66 23.0667 180.281 23.3811C180.906 23.6917 181.381 24.133 181.707 24.705C182.037 25.2732 182.201 25.9417 182.201 26.7107C182.201 27.4834 182.035 28.1482 181.701 28.705C181.368 29.258 180.885 29.6823 180.253 29.9777C179.624 30.2732 178.862 30.4209 177.968 30.4209H174.895V28.4436H177.571C178.04 28.4436 178.431 28.3792 178.741 28.2504C179.052 28.1217 179.283 27.9285 179.434 27.6709C179.59 27.4133 179.667 27.0932 179.667 26.7107C179.667 26.3243 179.59 25.9985 179.434 25.7334C179.283 25.4682 179.05 25.2675 178.736 25.1311C178.425 24.991 178.033 24.9209 177.559 24.9209H175.9V34.5459H173.44ZM179.724 29.2504L182.616 34.5459H179.9L177.071 29.2504H179.724ZM194.633 28.7277C194.633 29.9967 194.393 31.0762 193.912 31.9664C193.434 32.8565 192.783 33.5364 191.957 34.0061C191.135 34.472 190.211 34.705 189.184 34.705C188.15 34.705 187.222 34.4701 186.4 34.0004C185.578 33.5307 184.929 32.8508 184.451 31.9607C183.974 31.0705 183.736 29.9929 183.736 28.7277C183.736 27.4588 183.974 26.3792 184.451 25.4891C184.929 24.5989 185.578 23.9209 186.4 23.455C187.222 22.9853 188.15 22.7504 189.184 22.7504C190.211 22.7504 191.135 22.9853 191.957 23.455C192.783 23.9209 193.434 24.5989 193.912 25.4891C194.393 26.3792 194.633 27.4588 194.633 28.7277ZM192.139 28.7277C192.139 27.9057 192.016 27.2126 191.77 26.6482C191.527 26.0838 191.184 25.6557 190.741 25.3641C190.298 25.0724 189.779 24.9266 189.184 24.9266C188.59 24.9266 188.071 25.0724 187.628 25.3641C187.184 25.6557 186.84 26.0838 186.593 26.6482C186.351 27.2126 186.23 27.9057 186.23 28.7277C186.23 29.5497 186.351 30.2429 186.593 30.8073C186.84 31.3717 187.184 31.7997 187.628 32.0914C188.071 32.383 188.59 32.5289 189.184 32.5289C189.779 32.5289 190.298 32.383 190.741 32.0914C191.184 31.7997 191.527 31.3717 191.77 30.8073C192.016 30.2429 192.139 29.5497 192.139 28.7277Z" fill="#0C111D"/>
</svg>
