<svg width="92" height="36" viewBox="0 0 92 36" fill="none" xmlns="http://www.w3.org/2000/svg">
<path d="M30.704 7.15894H36.9092C40.898 7.15894 42.7264 10.079 42.7264 13.2721C42.7264 16.4651 40.898 19.4411 36.9092 19.4411H30.704V7.15894ZM36.1726 16.8729C38.4087 16.8729 39.3295 15.6365 39.3295 13.2721C39.3295 10.9077 38.389 9.72718 36.1726 9.72718H33.9562V16.8762H36.1726V16.8729Z" fill="#001933"/>
<path d="M43.6505 14.8209C43.6505 12.3447 45.0185 9.90802 48.9514 9.90802C52.8844 9.90802 54.2326 12.3447 54.2326 14.8209C54.2326 17.2971 52.8646 19.7338 48.9514 19.7338C45.0382 19.7338 43.6505 17.3135 43.6505 14.8209ZM48.9514 17.2576C50.4477 17.2576 51.056 16.6657 51.056 14.8209C51.056 12.9761 50.4477 12.3842 48.9514 12.3842C47.4552 12.3842 46.8271 12.9761 46.8271 14.8209C46.8271 16.6657 47.4355 17.2576 48.9514 17.2576Z" fill="#001933"/>
<path d="M60.29 9.90802C63.6507 9.90802 65.2785 11.7923 65.3311 14.1007H62.2104C62.1381 13.0123 61.5626 12.3842 60.3459 12.3842C59.0174 12.3842 58.2413 12.9761 58.2413 14.8209C58.2413 16.6657 58.9615 17.2576 60.29 17.2576C61.6185 17.2576 62.1545 16.5375 62.2466 15.5213H65.3673C65.3114 17.718 63.779 19.7338 60.3426 19.7338C56.5182 19.7338 55.0614 17.3135 55.0614 14.8209C55.0614 12.3283 56.4656 9.90802 60.29 9.90802Z" fill="#001933"/>
<path d="M67.2711 15.8008V12.588H65.6466V11.1115L67.5309 10.2795L68.8429 7.97107H70.451V10.2072H72.9633V12.5913H70.451V16.932H72.6674V19.4443H70.987C68.1622 19.4443 67.2744 18.1882 67.2744 15.8041L67.2711 15.8008Z" fill="#001933"/>
<path d="M73.7163 14.8209C73.7163 12.3447 75.0843 9.90802 79.0172 9.90802C82.9502 9.90802 84.2984 12.3447 84.2984 14.8209C84.2984 17.2971 82.9304 19.7338 79.0172 19.7338C75.104 19.7338 73.7163 17.3135 73.7163 14.8209ZM79.0172 17.2576C80.5135 17.2576 81.1218 16.6657 81.1218 14.8209C81.1218 12.9761 80.5135 12.3842 79.0172 12.3842C77.521 12.3842 76.8929 12.9761 76.8929 14.8209C76.8929 16.6657 77.5013 17.2576 79.0172 17.2576Z" fill="#001933"/>
<path d="M85.535 10.204H88.6196V12.0521C88.9879 10.7762 89.7475 10.056 91.224 10.056H92V13.1406H90.8721C89.3562 13.1406 88.7116 13.8805 88.7116 15.745V19.4379H85.535V10.204Z" fill="#001933"/>
<path d="M45.8307 22.5125H49.027L46.9224 34.7947H41.4012L39.5366 25.209L37.6886 34.7947H32.1838L30.0594 22.5125H33.2558L35.0282 32.7822L37.1164 22.5125H41.9569L44.0615 32.7822L45.834 22.5125H45.8307Z" fill="#001933"/>
<path d="M50.1318 22.5125H53.4367V24.4329H50.1318V22.5125ZM50.1877 25.5609H53.3643V34.7947H50.1877V25.5609Z" fill="#001933"/>
<path d="M59.31 33.1899C60.3458 33.1899 60.7503 32.8578 60.7503 32.3218C60.7503 31.8614 60.5826 31.4734 59.5138 31.3418L57.5572 31.1215C55.7651 30.9176 54.8048 29.9574 54.8048 28.3527C54.8048 26.156 56.6891 25.2681 59.1653 25.2681C61.6414 25.2681 63.4862 26.1363 63.6737 28.2968H60.793C60.701 27.5766 60.2011 27.1524 59.185 27.1524C58.113 27.1524 57.7085 27.5404 57.7085 28.0567C57.7085 28.4447 57.9288 28.7966 58.797 28.8887L60.701 29.0728C62.8812 29.2931 63.7855 30.181 63.7855 31.9535C63.7855 33.7259 62.697 35.0939 59.2606 35.0939C55.8243 35.0939 54.624 33.5253 54.5516 31.8252H57.4323C57.5079 32.5816 58.1327 33.1932 59.3165 33.1932L59.31 33.1899Z" fill="#001933"/>
<path d="M64.6469 30.1613C64.6469 27.4845 66.199 25.2681 69.7439 25.2681C73.5124 25.2681 74.7127 27.6522 74.7127 30.2172C74.7127 30.5131 74.6929 30.7894 74.6568 30.9932H67.7314C67.9155 32.4697 68.6554 32.9696 69.8195 32.9696C70.76 32.9696 71.3355 32.5618 71.592 32.0094H74.6765C74.3805 33.5977 73.1079 35.0939 69.7439 35.0939C65.9951 35.0939 64.6469 32.6934 64.6469 30.1613ZM71.7038 29.1452C71.592 27.9811 71.0198 27.353 69.7998 27.353C68.5798 27.353 67.9714 27.8134 67.7676 29.1452H71.7005H71.7038Z" fill="#001933"/>
<path d="M24.5678 15.1037V18.6387C24.5678 19.7206 23.9891 20.7236 23.0519 21.2629L13.8213 26.5901L15.8535 19.007C16.133 17.9613 16.9519 17.1458 17.9976 16.8663L24.5678 15.1037Z" fill="#0072E5"/>
<path d="M24.5677 7.95466V11.4897L18.0007 9.73041C16.955 9.45089 16.1395 8.63208 15.86 7.58636L13.8245 0L23.0517 5.32722C23.9922 5.86981 24.5677 6.86949 24.5677 7.95138V7.95466Z" fill="#0072E5"/>
<path d="M14.4953 11.0918C15.4259 12.0225 16.5276 12.7755 17.7607 13.2984C16.5308 13.8245 15.4226 14.5776 14.492 15.5082C13.5614 16.4421 12.8051 17.5503 12.2822 18.7867C11.7594 17.5503 11.0063 16.4421 10.0724 15.5082C9.1385 14.5743 8.04017 13.8278 6.8103 13.3017C8.04017 12.7788 9.14507 12.0258 10.079 11.0951C11.0096 10.1612 11.7659 9.05303 12.2888 7.81659C12.8117 9.05303 13.5647 10.1612 14.4986 11.0918H14.4953Z" fill="#0072E5"/>
<path d="M10.7465 0L8.71429 7.58307C8.43477 8.62879 7.61596 9.4476 6.57353 9.72712L0 11.4864V7.95138C0 6.86949 0.57876 5.86652 1.51267 5.32722L10.7465 0Z" fill="#0072E5"/>
<path d="M10.7464 26.5901L1.51584 21.2629C0.578646 20.7203 0.00317383 19.7206 0.00317383 18.6387V15.1037L6.57342 16.8663C7.61913 17.1458 8.43466 17.9646 8.71417 19.007L10.7464 26.5901Z" fill="#0072E5"/>
</svg>
