<svg width="61" height="87" viewBox="0 0 61 87" fill="none" xmlns="http://www.w3.org/2000/svg">
<path d="M0.637939 31.244H6.74863C10.6767 31.244 12.4772 34.1211 12.4772 37.2672C12.4772 40.4133 10.6767 43.3456 6.74863 43.3456H0.637939V31.244ZM6.02325 40.8151C8.2253 40.8151 9.13202 39.5968 9.13202 37.2672C9.13202 34.9376 8.20586 33.7744 6.02325 33.7744H3.84063V40.8183H6.02325V40.8151Z" fill="#F2F9FF"/>
<path d="M13.3872 38.7964C13.3872 36.3566 14.7343 33.9557 18.6074 33.9557C22.4804 33.9557 23.8081 36.3566 23.8081 38.7964C23.8081 41.2362 22.4609 43.6371 18.6074 43.6371C14.7538 43.6371 13.3872 41.2524 13.3872 38.7964ZM18.6074 41.1973C20.0808 41.1973 20.6799 40.6141 20.6799 38.7964C20.6799 36.9787 20.0808 36.3955 18.6074 36.3955C17.1339 36.3955 16.5154 36.9787 16.5154 38.7964C16.5154 40.6141 17.1145 41.1973 18.6074 41.1973Z" fill="#F2F9FF"/>
<path d="M29.7729 33.9557C33.0825 33.9557 34.6854 35.8123 34.7373 38.0868H31.6641C31.5929 37.0144 31.0262 36.3955 29.828 36.3955C28.5197 36.3955 27.7555 36.9787 27.7555 38.7964C27.7555 40.6141 28.4647 41.1973 29.7729 41.1973C31.0812 41.1973 31.6091 40.4877 31.6997 39.4865H34.7729C34.7178 41.6509 33.2088 43.6371 29.8247 43.6371C26.0586 43.6371 24.624 41.2524 24.624 38.7964C24.624 36.3404 26.0068 33.9557 29.7729 33.9557Z" fill="#F2F9FF"/>
<path d="M36.6478 39.762V36.5965H35.0481V35.1417L36.9036 34.3219L38.1957 32.0474H39.7793V34.2507H42.2533V36.5997H39.7793V40.8766H41.9619V43.352H40.3071C37.5254 43.352 36.6511 42.1143 36.6511 39.7653L36.6478 39.762Z" fill="#F2F9FF"/>
<path d="M42.9951 38.7964C42.9951 36.3566 44.3423 33.9557 48.2153 33.9557C52.0883 33.9557 53.416 36.3566 53.416 38.7964C53.416 41.2362 52.0689 43.6371 48.2153 43.6371C44.3617 43.6371 42.9951 41.2524 42.9951 38.7964ZM48.2153 41.1973C49.6887 41.1973 50.2878 40.6141 50.2878 38.7964C50.2878 36.9787 49.6887 36.3955 48.2153 36.3955C46.7418 36.3955 46.1233 36.9787 46.1233 38.7964C46.1233 40.6141 46.7224 41.1973 48.2153 41.1973Z" fill="#F2F9FF"/>
<path d="M54.6335 34.2474H57.6711V36.0683C58.0338 34.8112 58.7818 34.1016 60.2358 34.1016H61.0001V37.1408H59.8893C58.3965 37.1408 57.7617 37.8698 57.7617 39.7069V43.3455H54.6335V34.2474Z" fill="#F2F9FF"/>
<path d="M15.5342 46.3751H18.6818L16.6093 58.4767H11.1722L9.33604 49.0319L7.51611 58.4767H2.09195L0 46.3751H3.14764L4.89308 56.4938L6.94941 46.3751H11.7162L13.7887 56.4938L15.5342 46.3751Z" fill="#F2F9FF"/>
<path d="M19.7698 46.3751H23.0243V48.2673H19.7698V46.3751ZM19.8248 49.3786H22.953V58.4767H19.8248V49.3786Z" fill="#F2F9FF"/>
<path d="M28.8079 56.8924C29.828 56.8924 30.2263 56.5651 30.2263 56.037C30.2263 55.5834 30.0611 55.201 29.0087 55.0714L27.0819 54.8544C25.317 54.6535 24.3714 53.7074 24.3714 52.1262C24.3714 49.9619 26.227 49.087 28.6654 49.087C31.1039 49.087 32.9206 49.9424 33.1051 52.0711H30.2684C30.1777 51.3616 29.6855 50.9436 28.6848 50.9436C27.6292 50.9436 27.2308 51.3259 27.2308 51.8346C27.2308 52.2169 27.4478 52.5636 28.3027 52.6543L30.1777 52.8358C32.3247 53.0529 33.2152 53.9277 33.2152 55.6741C33.2152 57.4205 32.1434 58.7684 28.7593 58.7684C25.3753 58.7684 24.1933 57.2228 24.1221 55.5477H26.9588C27.0333 56.2929 27.6486 56.8956 28.8144 56.8956L28.8079 56.8924Z" fill="#F2F9FF"/>
<path d="M34.0637 53.9083C34.0637 51.2708 35.5922 49.087 39.0831 49.087C42.7942 49.087 43.9762 51.4361 43.9762 53.9633C43.9762 54.2549 43.9568 54.5271 43.9211 54.728H37.1013C37.2826 56.1828 38.0112 56.6753 39.1576 56.6753C40.0837 56.6753 40.6504 56.2735 40.903 55.7292H43.9406C43.6491 57.2941 42.3959 58.7684 39.0831 58.7684C35.3914 58.7684 34.0637 56.4031 34.0637 53.9083ZM41.0131 52.9071C40.903 51.7601 40.3396 51.1412 39.1381 51.1412C37.9367 51.1412 37.3376 51.5948 37.1369 52.9071H41.0099H41.0131Z" fill="#F2F9FF"/>
<path d="M24.8509 14.8816V18.3647C24.8509 19.4306 24.2809 20.4189 23.358 20.9502L14.2681 26.1991L16.2693 18.7275C16.5446 17.6972 17.3509 16.8937 18.3807 16.6183L24.8509 14.8816Z" fill="#0072E5"/>
<path d="M24.8508 7.83772V11.3208L18.3839 9.58735C17.3541 9.31195 16.551 8.50517 16.2758 7.47483L14.2712 0L23.3579 5.24891C24.2841 5.78352 24.8508 6.7685 24.8508 7.83448V7.83772Z" fill="#0072E5"/>
<path d="M14.9351 10.9287C15.8516 11.8456 16.9364 12.5876 18.1508 13.1028C16.9396 13.6212 15.8483 14.3632 14.9319 15.2801C14.0154 16.2003 13.2706 17.2922 12.7557 18.5105C12.2408 17.2922 11.4993 16.2003 10.5796 15.2801C9.66639 14.3664 8.57831 13.6244 7.36719 13.106C8.57831 12.5909 9.66639 11.8489 10.5861 10.9319C11.5025 10.0118 12.2473 8.91986 12.7622 7.7016C13.2771 8.91986 14.0187 10.0118 14.9384 10.9287H14.9351Z" fill="#0072E5"/>
<path d="M11.2402 0L9.23892 7.47159C8.96367 8.50193 8.15733 9.30871 7.13078 9.58411L0.660645 11.3208V7.83772C0.660645 6.77174 1.23059 5.78352 2.15027 5.25214L11.2402 0Z" fill="#0072E5"/>
<path d="M11.2402 26.1991L2.15027 20.9502C1.22735 20.4156 0.660645 19.4306 0.660645 18.3647V14.8816L7.13078 16.6183C8.16057 16.8937 8.96367 17.7004 9.23892 18.7275L11.2402 26.1991Z" fill="#0072E5"/>
<rect y="62.7683" width="39" height="24" rx="6" fill="#59ACFF"/>
<path d="M9.112 70.7883C10.948 70.7883 11.68 71.9763 11.68 73.4283C11.68 74.9763 10.948 76.1643 9.112 76.1643H6.784V78.7683H4.648V70.7883H9.112ZM6.784 74.5323H8.404C9.172 74.5323 9.472 74.0643 9.472 73.4403C9.472 72.8283 9.184 72.4083 8.428 72.4083H6.784V74.5323ZM12.605 78.7683V70.7883H14.741V77.1003H18.329V78.7683H12.605ZM18.9661 75.7323V70.7883H21.0901V75.4563C21.0901 76.8483 21.5941 77.2323 22.6861 77.2323C23.7781 77.2323 24.2821 76.8483 24.2821 75.4563V70.7883H26.3941V75.7323C26.3941 77.8563 25.1461 78.9603 22.6861 78.9603C20.2261 78.9603 18.9661 77.8683 18.9661 75.7323ZM29.3582 76.1763C29.4182 76.8363 29.8502 77.4363 30.9662 77.4363C31.9862 77.4363 32.3702 77.0763 32.3702 76.5243C32.3702 75.9963 32.0582 75.7323 31.4582 75.6483L29.7182 75.4563C28.2782 75.2883 27.4502 74.4723 27.4502 73.1163C27.4502 71.6163 28.5782 70.5843 30.8822 70.5843C33.3422 70.5843 34.3262 71.7603 34.4342 73.1763H32.3462C32.2622 72.5403 31.7822 72.1203 30.8822 72.1203C30.0662 72.1203 29.5862 72.4443 29.5862 72.9723C29.5862 73.3803 29.8262 73.6803 30.4382 73.7523L31.9622 73.9083C33.7142 74.0763 34.5062 74.9043 34.5062 76.3443C34.5062 77.9163 33.5222 78.9723 30.9302 78.9723C28.3022 78.9723 27.3902 77.6043 27.3062 76.1763H29.3582Z" fill="white"/>
</svg>
