<svg width="142" height="36" viewBox="0 0 142 36" fill="none" xmlns="http://www.w3.org/2000/svg">
<path d="M30.7039 7.48822H36.9091C40.898 7.48822 42.7263 10.4083 42.7263 13.6014C42.7263 16.7944 40.898 19.7704 36.9091 19.7704H30.7039V7.48822ZM36.1725 17.2022C38.4087 17.2022 39.3294 15.9657 39.3294 13.6014C39.3294 11.237 38.3889 10.0565 36.1725 10.0565H33.9562V17.2055H36.1725V17.2022Z" fill="#001933"/>
<path d="M43.6505 15.1502C43.6505 12.674 45.0184 10.2373 48.9514 10.2373C52.8843 10.2373 54.2326 12.674 54.2326 15.1502C54.2326 17.6264 52.8646 20.0631 48.9514 20.0631C45.0382 20.0631 43.6505 17.6428 43.6505 15.1502ZM48.9514 17.5869C50.4476 17.5869 51.0559 16.995 51.0559 15.1502C51.0559 13.3054 50.4476 12.7135 48.9514 12.7135C47.4551 12.7135 46.8271 13.3054 46.8271 15.1502C46.8271 16.995 47.4354 17.5869 48.9514 17.5869Z" fill="#001933"/>
<path d="M60.2899 10.2373C63.6507 10.2373 65.2784 12.1216 65.331 14.43H62.2103C62.138 13.3416 61.5625 12.7135 60.3458 12.7135C59.0173 12.7135 58.2412 13.3054 58.2412 15.1502C58.2412 16.995 58.9614 17.5869 60.2899 17.5869C61.6184 17.5869 62.1544 16.8667 62.2465 15.8506H65.3672C65.3113 18.0473 63.7789 20.0631 60.3425 20.0631C56.5181 20.0631 55.0613 17.6428 55.0613 15.1502C55.0613 12.6576 56.4655 10.2373 60.2899 10.2373Z" fill="#001933"/>
<path d="M67.271 16.1301V12.9173H65.6465V11.4408L67.5308 10.6088L68.8429 8.30035H70.4509V10.5365H72.9633V12.9206H70.4509V17.2613H72.6673V19.7736H70.9869C68.1622 19.7736 67.2743 18.5174 67.2743 16.1333L67.271 16.1301Z" fill="#001933"/>
<path d="M73.7163 15.1502C73.7163 12.674 75.0843 10.2373 79.0172 10.2373C82.9502 10.2373 84.2984 12.674 84.2984 15.1502C84.2984 17.6264 82.9304 20.0631 79.0172 20.0631C75.104 20.0631 73.7163 17.6428 73.7163 15.1502ZM79.0172 17.5869C80.5135 17.5869 81.1218 16.995 81.1218 15.1502C81.1218 13.3054 80.5135 12.7135 79.0172 12.7135C77.521 12.7135 76.8929 13.3054 76.8929 15.1502C76.8929 16.995 77.5013 17.5869 79.0172 17.5869Z" fill="#001933"/>
<path d="M85.535 10.5333H88.6195V12.3814C88.9878 11.1055 89.7474 10.3853 91.2239 10.3853H92V13.4698H90.8721C89.3561 13.4698 88.7116 14.2097 88.7116 16.0743V19.7671H85.535V10.5333Z" fill="#001933"/>
<path d="M45.8307 22.8418H49.027L46.9224 35.124H41.4012L39.5366 25.5383L37.6886 35.124H32.1838L30.0594 22.8418H33.2558L35.0282 33.1115L37.1164 22.8418H41.9569L44.0615 33.1115L45.834 22.8418H45.8307Z" fill="#001933"/>
<path d="M50.1318 22.8418H53.4367V24.7622H50.1318V22.8418ZM50.1877 25.8902H53.3643V35.124H50.1877V25.8902Z" fill="#001933"/>
<path d="M59.31 33.5192C60.3459 33.5192 60.7504 33.1871 60.7504 32.6511C60.7504 32.1907 60.5826 31.8026 59.5139 31.6711L57.5573 31.4508C55.7651 31.2469 54.8049 30.2867 54.8049 28.6819C54.8049 26.4853 56.6892 25.5974 59.1653 25.5974C61.6415 25.5974 63.4863 26.4656 63.6737 28.626H60.7931C60.701 27.9059 60.2012 27.4817 59.1851 27.4817C58.113 27.4817 57.7086 27.8697 57.7086 28.386C57.7086 28.774 57.9289 29.1259 58.797 29.218L60.701 29.4021C62.8812 29.6224 63.7856 30.5103 63.7856 32.2827C63.7856 34.0552 62.6971 35.4232 59.2607 35.4232C55.8243 35.4232 54.624 33.8546 54.5517 32.1545H57.4323C57.508 32.9108 58.1328 33.5225 59.3166 33.5225L59.31 33.5192Z" fill="#001933"/>
<path d="M64.6469 30.4906C64.6469 27.8138 66.199 25.5974 69.7439 25.5974C73.5124 25.5974 74.7127 27.9815 74.7127 30.5465C74.7127 30.8424 74.6929 31.1187 74.6568 31.3225H67.7314C67.9155 32.799 68.6554 33.2989 69.8195 33.2989C70.76 33.2989 71.3355 32.8911 71.592 32.3387H74.6765C74.3805 33.927 73.1079 35.4232 69.7439 35.4232C65.9951 35.4232 64.6469 33.0226 64.6469 30.4906ZM71.7038 29.4744C71.592 28.3104 71.0198 27.6823 69.7998 27.6823C68.5798 27.6823 67.9714 28.1426 67.7676 29.4744H71.7005H71.7038Z" fill="#001933"/>
<path d="M24.5678 15.433V18.968C24.5678 20.0499 23.989 21.0529 23.0518 21.5922L13.8212 26.9194L15.8535 19.3363C16.133 18.2906 16.9518 17.4751 17.9975 17.1956L24.5678 15.433Z" fill="#0072E5"/>
<path d="M24.5678 8.28395V11.819L18.0008 10.0597C16.9551 9.78018 16.1396 8.96136 15.86 7.91565L13.8245 0.329285L23.0518 5.65651C23.9923 6.1991 24.5678 7.19877 24.5678 8.28066V8.28395Z" fill="#0072E5"/>
<path d="M14.4953 11.4211C15.4259 12.3517 16.5275 13.1048 17.7606 13.6277C16.5308 14.1538 15.4226 14.9068 14.492 15.8375C13.5613 16.7714 12.805 17.8796 12.2822 19.116C11.7593 17.8796 11.0063 16.7714 10.0723 15.8375C9.13844 14.9036 8.04011 14.1571 6.81024 13.6309C8.04011 13.1081 9.14501 12.355 10.0789 11.4244C11.0095 10.4905 11.7659 9.38232 12.2887 8.14587C12.8116 9.38232 13.5646 10.4905 14.4985 11.4211H14.4953Z" fill="#0072E5"/>
<path d="M10.7465 0.329285L8.71429 7.91236C8.43477 8.95807 7.61596 9.77689 6.57353 10.0564L0 11.8157V8.28066C0 7.19877 0.57876 6.19581 1.51267 5.65651L10.7465 0.329285Z" fill="#0072E5"/>
<path d="M10.7465 26.9194L1.5159 21.5922C0.578707 21.0496 0.00323486 20.0499 0.00323486 18.968V15.433L6.57348 17.1956C7.61919 17.4751 8.43472 18.2939 8.71423 19.3363L10.7465 26.9194Z" fill="#0072E5"/>
<rect x="96" y="5.87628" width="46" height="24" rx="6" fill="#47CD89"/>
<path d="M102.688 21.8763V15.5643H100.12V13.8963H107.368V15.5643H104.8V21.8763H102.688ZM115.024 20.4363C115.024 21.0843 115.096 21.4203 115.18 21.8763H113.044C112.948 21.5523 112.9 21.0963 112.9 20.4363V20.1123C112.9 19.3443 112.408 18.9843 111.724 18.9843H110.272V21.8763H108.136V13.8963H112.552C114.352 13.8963 115.228 14.8203 115.228 16.1043C115.228 17.2443 114.496 18.0123 113.5 18.2163C114.328 18.3963 115.024 18.8163 115.024 19.9923V20.4363ZM110.272 17.4723H111.988C112.72 17.4723 113.02 17.1363 113.02 16.4523C113.02 15.8283 112.708 15.5163 112 15.5163H110.272V17.4723ZM116.115 21.8763V20.2083H117.519V15.5643H116.115V13.8963H121.035V15.5643H119.631V20.2083H121.035V21.8763H116.115ZM130.334 21.8763H128.21L127.694 20.3763H124.274L123.746 21.8763H121.634L124.358 13.8963H127.61L130.334 21.8763ZM124.814 18.7803H127.154L125.978 15.3843L124.814 18.7803ZM131.023 21.8763V13.8963H133.159V20.2083H136.747V21.8763H131.023Z" fill="white"/>
</svg>
