<svg width="136" height="36" viewBox="0 0 136 36" fill="none" xmlns="http://www.w3.org/2000/svg">
<path d="M30.704 8.04919H36.9092C40.898 8.04919 42.7264 10.9693 42.7264 14.1623C42.7264 17.3554 40.898 20.3314 36.9092 20.3314H30.704V8.04919ZM36.1726 17.7632C38.4087 17.7632 39.3295 16.5267 39.3295 14.1623C39.3295 11.798 38.389 10.6174 36.1726 10.6174H33.9562V17.7664H36.1726V17.7632Z" fill="#001933"/>
<path d="M43.6505 15.7111C43.6505 13.2349 45.0185 10.7982 48.9514 10.7982C52.8844 10.7982 54.2326 13.2349 54.2326 15.7111C54.2326 18.1873 52.8646 20.624 48.9514 20.624C45.0382 20.624 43.6505 18.2037 43.6505 15.7111ZM48.9514 18.1478C50.4477 18.1478 51.056 17.5559 51.056 15.7111C51.056 13.8663 50.4477 13.2744 48.9514 13.2744C47.4552 13.2744 46.8271 13.8663 46.8271 15.7111C46.8271 17.5559 47.4355 18.1478 48.9514 18.1478Z" fill="#001933"/>
<path d="M60.29 10.7982C63.6507 10.7982 65.2785 12.6825 65.3311 14.9909H62.2104C62.1381 13.9025 61.5626 13.2744 60.3459 13.2744C59.0174 13.2744 58.2413 13.8663 58.2413 15.7111C58.2413 17.5559 58.9615 18.1478 60.29 18.1478C61.6185 18.1478 62.1545 17.4277 62.2466 16.4115H65.3673C65.3114 18.6082 63.779 20.624 60.3426 20.624C56.5182 20.624 55.0614 18.2037 55.0614 15.7111C55.0614 13.2185 56.4656 10.7982 60.29 10.7982Z" fill="#001933"/>
<path d="M67.2711 16.691V13.4783H65.6466V12.0018L67.5309 11.1698L68.8429 8.86133H70.451V11.0974H72.9633V13.4815H70.451V17.8222H72.6674V20.3346H70.987C68.1622 20.3346 67.2744 19.0784 67.2744 16.6943L67.2711 16.691Z" fill="#001933"/>
<path d="M73.7163 15.7111C73.7163 13.2349 75.0843 10.7982 79.0172 10.7982C82.9502 10.7982 84.2984 13.2349 84.2984 15.7111C84.2984 18.1873 82.9304 20.624 79.0172 20.624C75.104 20.624 73.7163 18.2037 73.7163 15.7111ZM79.0172 18.1478C80.5135 18.1478 81.1218 17.5559 81.1218 15.7111C81.1218 13.8663 80.5135 13.2744 79.0172 13.2744C77.521 13.2744 76.8929 13.8663 76.8929 15.7111C76.8929 17.5559 77.5013 18.1478 79.0172 18.1478Z" fill="#001933"/>
<path d="M85.535 11.0943H88.6196V12.9424C88.9879 11.6665 89.7475 10.9463 91.224 10.9463H92V14.0308H90.8721C89.3562 14.0308 88.7116 14.7707 88.7116 16.6352V20.3281H85.535V11.0943Z" fill="#001933"/>
<path d="M45.8307 23.4028H49.027L46.9224 35.685H41.4012L39.5366 26.0993L37.6886 35.685H32.1838L30.0594 23.4028H33.2558L35.0282 33.6725L37.1164 23.4028H41.9569L44.0615 33.6725L45.834 23.4028H45.8307Z" fill="#001933"/>
<path d="M50.1318 23.4028H53.4367V25.3233H50.1318V23.4028ZM50.1877 26.4512H53.3643V35.685H50.1877V26.4512Z" fill="#001933"/>
<path d="M59.31 34.0802C60.3458 34.0802 60.7503 33.7481 60.7503 33.2121C60.7503 32.7517 60.5826 32.3637 59.5138 32.2321L57.5572 32.0118C55.7651 31.8079 54.8048 30.8477 54.8048 29.243C54.8048 27.0463 56.6891 26.1584 59.1653 26.1584C61.6414 26.1584 63.4862 27.0266 63.6737 29.1871H60.793C60.701 28.4669 60.2011 28.0427 59.185 28.0427C58.113 28.0427 57.7085 28.4307 57.7085 28.947C57.7085 29.3351 57.9288 29.6869 58.797 29.779L60.701 29.9631C62.8812 30.1835 63.7855 31.0713 63.7855 32.8438C63.7855 34.6162 62.697 35.9842 59.2606 35.9842C55.8243 35.9842 54.624 34.4156 54.5516 32.7155H57.4323C57.5079 33.4719 58.1327 34.0835 59.3165 34.0835L59.31 34.0802Z" fill="#001933"/>
<path d="M64.6469 31.0516C64.6469 28.3748 66.199 26.1584 69.7439 26.1584C73.5124 26.1584 74.7127 28.5425 74.7127 31.1075C74.7127 31.4035 74.6929 31.6797 74.6568 31.8836H67.7314C67.9155 33.3601 68.6554 33.8599 69.8195 33.8599C70.76 33.8599 71.3355 33.4521 71.592 32.8997H74.6765C74.3805 34.488 73.1079 35.9842 69.7439 35.9842C65.9951 35.9842 64.6469 33.5837 64.6469 31.0516ZM71.7038 30.0355C71.592 28.8714 71.0198 28.2433 69.7998 28.2433C68.5798 28.2433 67.9714 28.7037 67.7676 30.0355H71.7005H71.7038Z" fill="#001933"/>
<path d="M24.5678 15.9939V19.5289C24.5678 20.6108 23.9891 21.6138 23.0519 22.1531L13.8213 27.4803L15.8535 19.8972C16.133 18.8515 16.9519 18.036 17.9976 17.7565L24.5678 15.9939Z" fill="#0072E5"/>
<path d="M24.5677 8.84492V12.38L18.0007 10.6207C16.955 10.3412 16.1395 9.52234 15.86 8.47662L13.8245 0.890259L23.0517 6.21748C23.9922 6.76007 24.5677 7.75975 24.5677 8.84164V8.84492Z" fill="#0072E5"/>
<path d="M14.4953 11.9822C15.4259 12.9128 16.5276 13.6658 17.7607 14.1887C16.5308 14.7148 15.4226 15.4679 14.492 16.3985C13.5614 17.3324 12.8051 18.4406 12.2822 19.677C11.7594 18.4406 11.0063 17.3324 10.0724 16.3985C9.1385 15.4646 8.04017 14.7181 6.8103 14.192C8.04017 13.6691 9.14507 12.9161 10.079 11.9855C11.0096 11.0515 11.7659 9.94335 12.2888 8.70691C12.8117 9.94335 13.5647 11.0515 14.4986 11.9822H14.4953Z" fill="#0072E5"/>
<path d="M10.7465 0.890259L8.71429 8.47333C8.43477 9.51905 7.61596 10.3379 6.57353 10.6174L0 12.3767V8.84163C0 7.75975 0.57876 6.75678 1.51267 6.21748L10.7465 0.890259Z" fill="#0072E5"/>
<path d="M10.7465 27.4803L1.5159 22.1531C0.578707 21.6105 0.00323486 20.6108 0.00323486 19.5289V15.9939L6.57348 17.7565C7.61919 18.036 8.43472 18.8548 8.71423 19.8972L10.7465 27.4803Z" fill="#0072E5"/>
<path d="M96 13.4373C96 10.1235 98.6863 7.43726 102 7.43726H130C133.314 7.43726 136 10.1235 136 13.4373V23.4373C136 26.751 133.314 29.4373 130 29.4373H102C98.6863 29.4373 96 26.751 96 23.4373V13.4373Z" fill="#0C111D"/>
<path d="M104.243 22.4373V13.71H107.686C108.348 13.71 108.912 13.8364 109.378 14.0892C109.844 14.3392 110.199 14.6873 110.443 15.1333C110.69 15.5765 110.814 16.0878 110.814 16.6674C110.814 17.2469 110.689 17.7583 110.439 18.2015C110.189 18.6446 109.827 18.9898 109.352 19.237C108.881 19.4841 108.31 19.6077 107.639 19.6077H105.445V18.129H107.341C107.696 18.129 107.989 18.0679 108.219 17.9458C108.452 17.8208 108.625 17.6489 108.739 17.4302C108.855 17.2086 108.913 16.9543 108.913 16.6674C108.913 16.3776 108.855 16.1248 108.739 15.9088C108.625 15.6901 108.452 15.5211 108.219 15.4017C107.986 15.2796 107.69 15.2185 107.332 15.2185H106.088V22.4373H104.243ZM112.012 22.4373V13.71H115.456C116.115 13.71 116.677 13.8279 117.143 14.0637C117.612 14.2966 117.968 14.6276 118.213 15.0566C118.46 15.4827 118.583 15.9841 118.583 16.5608C118.583 17.1404 118.458 17.639 118.208 18.0566C117.958 18.4713 117.596 18.7895 117.122 19.0111C116.65 19.2327 116.079 19.3435 115.409 19.3435H113.103V17.8606H115.11C115.463 17.8606 115.755 17.8123 115.988 17.7157C116.221 17.6191 116.395 17.4742 116.508 17.281C116.625 17.0878 116.683 16.8478 116.683 16.5608C116.683 16.2711 116.625 16.0267 116.508 15.8279C116.395 15.629 116.22 15.4784 115.984 15.3762C115.751 15.2711 115.457 15.2185 115.102 15.2185H113.858V22.4373H112.012ZM116.725 18.4657L118.895 22.4373H116.858L114.735 18.4657H116.725ZM127.907 18.0736C127.907 19.0253 127.727 19.835 127.366 20.5026C127.008 21.1702 126.52 21.6802 125.9 22.0324C125.284 22.3819 124.591 22.5566 123.821 22.5566C123.045 22.5566 122.349 22.3804 121.733 22.0282C121.116 21.6759 120.629 21.1659 120.271 20.4983C119.913 19.8307 119.734 19.0225 119.734 18.0736C119.734 17.1219 119.913 16.3123 120.271 15.6446C120.629 14.977 121.116 14.4685 121.733 14.1191C122.349 13.7668 123.045 13.5907 123.821 13.5907C124.591 13.5907 125.284 13.7668 125.9 14.1191C126.52 14.4685 127.008 14.977 127.366 15.6446C127.727 16.3123 127.907 17.1219 127.907 18.0736ZM126.037 18.0736C126.037 17.4571 125.944 16.9373 125.76 16.514C125.578 16.0907 125.321 15.7696 124.988 15.5509C124.656 15.3321 124.267 15.2228 123.821 15.2228C123.375 15.2228 122.985 15.3321 122.653 15.5509C122.321 15.7696 122.062 16.0907 121.877 16.514C121.696 16.9373 121.605 17.4571 121.605 18.0736C121.605 18.6901 121.696 19.21 121.877 19.6333C122.062 20.0566 122.321 20.3776 122.653 20.5963C122.985 20.8151 123.375 20.9245 123.821 20.9245C124.267 20.9245 124.656 20.8151 124.988 20.5963C125.321 20.3776 125.578 20.0566 125.76 19.6333C125.944 19.21 126.037 18.6901 126.037 18.0736Z" fill="white"/>
</svg>
