<svg width="94" height="132" viewBox="0 0 94 132" fill="none" xmlns="http://www.w3.org/2000/svg">
<path d="M0.983093 49.0366H10.3996C16.4527 49.0366 19.2272 53.4703 19.2272 58.3184C19.2272 63.1665 16.4527 67.6851 10.3996 67.6851H0.983093V49.0366ZM9.28176 63.7856C12.6751 63.7856 14.0723 61.9083 14.0723 58.3184C14.0723 54.7285 12.6451 52.9361 9.28176 52.9361H5.91838V63.7906H9.28176V63.7856Z" fill="#F2F9FF"/>
<path d="M20.6294 60.6749C20.6294 56.9153 22.7053 53.2156 28.6736 53.2156C34.6418 53.2156 36.6878 56.9153 36.6878 60.6749C36.6878 64.4346 34.6119 68.1343 28.6736 68.1343C22.7353 68.1343 20.6294 64.4596 20.6294 60.6749ZM28.6736 64.3747C30.9441 64.3747 31.8673 63.476 31.8673 60.6749C31.8673 57.8739 30.9441 56.9752 28.6736 56.9752C26.4031 56.9752 25.4499 57.8739 25.4499 60.6749C25.4499 63.476 26.3731 64.3747 28.6736 64.3747Z" fill="#F2F9FF"/>
<path d="M45.8797 53.2156C50.9797 53.2156 53.4498 56.0765 53.5297 59.5815H48.794C48.6842 57.9289 47.8109 56.9752 45.9646 56.9752C43.9485 56.9752 42.7708 57.8739 42.7708 60.6749C42.7708 63.476 43.8637 64.3747 45.8797 64.3747C47.8958 64.3747 48.7092 63.2812 48.8489 61.7384H53.5846C53.4997 65.0737 51.1743 68.1343 45.9596 68.1343C40.156 68.1343 37.9453 64.4596 37.9453 60.6749C37.9453 56.8903 40.0762 53.2156 45.8797 53.2156Z" fill="#F2F9FF"/>
<path d="M56.4739 62.163V57.2849H54.0087V55.0431L56.8681 53.7799L58.8592 50.2749H61.2994V53.6701H65.1119V57.2899H61.2994V63.8805H64.6628V67.6951H62.1128C57.8262 67.6951 56.4789 65.7878 56.4789 62.168L56.4739 62.163Z" fill="#F2F9FF"/>
<path d="M66.2546 60.6749C66.2546 56.9153 68.3306 53.2156 74.2988 53.2156C80.2671 53.2156 82.313 56.9153 82.313 60.6749C82.313 64.4346 80.2371 68.1343 74.2988 68.1343C68.3605 68.1343 66.2546 64.4596 66.2546 60.6749ZM74.2988 64.3747C76.5693 64.3747 77.4925 63.476 77.4925 60.6749C77.4925 57.8739 76.5693 56.9752 74.2988 56.9752C72.0283 56.9752 71.0751 57.8739 71.0751 60.6749C71.0751 63.476 71.9983 64.3747 74.2988 64.3747Z" fill="#F2F9FF"/>
<path d="M84.1893 53.665H88.8701V56.471C89.429 54.5337 90.5817 53.4403 92.8223 53.4403H94V58.1236H92.2884C89.9879 58.1236 89.0098 59.247 89.0098 62.078V67.685H84.1893V53.665Z" fill="#F2F9FF"/>
<path d="M23.9379 72.3534H28.7883L25.5946 91.0018H17.2161L14.3867 76.4476L11.5822 91.0018H3.22366L0 72.3534H4.85045L7.54016 87.9462L10.7089 72.3534H18.0545L21.2482 87.9462L23.9379 72.3534Z" fill="#F2F9FF"/>
<path d="M30.465 72.3534H35.4802V75.2692H30.465V72.3534ZM30.5499 76.9818H35.3704V91.0018H30.5499V76.9818Z" fill="#F2F9FF"/>
<path d="M44.3926 88.5603C45.9645 88.5603 46.5783 88.0561 46.5783 87.2422C46.5783 86.5432 46.3238 85.954 44.702 85.7543L41.7329 85.4198C39.0132 85.1103 37.5561 83.6523 37.5561 81.2158C37.5561 77.8806 40.4155 76.5325 44.1731 76.5325C47.9307 76.5325 50.7302 77.8506 51.0146 81.1309H46.6432C46.5035 80.0375 45.745 79.3934 44.203 79.3934C42.5762 79.3934 41.9624 79.9826 41.9624 80.7664C41.9624 81.3556 42.2968 81.8898 43.6142 82.0296L46.5035 82.3092C49.812 82.6438 51.1843 83.9918 51.1843 86.683C51.1843 89.3742 49.5325 91.4512 44.3178 91.4512C39.103 91.4512 37.2816 89.0696 37.1718 86.4883H41.5432C41.658 87.6367 42.6062 88.5653 44.4026 88.5653L44.3926 88.5603Z" fill="#F2F9FF"/>
<path d="M52.4917 83.9619C52.4917 79.8977 54.8471 76.5325 60.2265 76.5325C65.9452 76.5325 67.7666 80.1523 67.7666 84.0468C67.7666 84.4961 67.7367 84.9155 67.6818 85.2251H57.1725C57.4519 87.4669 58.5747 88.2258 60.3412 88.2258C61.7684 88.2258 62.6417 87.6067 63.031 86.7679H67.7117C67.2626 89.1795 65.3314 91.4512 60.2265 91.4512C54.5377 91.4512 52.4917 87.8064 52.4917 83.9619ZM63.2006 82.4191C63.031 80.6516 62.1627 79.698 60.3113 79.698C58.46 79.698 57.5368 80.397 57.2274 82.4191H63.1956H63.2006Z" fill="#F2F9FF"/>
<path d="M38.2947 23.8226V29.19C38.2947 30.8326 37.4164 32.3555 35.9942 33.1743L21.9868 41.2628L25.0707 29.7492C25.4949 28.1614 26.7374 26.9232 28.3243 26.4988L38.2947 23.8226Z" fill="#0072E5"/>
<path d="M38.2947 12.9681V18.3354L28.3293 15.6642C26.7424 15.2398 25.5048 13.9966 25.0807 12.4088L21.9918 0.890259L35.9942 8.97873C37.4214 9.80256 38.2947 11.3204 38.2947 12.9631V12.9681Z" fill="#0072E5"/>
<path d="M23.0147 17.7312C24.4269 19.1442 26.0986 20.2876 27.97 21.0814C26.1036 21.8803 24.4219 23.0237 23.0097 24.4367C21.5975 25.8546 20.4498 27.5372 19.6563 29.4146C18.8629 27.5372 17.7201 25.8546 16.3029 24.4367C14.8957 23.0287 13.219 21.8853 11.3527 21.0864C13.219 20.2926 14.8957 19.1492 16.3129 17.7362C17.7251 16.3182 18.8729 14.6356 19.6663 12.7583C20.4597 14.6356 21.6025 16.3182 23.0197 17.7312H23.0147Z" fill="#0072E5"/>
<path d="M17.3209 0.890259L14.237 12.4039C13.8128 13.9916 12.5703 15.2348 10.9884 15.6592L1.01801 18.3354V12.9681C1.01801 11.3254 1.89628 9.80256 3.31349 8.98373L17.3209 0.890259Z" fill="#0072E5"/>
<path d="M17.3209 41.2628L3.31349 33.1743C1.89129 32.3505 1.01801 30.8326 1.01801 29.19V23.8226L10.9884 26.4988C12.5753 26.9232 13.8128 28.1664 14.237 29.7492L17.3209 41.2628Z" fill="#0072E5"/>
<rect y="99.4513" width="66" height="32" rx="6" fill="#47CD89"/>
<path d="M11.584 120.451V112.035H8.16V109.811H17.824V112.035H14.4V120.451H11.584ZM28.0324 118.531C28.0324 119.395 28.1284 119.843 28.2404 120.451H25.3924C25.2644 120.019 25.2004 119.411 25.2004 118.531V118.099C25.2004 117.075 24.5444 116.595 23.6324 116.595H21.6964V120.451H18.8484V109.811H24.7364C27.1364 109.811 28.3044 111.043 28.3044 112.755C28.3044 114.275 27.3284 115.299 26.0004 115.571C27.1044 115.811 28.0324 116.371 28.0324 117.939V118.531ZM21.6964 114.579H23.9844C24.9604 114.579 25.3604 114.131 25.3604 113.219C25.3604 112.387 24.9444 111.971 24.0004 111.971H21.6964V114.579ZM29.4868 120.451V118.227H31.3588V112.035H29.4868V109.811H36.0468V112.035H34.1748V118.227H36.0468V120.451H29.4868ZM48.4449 120.451H45.6129L44.9249 118.451H40.3649L39.6609 120.451H36.8449L40.4769 109.811H44.8129L48.4449 120.451ZM41.0849 116.323H44.2049L42.6369 111.795L41.0849 116.323ZM49.364 120.451V109.811H52.212V118.227H56.996V120.451H49.364Z" fill="white"/>
</svg>
