<svg width="266" height="37" viewBox="0 0 266 37" fill="none" xmlns="http://www.w3.org/2000/svg">
<path d="M41.5697 10.0215H49.9709C55.3713 10.0215 57.8467 13.975 57.8467 18.2981C57.8467 22.6211 55.3713 26.6503 49.9709 26.6503H41.5697V10.0215ZM48.9736 23.1732C52.0011 23.1732 53.2477 21.4992 53.2477 18.2981C53.2477 15.097 51.9744 13.4987 48.9736 13.4987H45.9729V23.1776H48.9736V23.1732Z" fill="#001933"/>
<path d="M59.0979 20.395C59.0979 17.0426 60.95 13.7435 66.2747 13.7435C71.5995 13.7435 73.4249 17.0426 73.4249 20.395C73.4249 23.7475 71.5728 27.0465 66.2747 27.0465C60.9767 27.0465 59.0979 23.7697 59.0979 20.395ZM66.2747 23.6941C68.3005 23.6941 69.1241 22.8927 69.1241 20.395C69.1241 17.8974 68.3005 17.096 66.2747 17.096C64.249 17.096 63.3987 17.8974 63.3987 20.395C63.3987 22.8927 64.2223 23.6941 66.2747 23.6941Z" fill="#001933"/>
<path d="M81.6258 13.7435C86.1759 13.7435 88.3797 16.2946 88.4509 19.42H84.2258C84.1279 17.9464 83.3488 17.096 81.7015 17.096C79.9028 17.096 78.8521 17.8974 78.8521 20.395C78.8521 22.8927 79.8271 23.6941 81.6258 23.6941C83.4244 23.6941 84.1501 22.719 84.2748 21.3433H88.4999C88.4242 24.3174 86.3495 27.0465 81.697 27.0465C76.5192 27.0465 74.5469 23.7697 74.5469 20.395C74.5469 17.0203 76.4479 13.7435 81.6258 13.7435Z" fill="#001933"/>
<path d="M91.0774 21.7218V17.372H88.8781V15.373L91.4291 14.2466L93.2055 11.1212H95.3826V14.1487H98.7841V17.3765H95.3826V23.2533H98.3834V26.6547H96.1083C92.2839 26.6547 91.0819 24.954 91.0819 21.7262L91.0774 21.7218Z" fill="#001933"/>
<path d="M99.8036 20.395C99.8036 17.0426 101.656 13.7435 106.98 13.7435C112.305 13.7435 114.131 17.0426 114.131 20.395C114.131 23.7475 112.278 27.0465 106.98 27.0465C101.682 27.0465 99.8036 23.7697 99.8036 20.395ZM106.98 23.6941C109.006 23.6941 109.83 22.8927 109.83 20.395C109.83 17.8974 109.006 17.096 106.98 17.096C104.955 17.096 104.104 17.8974 104.104 20.395C104.104 22.8927 104.928 23.6941 106.98 23.6941Z" fill="#001933"/>
<path d="M115.805 14.1442H119.981V16.6463C120.48 14.9189 121.508 13.9438 123.507 13.9438H124.558V18.12H123.031C120.978 18.12 120.106 19.1217 120.106 21.6461V26.6458H115.805V14.1442Z" fill="#001933"/>
<path d="M152.775 10.0438H157.103L154.254 26.6726H146.778L144.254 13.6946L141.752 26.6726H134.299L131.423 10.0438H135.75L138.15 23.9479L140.977 10.0438H147.531L150.38 23.9479L152.78 10.0438H152.775Z" fill="#001933"/>
<path d="M158.599 10.0438H163.073V12.6439H158.599V10.0438ZM158.675 14.171H162.975V26.6726H158.675V14.171Z" fill="#001933"/>
<path d="M171.029 24.4955C172.432 24.4955 172.979 24.0458 172.979 23.3201C172.979 22.6968 172.752 22.1715 171.305 21.9934L168.656 21.6951C166.23 21.419 164.93 20.119 164.93 17.9464C164.93 14.9723 167.481 13.7703 170.834 13.7703C174.186 13.7703 176.684 14.9456 176.937 17.8707H173.037C172.913 16.8957 172.236 16.3213 170.86 16.3213C169.409 16.3213 168.861 16.8467 168.861 17.5457C168.861 18.071 169.16 18.5474 170.335 18.6721L172.913 18.9214C175.864 19.2197 177.089 20.4218 177.089 22.8215C177.089 25.2212 175.615 27.0733 170.963 27.0733C166.31 27.0733 164.685 24.9496 164.587 22.6478H168.487C168.59 23.6718 169.436 24.4999 171.038 24.4999L171.029 24.4955Z" fill="#001933"/>
<path d="M178.25 20.395C178.25 16.771 180.352 13.7703 185.151 13.7703C190.253 13.7703 191.878 16.9981 191.878 20.4707C191.878 20.8714 191.852 21.2454 191.803 21.5214H182.426C182.676 23.5204 183.678 24.1972 185.254 24.1972C186.527 24.1972 187.306 23.6451 187.653 22.8972H191.829C191.429 25.0475 189.706 27.0733 185.151 27.0733C180.076 27.0733 178.25 23.8232 178.25 20.395ZM187.805 19.0193C187.653 17.4433 186.879 16.5929 185.227 16.5929C183.575 16.5929 182.751 17.2162 182.475 19.0193H187.8H187.805Z" fill="#001933"/>
<path d="M33.262 20.778V25.564C33.262 27.0288 32.4784 28.3867 31.2096 29.1168L18.7124 36.3293L21.4638 26.0626C21.8423 24.6469 22.9508 23.5427 24.3666 23.1643L33.262 20.778Z" fill="#0072E5"/>
<path d="M33.2619 11.099V15.8851L24.371 13.5032C22.9552 13.1247 21.8511 12.0162 21.4727 10.6004L18.7168 0.329285L31.2095 7.54175C32.4828 8.27635 33.2619 9.6298 33.2619 11.0946V11.099Z" fill="#0072E5"/>
<path d="M19.625 15.3463C20.8849 16.6063 22.3764 17.6258 24.046 18.3337C22.3809 19.046 20.8805 20.0656 19.6205 21.3255C18.3606 22.5899 17.3988 24.1007 16.6909 25.7747C15.983 24.1007 14.9013 22.5899 13.6369 21.3255C12.3725 20.0611 10.8854 19.0505 9.22034 18.3381C10.8854 17.6303 12.3814 16.6107 13.6458 15.3508C14.9057 14.0864 15.983 12.5578 16.6909 10.8838C17.3988 12.5578 18.365 14.0863 19.6294 15.3463H19.625Z" fill="#0072E5"/>
<path d="M14.5496 0.329285L11.7982 10.5959C11.4197 12.0117 10.3112 13.1203 8.89983 13.4987L0 15.8806V11.0946C0 9.62981 0.783577 8.2719 2.04798 7.54175L14.5496 0.329285Z" fill="#0072E5"/>
<path d="M14.5494 36.3293L2.05226 29.1168C0.783397 28.3822 0.00427246 27.0288 0.00427246 25.564V20.778L8.89965 23.1643C10.3154 23.5427 11.4196 24.6513 11.798 26.0626L14.5494 36.3293Z" fill="#0072E5"/>
<rect x="199.878" y="2.32928" width="66" height="32" rx="6" fill="#47CD89"/>
<path d="M211.462 23.3293V14.9133H208.038V12.6893H217.702V14.9133H214.278V23.3293H211.462ZM227.911 21.4093C227.911 22.2733 228.007 22.7213 228.119 23.3293H225.271C225.143 22.8973 225.079 22.2893 225.079 21.4093V20.9773C225.079 19.9533 224.423 19.4733 223.511 19.4733H221.575V23.3293H218.727V12.6893H224.615C227.015 12.6893 228.183 13.9213 228.183 15.6333C228.183 17.1533 227.207 18.1773 225.879 18.4493C226.983 18.6893 227.911 19.2493 227.911 20.8173V21.4093ZM221.575 17.4573H223.863C224.839 17.4573 225.239 17.0093 225.239 16.0973C225.239 15.2653 224.823 14.8493 223.879 14.8493H221.575V17.4573ZM229.365 23.3293V21.1053H231.237V14.9133H229.365V12.6893H235.925V14.9133H234.053V21.1053H235.925V23.3293H229.365ZM248.323 23.3293H245.491L244.803 21.3293H240.243L239.539 23.3293H236.723L240.355 12.6893H244.691L248.323 23.3293ZM240.963 19.2013H244.083L242.515 14.6733L240.963 19.2013ZM249.242 23.3293V12.6893H252.09V21.1053H256.874V23.3293H249.242Z" fill="white"/>
</svg>
