<svg width="251" height="37" viewBox="0 0 251 37" fill="none" xmlns="http://www.w3.org/2000/svg">
<path d="M42.4481 10.5825H50.8493C56.2498 10.5825 58.7251 14.536 58.7251 18.859C58.7251 23.1821 56.2498 27.2113 50.8493 27.2113H42.4481V10.5825ZM49.852 23.7341C52.8795 23.7341 54.1261 22.0601 54.1261 18.859C54.1261 15.658 52.8528 14.0596 49.852 14.0596H46.8513V23.7386H49.852V23.7341Z" fill="#F2F9FF"/>
<path d="M59.9762 20.9559C59.9762 17.6035 61.8283 14.3044 67.153 14.3044C72.4778 14.3044 74.3032 17.6035 74.3032 20.9559C74.3032 24.3084 72.4511 27.6074 67.153 27.6074C61.855 27.6074 59.9762 24.3307 59.9762 20.9559ZM67.153 24.255C69.1788 24.255 70.0024 23.4536 70.0024 20.9559C70.0024 18.4583 69.1788 17.6569 67.153 17.6569C65.1273 17.6569 64.277 18.4583 64.277 20.9559C64.277 23.4536 65.1006 24.255 67.153 24.255Z" fill="#F2F9FF"/>
<path d="M82.5042 14.3044C87.0543 14.3044 89.2581 16.8555 89.3293 19.9809H85.1042C85.0063 18.5073 84.2272 17.6569 82.5799 17.6569C80.7812 17.6569 79.7305 18.4583 79.7305 20.9559C79.7305 23.4536 80.7055 24.255 82.5042 24.255C84.3029 24.255 85.0286 23.28 85.1532 21.9042H89.3783C89.3026 24.8783 87.2279 27.6074 82.5754 27.6074C77.3976 27.6074 75.4253 24.3307 75.4253 20.9559C75.4253 17.5812 77.3264 14.3044 82.5042 14.3044Z" fill="#F2F9FF"/>
<path d="M91.9558 22.2828V17.9331H89.7565V15.934L92.3075 14.8077L94.084 11.6823H96.261V14.7097H99.6625V17.9375H96.261V23.8143H99.2618V27.2158H96.9867C93.1624 27.2158 91.9603 25.5151 91.9603 22.2872L91.9558 22.2828Z" fill="#F2F9FF"/>
<path d="M100.682 20.9559C100.682 17.6035 102.534 14.3044 107.859 14.3044C113.183 14.3044 115.009 17.6035 115.009 20.9559C115.009 24.3084 113.157 27.6074 107.859 27.6074C102.561 27.6074 100.682 24.3307 100.682 20.9559ZM107.859 24.255C109.884 24.255 110.708 23.4536 110.708 20.9559C110.708 18.4583 109.884 17.6569 107.859 17.6569C105.833 17.6569 104.983 18.4583 104.983 20.9559C104.983 23.4536 105.806 24.255 107.859 24.255Z" fill="#F2F9FF"/>
<path d="M116.683 14.7051H120.859V17.2072C121.358 15.4798 122.386 14.5048 124.385 14.5048H125.436V18.6809H123.909C121.857 18.6809 120.984 19.6826 120.984 22.207V27.2067H116.683V14.7051Z" fill="#F2F9FF"/>
<path d="M153.654 10.6047H157.981L155.132 27.2335H147.657L145.132 14.2555L142.63 27.2335H135.177L132.301 10.6047H136.629L139.028 24.5088L141.856 10.6047H148.409L151.258 24.5088L153.658 10.6047H153.654Z" fill="#F2F9FF"/>
<path d="M159.477 10.6047H163.952V13.2048H159.477V10.6047ZM159.553 14.7319H163.854V27.2335H159.553V14.7319Z" fill="#F2F9FF"/>
<path d="M171.908 25.0564C173.31 25.0564 173.858 24.6067 173.858 23.881C173.858 23.2577 173.631 22.7324 172.184 22.5543L169.535 22.256C167.108 21.98 165.808 20.6799 165.808 18.5073C165.808 15.5333 168.359 14.3312 171.712 14.3312C175.064 14.3312 177.562 15.5065 177.816 18.4316H173.916C173.791 17.4566 173.114 16.8823 171.739 16.8823C170.287 16.8823 169.74 17.4076 169.74 18.1066C169.74 18.6319 170.038 19.1083 171.213 19.233L173.791 19.4823C176.743 19.7806 177.967 20.9827 177.967 23.3824C177.967 25.7821 176.493 27.6342 171.841 27.6342C167.188 27.6342 165.563 25.5105 165.465 23.2087H169.366C169.468 24.2327 170.314 25.0608 171.917 25.0608L171.908 25.0564Z" fill="#F2F9FF"/>
<path d="M179.129 20.956C179.129 17.3319 181.23 14.3312 186.029 14.3312C191.132 14.3312 192.757 17.559 192.757 21.0316C192.757 21.4323 192.73 21.8063 192.681 22.0824H183.305C183.554 24.0814 184.556 24.7581 186.132 24.7581C187.405 24.7581 188.184 24.206 188.532 23.4581H192.708C192.307 25.6084 190.584 27.6342 186.029 27.6342C180.954 27.6342 179.129 24.3841 179.129 20.956ZM188.683 19.5802C188.532 18.0042 187.757 17.1538 186.105 17.1538C184.453 17.1538 183.63 17.7771 183.354 19.5802H188.679H188.683Z" fill="#F2F9FF"/>
<path d="M34.1404 21.3389V26.1249C34.1404 27.5897 33.3568 28.9476 32.088 29.6777L19.5908 36.8902L22.3422 26.6236C22.7207 25.2078 23.8293 24.1036 25.245 23.7252L34.1404 21.3389Z" fill="#0072E5"/>
<path d="M34.1404 11.66V16.446L25.2494 14.0641C23.8337 13.6857 22.7295 12.5771 22.3511 11.1613L19.5952 0.890259L32.0879 8.10273C33.3612 8.83733 34.1404 10.1908 34.1404 11.6555V11.66Z" fill="#0072E5"/>
<path d="M20.5035 15.9072C21.7635 17.1672 23.255 18.1867 24.9245 18.8946C23.2594 19.6069 21.759 20.6265 20.4991 21.8864C19.2391 23.1508 18.2773 24.6616 17.5694 26.3356C16.8615 24.6616 15.7798 23.1508 14.5154 21.8864C13.251 20.622 11.764 19.6114 10.0989 18.8991C11.764 18.1912 13.2599 17.1716 14.5243 15.9117C15.7843 14.6473 16.8615 13.1187 17.5694 11.4447C18.2773 13.1187 19.2436 14.6473 20.508 15.9072H20.5035Z" fill="#0072E5"/>
<path d="M15.428 0.890259L12.6766 11.1569C12.2982 12.5727 11.1896 13.6813 9.77825 14.0597L0.878418 16.4416V11.6555C0.878418 10.1908 1.66199 8.83288 2.9264 8.10273L15.428 0.890259Z" fill="#0072E5"/>
<path d="M15.4278 36.8902L2.93068 29.6777C1.66181 28.9431 0.88269 27.5897 0.88269 26.1249V21.3389L9.77807 23.7252C11.1938 24.1036 12.298 25.2122 12.6764 26.6236L15.4278 36.8902Z" fill="#0072E5"/>
<path d="M200.757 8.89026C200.757 5.57655 203.443 2.89026 206.757 2.89026H244.757C248.071 2.89026 250.757 5.57655 250.757 8.89026V28.8903C250.757 32.204 248.071 34.8903 244.757 34.8903H206.757C203.443 34.8903 200.757 32.204 200.757 28.8903V8.89026Z" fill="white"/>
<path d="M210.081 24.8903V13.2539H214.672C215.554 13.2539 216.306 13.4225 216.927 13.7596C217.549 14.0929 218.022 14.5569 218.348 15.1516C218.677 15.7425 218.842 16.4243 218.842 17.1971C218.842 17.9698 218.675 18.6516 218.342 19.2425C218.009 19.8334 217.526 20.2937 216.893 20.6232C216.264 20.9528 215.503 21.1175 214.609 21.1175H211.683V19.1459H214.211C214.685 19.1459 215.075 19.0645 215.382 18.9016C215.692 18.735 215.924 18.5058 216.075 18.2141C216.23 17.9187 216.308 17.5797 216.308 17.1971C216.308 16.8107 216.23 16.4736 216.075 16.1857C215.924 15.894 215.692 15.6687 215.382 15.5096C215.071 15.3467 214.677 15.2653 214.2 15.2653H212.541V24.8903H210.081ZM220.44 24.8903V13.2539H225.031C225.91 13.2539 226.66 13.4111 227.281 13.7255C227.906 14.0361 228.381 14.4774 228.707 15.0493C229.037 15.6175 229.201 16.2861 229.201 17.055C229.201 17.8278 229.035 18.4925 228.701 19.0493C228.368 19.6024 227.885 20.0266 227.253 20.3221C226.624 20.6175 225.862 20.7653 224.968 20.7653H221.895V18.788H224.571C225.04 18.788 225.431 18.7236 225.741 18.5948C226.052 18.466 226.283 18.2728 226.434 18.0153C226.59 17.7577 226.667 17.4376 226.667 17.055C226.667 16.6687 226.59 16.3429 226.434 16.0778C226.283 15.8126 226.05 15.6118 225.736 15.4755C225.425 15.3353 225.033 15.2653 224.559 15.2653H222.9V24.8903H220.44ZM226.724 19.5948L229.616 24.8903H226.9L224.071 19.5948H226.724ZM241.633 19.0721C241.633 20.341 241.393 21.4206 240.912 22.3107C240.434 23.2009 239.783 23.8808 238.957 24.3505C238.135 24.8164 237.211 25.0493 236.184 25.0493C235.15 25.0493 234.222 24.8145 233.4 24.3448C232.578 23.8751 231.929 23.1952 231.451 22.305C230.974 21.4149 230.736 20.3372 230.736 19.0721C230.736 17.8031 230.974 16.7236 231.451 15.8334C231.929 14.9433 232.578 14.2653 233.4 13.7993C234.222 13.3297 235.15 13.0948 236.184 13.0948C237.211 13.0948 238.135 13.3297 238.957 13.7993C239.783 14.2653 240.434 14.9433 240.912 15.8334C241.393 16.7236 241.633 17.8031 241.633 19.0721ZM239.139 19.0721C239.139 18.2501 239.016 17.5569 238.77 16.9925C238.527 16.4281 238.184 16.0001 237.741 15.7084C237.298 15.4168 236.779 15.2709 236.184 15.2709C235.59 15.2709 235.071 15.4168 234.628 15.7084C234.184 16.0001 233.84 16.4281 233.593 16.9925C233.351 17.5569 233.23 18.2501 233.23 19.0721C233.23 19.894 233.351 20.5872 233.593 21.1516C233.84 21.716 234.184 22.144 234.628 22.4357C235.071 22.7274 235.59 22.8732 236.184 22.8732C236.779 22.8732 237.298 22.7274 237.741 22.4357C238.184 22.144 238.527 21.716 238.77 21.1516C239.016 20.5872 239.139 19.894 239.139 19.0721Z" fill="#0C111D"/>
</svg>
