<svg width="220" height="56" viewBox="0 0 220 56" fill="none" xmlns="http://www.w3.org/2000/svg">
<path d="M49.1489 11.6123H58.9289C65.2157 11.6123 68.0973 16.2146 68.0973 21.2472C68.0973 26.2797 65.2157 30.9701 58.9289 30.9701H49.1489V11.6123ZM57.768 26.9224C61.2923 26.9224 62.7435 24.9736 62.7435 21.2472C62.7435 17.5207 61.2612 15.6601 57.768 15.6601H54.2747V26.9275H57.768V26.9224Z" fill="#001933"/>
<path d="M69.5537 23.6883C69.5537 19.7856 71.7098 15.9451 77.9084 15.9451C84.1071 15.9451 86.232 19.7856 86.232 23.6883C86.232 27.5909 84.076 31.4314 77.9084 31.4314C71.7409 31.4314 69.5537 27.6168 69.5537 23.6883ZM77.9084 27.5287C80.2666 27.5287 81.2254 26.5958 81.2254 23.6883C81.2254 20.7807 80.2666 19.8478 77.9084 19.8478C75.5502 19.8478 74.5603 20.7807 74.5603 23.6883C74.5603 26.5958 75.5191 27.5287 77.9084 27.5287Z" fill="#001933"/>
<path d="M95.779 15.9451C101.076 15.9451 103.641 18.9149 103.724 22.5532H98.8058C98.6918 20.8377 97.7848 19.8478 95.8671 19.8478C93.7733 19.8478 92.5501 20.7807 92.5501 23.6883C92.5501 26.5958 93.6852 27.5287 95.779 27.5287C97.8729 27.5287 98.7177 26.3937 98.8628 24.7922H103.781C103.693 28.2543 101.278 31.4314 95.8619 31.4314C89.8343 31.4314 87.5383 27.6168 87.5383 23.6883C87.5383 19.7597 89.7514 15.9451 95.779 15.9451Z" fill="#001933"/>
<path d="M106.782 25.2327V20.1691H104.221V17.842L107.191 16.5307L109.259 12.8924H111.794V16.4167H115.753V20.1743H111.794V27.0156H115.287V30.9753H112.638C108.186 30.9753 106.787 28.9954 106.787 25.2379L106.782 25.2327Z" fill="#001933"/>
<path d="M116.94 23.6883C116.94 19.7856 119.096 15.9451 125.295 15.9451C131.494 15.9451 133.619 19.7856 133.619 23.6883C133.619 27.5909 131.462 31.4314 125.295 31.4314C119.127 31.4314 116.94 27.6168 116.94 23.6883ZM125.295 27.5287C127.653 27.5287 128.612 26.5958 128.612 23.6883C128.612 20.7807 127.653 19.8478 125.295 19.8478C122.937 19.8478 121.947 20.7807 121.947 23.6883C121.947 26.5958 122.906 27.5287 125.295 27.5287Z" fill="#001933"/>
<path d="M135.568 16.4118H140.429V19.3245C141.009 17.3136 142.207 16.1785 144.534 16.1785H145.757V21.04H143.979C141.59 21.04 140.574 22.2061 140.574 25.1448V30.9651H135.568V16.4118Z" fill="#001933"/>
<path d="M72.9899 35.8111H78.0276L74.7106 55.1689H66.0086L63.0699 40.061L60.1572 55.1689H51.4812L48.1331 35.8111H53.1708L55.9643 51.997L59.2554 35.8111H66.8845L70.2015 51.997L72.995 35.8111H72.9899Z" fill="#001933"/>
<path d="M79.7689 35.8111H84.9777V38.8379H79.7689V35.8111ZM79.857 40.6156H84.8636V55.1689H79.857V40.6156Z" fill="#001933"/>
<path d="M94.2345 52.6395C95.8671 52.6395 96.5046 52.116 96.5046 51.2712C96.5046 50.5456 96.2403 49.934 94.5559 49.7267L91.4721 49.3795C88.6474 49.0581 87.1341 47.5448 87.1341 45.0155C87.1341 41.5534 90.1038 40.1541 94.0065 40.1541C97.9091 40.1541 100.817 41.5223 101.112 44.9274H96.572C96.4269 43.7924 95.6391 43.1238 94.0376 43.1238C92.348 43.1238 91.7105 43.7354 91.7105 44.5491C91.7105 45.1607 92.0577 45.7152 93.426 45.8603L96.4269 46.1506C99.8631 46.4978 101.288 47.8972 101.288 50.6907C101.288 53.4843 99.5728 55.6403 94.1568 55.6403C88.7407 55.6403 86.849 53.1681 86.735 50.4886H91.2751C91.3943 51.6806 92.3791 52.6447 94.2449 52.6447L94.2345 52.6395Z" fill="#001933"/>
<path d="M102.646 47.8661C102.646 43.6473 105.092 40.1541 110.679 40.1541C116.619 40.1541 118.51 43.9116 118.51 47.9542C118.51 48.4207 118.479 48.856 118.422 49.1773H107.507C107.798 51.5044 108.964 52.2922 110.798 52.2922C112.281 52.2922 113.188 51.6495 113.592 50.7788H118.453C117.987 53.2821 115.981 55.6403 110.679 55.6403C104.771 55.6403 102.646 51.8569 102.646 47.8661ZM113.768 46.2646C113.592 44.4299 112.69 43.44 110.767 43.44C108.845 43.44 107.886 44.1656 107.564 46.2646H113.763H113.768Z" fill="#001933"/>
<path d="M39.4777 24.134V29.7056C39.4777 31.4107 38.5656 32.9915 37.0885 33.8415L22.5403 42.2376L25.7433 30.286C26.1838 28.6379 27.4743 27.3526 29.1225 26.912L39.4777 24.134Z" fill="#0072E5"/>
<path d="M39.4777 12.8665V18.4381L29.1276 15.6653C27.4795 15.2247 26.1941 13.9342 25.7536 12.2861L22.5454 0.329285L37.0884 8.72545C38.5707 9.58062 39.4777 11.1562 39.4777 12.8613V12.8665Z" fill="#0072E5"/>
<path d="M23.6027 17.811C25.0695 19.2777 26.8057 20.4646 28.7493 21.2886C26.8109 22.1179 25.0643 23.3047 23.5975 24.7715C22.1308 26.2434 20.9388 27.99 20.1147 29.9388C19.2906 27.99 18.1038 26.2434 16.6318 24.7715C15.1599 23.2996 13.4289 22.1231 11.4905 21.2938C13.4289 20.4697 15.1703 19.2829 16.6422 17.8161C18.1089 16.3442 19.301 14.5976 20.1251 12.6489C20.9491 14.5976 22.136 16.3442 23.6079 17.811H23.6027Z" fill="#0072E5"/>
<path d="M17.6943 0.329285L14.4913 12.2809C14.0508 13.929 12.7602 15.2195 11.1173 15.6601L0.756836 18.4329V12.8613C0.756836 11.1562 1.66901 9.57544 3.14093 8.72545L17.6943 0.329285Z" fill="#0072E5"/>
<path d="M17.6942 42.2376L3.14606 33.8415C1.66896 32.9863 0.761963 31.4107 0.761963 29.7056V24.134L11.1172 26.912C12.7654 27.3526 14.0507 28.6431 14.4913 30.286L17.6942 42.2376Z" fill="#0072E5"/>
<rect x="153.757" y="11.9849" width="66" height="32" rx="6" fill="#47CD89"/>
<path d="M165.341 32.9849V24.5689H161.917V22.3449H171.581V24.5689H168.157V32.9849H165.341ZM181.789 31.0649C181.789 31.9289 181.885 32.3769 181.997 32.9849H179.149C179.021 32.5529 178.957 31.9449 178.957 31.0649V30.6329C178.957 29.6089 178.301 29.1289 177.389 29.1289H175.453V32.9849H172.605V22.3449H178.493C180.893 22.3449 182.061 23.5769 182.061 25.2889C182.061 26.8089 181.085 27.8329 179.757 28.1049C180.861 28.3449 181.789 28.9049 181.789 30.4729V31.0649ZM175.453 27.1129H177.741C178.717 27.1129 179.117 26.6649 179.117 25.7529C179.117 24.9209 178.701 24.5049 177.757 24.5049H175.453V27.1129ZM183.244 32.9849V30.7609H185.116V24.5689H183.244V22.3449H189.804V24.5689H187.932V30.7609H189.804V32.9849H183.244ZM202.202 32.9849H199.37L198.682 30.9849H194.122L193.418 32.9849H190.602L194.234 22.3449H198.57L202.202 32.9849ZM194.842 28.8569H197.962L196.394 24.3289L194.842 28.8569ZM203.121 32.9849V22.3449H205.969V30.7609H210.753V32.9849H203.121Z" fill="white"/>
</svg>
