<svg width="61" height="59" viewBox="0 0 61 59" fill="none" xmlns="http://www.w3.org/2000/svg">
<path d="M0.637939 31.244H6.74863C10.6767 31.244 12.4772 34.1211 12.4772 37.2672C12.4772 40.4133 10.6767 43.3456 6.74863 43.3456H0.637939V31.244ZM6.02325 40.8151C8.2253 40.8151 9.13202 39.5968 9.13202 37.2672C9.13202 34.9376 8.20586 33.7744 6.02325 33.7744H3.84063V40.8183H6.02325V40.8151Z" fill="#001933"/>
<path d="M13.3872 38.7964C13.3872 36.3566 14.7343 33.9557 18.6074 33.9557C22.4804 33.9557 23.8081 36.3566 23.8081 38.7964C23.8081 41.2362 22.4609 43.6371 18.6074 43.6371C14.7538 43.6371 13.3872 41.2524 13.3872 38.7964ZM18.6074 41.1973C20.0808 41.1973 20.6799 40.6141 20.6799 38.7964C20.6799 36.9787 20.0808 36.3955 18.6074 36.3955C17.1339 36.3955 16.5154 36.9787 16.5154 38.7964C16.5154 40.6141 17.1145 41.1973 18.6074 41.1973Z" fill="#001933"/>
<path d="M29.7729 33.9557C33.0825 33.9557 34.6854 35.8123 34.7373 38.0868H31.6641C31.5929 37.0144 31.0262 36.3955 29.828 36.3955C28.5197 36.3955 27.7555 36.9787 27.7555 38.7964C27.7555 40.6141 28.4647 41.1973 29.7729 41.1973C31.0812 41.1973 31.6091 40.4877 31.6997 39.4865H34.7729C34.7178 41.6509 33.2088 43.6371 29.8247 43.6371C26.0586 43.6371 24.624 41.2524 24.624 38.7964C24.624 36.3404 26.0068 33.9557 29.7729 33.9557Z" fill="#001933"/>
<path d="M36.6479 39.762V36.5965H35.0482V35.1417L36.9038 34.3219L38.1959 32.0474H39.7794V34.2507H42.2535V36.5997H39.7794V40.8766H41.962V43.352H40.3072C37.5255 43.352 36.6512 42.1143 36.6512 39.7653L36.6479 39.762Z" fill="#001933"/>
<path d="M42.995 38.7964C42.995 36.3566 44.3421 33.9557 48.2151 33.9557C52.0882 33.9557 53.4159 36.3566 53.4159 38.7964C53.4159 41.2362 52.0687 43.6371 48.2151 43.6371C44.3616 43.6371 42.995 41.2524 42.995 38.7964ZM48.2151 41.1973C49.6886 41.1973 50.2877 40.6141 50.2877 38.7964C50.2877 36.9787 49.6886 36.3955 48.2151 36.3955C46.7417 36.3955 46.1232 36.9787 46.1232 38.7964C46.1232 40.6141 46.7223 41.1973 48.2151 41.1973Z" fill="#001933"/>
<path d="M54.6335 34.2474H57.6711V36.0683C58.0338 34.8112 58.7818 34.1016 60.2358 34.1016H61.0001V37.1408H59.8893C58.3965 37.1408 57.7617 37.8698 57.7617 39.7069V43.3455H54.6335V34.2474Z" fill="#001933"/>
<path d="M15.5342 46.3751H18.6818L16.6093 58.4767H11.1722L9.33604 49.0319L7.51611 58.4767H2.09195L0 46.3751H3.14764L4.89308 56.4938L6.94941 46.3751H11.7162L13.7887 56.4938L15.5342 46.3751Z" fill="#001933"/>
<path d="M19.7699 46.3751H23.0244V48.2673H19.7699V46.3751ZM19.8249 49.3786H22.9532V58.4767H19.8249V49.3786Z" fill="#001933"/>
<path d="M28.808 56.8924C29.8281 56.8924 30.2264 56.5651 30.2264 56.037C30.2264 55.5834 30.0613 55.201 29.0088 55.0714L27.082 54.8544C25.3171 54.6535 24.3715 53.7074 24.3715 52.1262C24.3715 49.9619 26.2271 49.087 28.6655 49.087C31.104 49.087 32.9207 49.9424 33.1053 52.0711H30.2685C30.1778 51.3616 29.6856 50.9436 28.685 50.9436C27.6293 50.9436 27.231 51.3259 27.231 51.8346C27.231 52.2169 27.4479 52.5636 28.3028 52.6543L30.1778 52.8358C32.3248 53.0529 33.2154 53.9277 33.2154 55.6741C33.2154 57.4205 32.1435 58.7684 28.7594 58.7684C25.3754 58.7684 24.1934 57.2228 24.1222 55.5477H26.959C27.0334 56.2929 27.6487 56.8956 28.8145 56.8956L28.808 56.8924Z" fill="#001933"/>
<path d="M34.0637 53.9083C34.0637 51.2708 35.5922 49.087 39.0831 49.087C42.7942 49.087 43.9762 51.4361 43.9762 53.9633C43.9762 54.2549 43.9568 54.5271 43.9211 54.728H37.1013C37.2826 56.1828 38.0112 56.6753 39.1576 56.6753C40.0837 56.6753 40.6504 56.2735 40.903 55.7292H43.9406C43.6491 57.2941 42.3959 58.7684 39.0831 58.7684C35.3914 58.7684 34.0637 56.4031 34.0637 53.9083ZM41.0131 52.9071C40.903 51.7601 40.3396 51.1412 39.1381 51.1412C37.9367 51.1412 37.3376 51.5948 37.1369 52.9071H41.0099H41.0131Z" fill="#001933"/>
<path d="M24.8509 14.8816V18.3647C24.8509 19.4306 24.2809 20.4189 23.358 20.9502L14.2681 26.1991L16.2693 18.7275C16.5446 17.6972 17.3509 16.8937 18.3807 16.6183L24.8509 14.8816Z" fill="#0072E5"/>
<path d="M24.8508 7.83772V11.3208L18.3839 9.58735C17.3541 9.31195 16.551 8.50517 16.2758 7.47483L14.2712 0L23.3579 5.24891C24.2841 5.78352 24.8508 6.7685 24.8508 7.83448V7.83772Z" fill="#0072E5"/>
<path d="M14.9351 10.9287C15.8516 11.8456 16.9364 12.5876 18.1508 13.1028C16.9396 13.6212 15.8483 14.3632 14.9319 15.2801C14.0154 16.2003 13.2706 17.2922 12.7557 18.5105C12.2408 17.2922 11.4993 16.2003 10.5796 15.2801C9.66639 14.3664 8.57831 13.6244 7.36719 13.106C8.57831 12.5909 9.66639 11.8489 10.5861 10.9319C11.5025 10.0118 12.2473 8.91986 12.7622 7.7016C13.2771 8.91986 14.0187 10.0118 14.9384 10.9287H14.9351Z" fill="#0072E5"/>
<path d="M11.2402 0L9.23892 7.47159C8.96367 8.50193 8.15733 9.30871 7.13078 9.58411L0.660645 11.3208V7.83772C0.660645 6.77174 1.23059 5.78352 2.15027 5.25214L11.2402 0Z" fill="#0072E5"/>
<path d="M11.2402 26.1991L2.15027 20.9502C1.22735 20.4156 0.660645 19.4306 0.660645 18.3647V14.8816L7.13078 16.6183C8.16057 16.8937 8.96367 17.7004 9.23892 18.7275L11.2402 26.1991Z" fill="#0072E5"/>
</svg>
