<svg width="186" height="28" viewBox="0 0 186 28" fill="none" xmlns="http://www.w3.org/2000/svg">
<path d="M30.7637 8.06311H36.981C40.9777 8.06311 42.8096 10.9889 42.8096 14.1882C42.8096 17.3874 40.9777 20.3692 36.981 20.3692H30.7637V8.06311ZM36.243 17.796C38.4835 17.796 39.406 16.5571 39.406 14.1882C39.406 11.8192 38.4637 10.6364 36.243 10.6364H34.0223V17.7993H36.243V17.796Z" fill="#001933"/>
<path d="M43.7354 15.74C43.7354 13.259 45.1061 10.8175 49.0467 10.8175C52.9873 10.8175 54.3381 13.259 54.3381 15.74C54.3381 18.221 52.9675 20.6624 49.0467 20.6624C45.1258 20.6624 43.7354 18.2374 43.7354 15.74ZM49.0467 18.1814C50.5458 18.1814 51.1553 17.5883 51.1553 15.74C51.1553 13.8916 50.5458 13.2985 49.0467 13.2985C47.5475 13.2985 46.9182 13.8916 46.9182 15.74C46.9182 17.5883 47.5277 18.1814 49.0467 18.1814Z" fill="#001933"/>
<path d="M60.4073 10.8175C63.7746 10.8175 65.4055 12.7054 65.4582 15.0184H62.3314C62.259 13.9278 61.6824 13.2985 60.4633 13.2985C59.1322 13.2985 58.3546 13.8916 58.3546 15.74C58.3546 17.5883 59.0762 18.1814 60.4073 18.1814C61.7384 18.1814 62.2754 17.4599 62.3677 16.4418H65.4945C65.4385 18.6427 63.9031 20.6624 60.46 20.6624C56.6281 20.6624 55.1685 18.2374 55.1685 15.74C55.1685 13.2425 56.5754 10.8175 60.4073 10.8175Z" fill="#001933"/>
<path d="M67.402 16.7219V13.5029H65.7744V12.0235L67.6623 11.1899L68.9769 8.87695H70.5881V11.1174H73.1053V13.5062H70.5881V17.8553H72.8088V20.3726H71.1251C68.2949 20.3726 67.4053 19.1139 67.4053 16.7252L67.402 16.7219Z" fill="#001933"/>
<path d="M73.8598 15.74C73.8598 13.259 75.2304 10.8175 79.171 10.8175C83.1116 10.8175 84.4625 13.259 84.4625 15.74C84.4625 18.221 83.0919 20.6624 79.171 20.6624C75.2502 20.6624 73.8598 18.2374 73.8598 15.74ZM79.171 18.1814C80.6702 18.1814 81.2797 17.5883 81.2797 15.74C81.2797 13.8916 80.6702 13.2985 79.171 13.2985C77.6719 13.2985 77.0426 13.8916 77.0426 15.74C77.0426 17.5883 77.6521 18.1814 79.171 18.1814Z" fill="#001933"/>
<path d="M85.7015 11.1141H88.7921V12.9658C89.1611 11.6874 89.9222 10.9658 91.4016 10.9658H92.1791V14.0564H91.049C89.5301 14.0564 88.8843 14.7977 88.8843 16.6658V20.3659H85.7015V11.1141Z" fill="#001933"/>
<path d="M113.062 8.07959H116.264L114.156 20.3857H108.624L106.755 10.7813L104.904 20.3857H99.3883L97.2598 8.07959H100.462L102.238 18.3693L104.33 8.07959H109.18L111.289 18.3693L113.065 8.07959H113.062Z" fill="#001933"/>
<path d="M117.371 8.07959H120.683V10.0038H117.371V8.07959ZM117.427 11.1339H120.61V20.3857H117.427V11.1339Z" fill="#001933"/>
<path d="M126.571 18.7746C127.608 18.7746 128.014 18.4418 128.014 17.9048C128.014 17.4435 127.846 17.0547 126.775 16.9229L124.814 16.7022C123.019 16.4979 122.057 15.5358 122.057 13.9279C122.057 11.727 123.945 10.8374 126.426 10.8374C128.907 10.8374 130.755 11.7072 130.943 13.8719H128.057C127.964 13.1504 127.463 12.7253 126.445 12.7253C125.371 12.7253 124.966 13.1141 124.966 13.6314C124.966 14.0202 125.187 14.3727 126.057 14.465L127.964 14.6495C130.149 14.8703 131.055 15.7599 131.055 17.5358C131.055 19.3117 129.964 20.6823 126.521 20.6823C123.078 20.6823 121.875 19.1107 121.803 17.4073H124.689C124.765 18.1651 125.391 18.7779 126.577 18.7779L126.571 18.7746Z" fill="#001933"/>
<path d="M131.915 15.7401C131.915 13.0581 133.47 10.8374 137.022 10.8374C140.797 10.8374 142 13.2261 142 15.7961C142 16.0926 141.98 16.3694 141.944 16.5737H135.005C135.19 18.053 135.931 18.5539 137.097 18.5539C138.04 18.5539 138.616 18.1453 138.873 17.5918H141.964C141.667 19.1832 140.392 20.6823 137.022 20.6823C133.265 20.6823 131.915 18.2771 131.915 15.7401ZM138.985 14.722C138.873 13.5556 138.3 12.9263 137.078 12.9263C135.855 12.9263 135.246 13.3876 135.041 14.722H138.982H138.985Z" fill="#001933"/>
<path d="M24.6157 16.0233V19.5652C24.6157 20.6492 24.0358 21.6542 23.0968 22.1945L13.8482 27.5321L15.8844 19.9343C16.1645 18.8865 16.9849 18.0694 18.0326 17.7893L24.6157 16.0233Z" fill="#0072E5"/>
<path d="M24.6156 8.86042V12.4023L18.0359 10.6396C16.9881 10.3596 16.171 9.53915 15.8909 8.4914L13.8514 0.890259L23.0967 6.22786C24.039 6.7715 24.6156 7.77313 24.6156 8.85712V8.86042Z" fill="#0072E5"/>
<path d="M14.5235 12.0037C15.456 12.9361 16.5597 13.6906 17.7953 14.2145C16.563 14.7417 15.4527 15.4962 14.5202 16.4286C13.5878 17.3643 12.876 18.4824 12.3521 19.7212C11.8283 18.4824 11.0277 17.3643 10.092 16.4286C9.15628 15.4929 8.05581 14.745 6.82355 14.2178C8.05581 13.6939 9.16287 12.9394 10.0986 12.007C11.031 11.0712 11.8283 9.94002 12.3521 8.70117C12.876 9.94002 13.5911 11.0712 14.5268 12.0037H14.5235Z" fill="#0072E5"/>
<path d="M10.7675 0.890259L8.73126 8.4881C8.4512 9.53585 7.63079 10.3563 6.58633 10.6363L0 12.399V8.85712C0 7.77313 0.579887 6.76821 1.51561 6.22786L10.7675 0.890259Z" fill="#0072E5"/>
<path d="M10.7674 27.5321L1.51885 22.1945C0.579827 21.6509 0.00323486 20.6492 0.00323486 19.5652V16.0233L6.58627 17.7893C7.63403 18.0694 8.45114 18.8898 8.7312 19.9343L10.7674 27.5321Z" fill="#0072E5"/>
<path d="M146 9.21118C146 5.89747 148.686 3.21118 152 3.21118H180C183.314 3.21118 186 5.89747 186 9.21118V19.2112C186 22.5249 183.314 25.2112 180 25.2112H152C148.686 25.2112 146 22.5249 146 19.2112V9.21118Z" fill="#0C111D"/>
<path d="M154.243 18.2112V9.48391H157.686C158.348 9.48391 158.912 9.61033 159.378 9.86317C159.844 10.1132 160.199 10.4612 160.443 10.9072C160.69 11.3504 160.814 11.8617 160.814 12.4413C160.814 13.0208 160.689 13.5322 160.439 13.9754C160.189 14.4186 159.827 14.7637 159.352 15.0109C158.881 15.2581 158.31 15.3816 157.639 15.3816H155.445V13.9029H157.341C157.696 13.9029 157.989 13.8419 158.219 13.7197C158.452 13.5947 158.625 13.4228 158.739 13.2041C158.855 12.9825 158.913 12.7282 158.913 12.4413C158.913 12.1515 158.855 11.8987 158.739 11.6828C158.625 11.464 158.452 11.295 158.219 11.1757C157.986 11.0535 157.69 10.9924 157.332 10.9924H156.088V18.2112H154.243ZM162.012 18.2112V9.48391H165.456C166.115 9.48391 166.677 9.60181 167.143 9.8376C167.612 10.0706 167.968 10.4015 168.213 10.8305C168.46 11.2566 168.583 11.7581 168.583 12.3348C168.583 12.9143 168.458 13.4129 168.208 13.8305C167.958 14.2453 167.596 14.5635 167.122 14.785C166.65 15.0066 166.079 15.1174 165.409 15.1174H163.103V13.6345H165.11C165.463 13.6345 165.755 13.5862 165.988 13.4896C166.221 13.393 166.395 13.2481 166.508 13.0549C166.625 12.8617 166.683 12.6217 166.683 12.3348C166.683 12.045 166.625 11.8007 166.508 11.6018C166.395 11.4029 166.22 11.2524 165.984 11.1501C165.751 11.045 165.457 10.9924 165.102 10.9924H163.858V18.2112H162.012ZM166.725 14.2396L168.895 18.2112H166.858L164.735 14.2396H166.725ZM177.907 13.8475C177.907 14.7992 177.727 15.6089 177.366 16.2765C177.008 16.9441 176.52 17.4541 175.9 17.8064C175.284 18.1558 174.591 18.3305 173.821 18.3305C173.045 18.3305 172.349 18.1544 171.733 17.8021C171.116 17.4498 170.629 16.9399 170.271 16.2723C169.913 15.6046 169.734 14.7964 169.734 13.8475C169.734 12.8958 169.913 12.0862 170.271 11.4186C170.629 10.751 171.116 10.2424 171.733 9.893C172.349 9.54073 173.045 9.36459 173.821 9.36459C174.591 9.36459 175.284 9.54073 175.9 9.893C176.52 10.2424 177.008 10.751 177.366 11.4186C177.727 12.0862 177.907 12.8958 177.907 13.8475ZM176.037 13.8475C176.037 13.2311 175.944 12.7112 175.76 12.2879C175.578 11.8646 175.321 11.5436 174.988 11.3248C174.656 11.1061 174.267 10.9967 173.821 10.9967C173.375 10.9967 172.985 11.1061 172.653 11.3248C172.321 11.5436 172.062 11.8646 171.877 12.2879C171.696 12.7112 171.605 13.2311 171.605 13.8475C171.605 14.464 171.696 14.9839 171.877 15.4072C172.062 15.8305 172.321 16.1515 172.653 16.3703C172.985 16.589 173.375 16.6984 173.821 16.6984C174.267 16.6984 174.656 16.589 174.988 16.3703C175.321 16.1515 175.578 15.8305 175.76 15.4072C175.944 14.9839 176.037 14.464 176.037 13.8475Z" fill="white"/>
</svg>
