<svg width="250" height="37" viewBox="0 0 250 37" fill="none" xmlns="http://www.w3.org/2000/svg">
<path d="M41.5697 10.5825H49.9709C55.3713 10.5825 57.8467 14.536 57.8467 18.859C57.8467 23.1821 55.3713 27.2113 49.9709 27.2113H41.5697V10.5825ZM48.9736 23.7341C52.0011 23.7341 53.2477 22.0601 53.2477 18.859C53.2477 15.658 51.9744 14.0596 48.9736 14.0596H45.9729V23.7386H48.9736V23.7341Z" fill="#001933"/>
<path d="M59.0979 20.9559C59.0979 17.6035 60.95 14.3044 66.2747 14.3044C71.5995 14.3044 73.4249 17.6035 73.4249 20.9559C73.4249 24.3084 71.5728 27.6074 66.2747 27.6074C60.9767 27.6074 59.0979 24.3307 59.0979 20.9559ZM66.2747 24.255C68.3005 24.255 69.1241 23.4536 69.1241 20.9559C69.1241 18.4583 68.3005 17.6569 66.2747 17.6569C64.249 17.6569 63.3987 18.4583 63.3987 20.9559C63.3987 23.4536 64.2223 24.255 66.2747 24.255Z" fill="#001933"/>
<path d="M81.6258 14.3044C86.1759 14.3044 88.3797 16.8555 88.4509 19.9809H84.2258C84.1279 18.5073 83.3488 17.6569 81.7015 17.6569C79.9028 17.6569 78.8521 18.4583 78.8521 20.9559C78.8521 23.4536 79.8271 24.255 81.6258 24.255C83.4244 24.255 84.1501 23.28 84.2748 21.9042H88.4999C88.4242 24.8783 86.3495 27.6074 81.697 27.6074C76.5192 27.6074 74.5469 24.3307 74.5469 20.9559C74.5469 17.5812 76.4479 14.3044 81.6258 14.3044Z" fill="#001933"/>
<path d="M91.0774 22.2828V17.9331H88.8781V15.934L91.4291 14.8077L93.2055 11.6823H95.3826V14.7097H98.7841V17.9375H95.3826V23.8143H98.3834V27.2158H96.1083C92.2839 27.2158 91.0819 25.5151 91.0819 22.2872L91.0774 22.2828Z" fill="#001933"/>
<path d="M99.8036 20.9559C99.8036 17.6035 101.656 14.3044 106.98 14.3044C112.305 14.3044 114.131 17.6035 114.131 20.9559C114.131 24.3084 112.278 27.6074 106.98 27.6074C101.682 27.6074 99.8036 24.3307 99.8036 20.9559ZM106.98 24.255C109.006 24.255 109.83 23.4536 109.83 20.9559C109.83 18.4583 109.006 17.6569 106.98 17.6569C104.955 17.6569 104.104 18.4583 104.104 20.9559C104.104 23.4536 104.928 24.255 106.98 24.255Z" fill="#001933"/>
<path d="M115.805 14.7051H119.981V17.2072C120.48 15.4798 121.508 14.5048 123.507 14.5048H124.558V18.6809H123.031C120.978 18.6809 120.106 19.6826 120.106 22.207V27.2067H115.805V14.7051Z" fill="#001933"/>
<path d="M152.775 10.6047H157.103L154.254 27.2335H146.778L144.254 14.2555L141.752 27.2335H134.299L131.423 10.6047H135.75L138.15 24.5088L140.977 10.6047H147.531L150.38 24.5088L152.78 10.6047H152.775Z" fill="#001933"/>
<path d="M158.599 10.6047H163.073V13.2048H158.599V10.6047ZM158.675 14.7319H162.975V27.2335H158.675V14.7319Z" fill="#001933"/>
<path d="M171.029 25.0564C172.432 25.0564 172.979 24.6067 172.979 23.881C172.979 23.2577 172.752 22.7324 171.305 22.5543L168.656 22.256C166.23 21.98 164.93 20.6799 164.93 18.5073C164.93 15.5333 167.481 14.3312 170.834 14.3312C174.186 14.3312 176.684 15.5065 176.937 18.4316H173.037C172.913 17.4566 172.236 16.8823 170.86 16.8823C169.409 16.8823 168.861 17.4076 168.861 18.1066C168.861 18.6319 169.16 19.1083 170.335 19.233L172.913 19.4823C175.864 19.7806 177.089 20.9827 177.089 23.3824C177.089 25.7821 175.615 27.6342 170.963 27.6342C166.31 27.6342 164.685 25.5105 164.587 23.2087H168.487C168.59 24.2327 169.436 25.0608 171.038 25.0608L171.029 25.0564Z" fill="#001933"/>
<path d="M178.25 20.956C178.25 17.3319 180.352 14.3312 185.151 14.3312C190.253 14.3312 191.878 17.559 191.878 21.0316C191.878 21.4323 191.852 21.8063 191.803 22.0824H182.426C182.676 24.0814 183.678 24.7581 185.254 24.7581C186.527 24.7581 187.306 24.206 187.653 23.4581H191.829C191.429 25.6084 189.706 27.6342 185.151 27.6342C180.076 27.6342 178.25 24.3841 178.25 20.956ZM187.805 19.5802C187.653 18.0042 186.879 17.1538 185.227 17.1538C183.575 17.1538 182.751 17.7771 182.475 19.5802H187.8H187.805Z" fill="#001933"/>
<path d="M33.262 21.3389V26.1249C33.262 27.5897 32.4784 28.9476 31.2096 29.6777L18.7124 36.8902L21.4638 26.6236C21.8423 25.2078 22.9508 24.1036 24.3666 23.7252L33.262 21.3389Z" fill="#0072E5"/>
<path d="M33.2619 11.66V16.446L24.371 14.0641C22.9552 13.6857 21.8511 12.5771 21.4727 11.1613L18.7168 0.890259L31.2095 8.10273C32.4828 8.83733 33.2619 10.1908 33.2619 11.6555V11.66Z" fill="#0072E5"/>
<path d="M19.625 15.9072C20.8849 17.1672 22.3764 18.1867 24.046 18.8946C22.3809 19.6069 20.8805 20.6265 19.6205 21.8864C18.3606 23.1508 17.3988 24.6616 16.6909 26.3356C15.983 24.6616 14.9013 23.1508 13.6369 21.8864C12.3725 20.622 10.8854 19.6114 9.22034 18.8991C10.8854 18.1912 12.3814 17.1716 13.6458 15.9117C14.9057 14.6473 15.983 13.1187 16.6909 11.4447C17.3988 13.1187 18.365 14.6473 19.6294 15.9072H19.625Z" fill="#0072E5"/>
<path d="M14.5496 0.890259L11.7982 11.1569C11.4197 12.5727 10.3112 13.6813 8.89983 14.0597L0 16.4416V11.6555C0 10.1908 0.783577 8.83288 2.04798 8.10273L14.5496 0.890259Z" fill="#0072E5"/>
<path d="M14.5494 36.8902L2.05226 29.6777C0.783397 28.9431 0.00427246 27.5897 0.00427246 26.1249V21.3389L8.89965 23.7252C10.3154 24.1036 11.4196 25.2122 11.798 26.6236L14.5494 36.8902Z" fill="#0072E5"/>
<path d="M199.878 8.89026C199.878 5.57655 202.565 2.89026 205.878 2.89026H243.878C247.192 2.89026 249.878 5.57655 249.878 8.89026V28.8903C249.878 32.204 247.192 34.8903 243.878 34.8903H205.878C202.565 34.8903 199.878 32.204 199.878 28.8903V8.89026Z" fill="#0C111D"/>
<path d="M209.202 24.8903V13.2539H213.793C214.676 13.2539 215.428 13.4225 216.049 13.7596C216.67 14.0929 217.144 14.5569 217.469 15.1516C217.799 15.7425 217.964 16.4243 217.964 17.1971C217.964 17.9698 217.797 18.6516 217.464 19.2425C217.13 19.8334 216.647 20.2937 216.015 20.6232C215.386 20.9528 214.625 21.1175 213.731 21.1175H210.805V19.1459H213.333C213.806 19.1459 214.197 19.0645 214.503 18.9016C214.814 18.735 215.045 18.5058 215.197 18.2141C215.352 17.9187 215.43 17.5797 215.43 17.1971C215.43 16.8107 215.352 16.4736 215.197 16.1857C215.045 15.894 214.814 15.6687 214.503 15.5096C214.193 15.3467 213.799 15.2653 213.322 15.2653H211.663V24.8903H209.202ZM219.562 24.8903V13.2539H224.153C225.031 13.2539 225.781 13.4111 226.403 13.7255C227.028 14.0361 227.503 14.4774 227.829 15.0493C228.158 15.6175 228.323 16.2861 228.323 17.055C228.323 17.8278 228.156 18.4925 227.823 19.0493C227.49 19.6024 227.007 20.0266 226.374 20.3221C225.745 20.6175 224.984 20.7653 224.09 20.7653H221.016V18.788H223.692C224.162 18.788 224.552 18.7236 224.863 18.5948C225.173 18.466 225.404 18.2728 225.556 18.0153C225.711 17.7577 225.789 17.4376 225.789 17.055C225.789 16.6687 225.711 16.3429 225.556 16.0778C225.404 15.8126 225.172 15.6118 224.857 15.4755C224.547 15.3353 224.154 15.2653 223.681 15.2653H222.022V24.8903H219.562ZM225.846 19.5948L228.738 24.8903H226.022L223.192 19.5948H225.846ZM240.755 19.0721C240.755 20.341 240.514 21.4206 240.033 22.3107C239.556 23.2009 238.904 23.8808 238.079 24.3505C237.257 24.8164 236.332 25.0493 235.306 25.0493C234.272 25.0493 233.344 24.8145 232.522 24.3448C231.7 23.8751 231.05 23.1952 230.573 22.305C230.096 21.4149 229.857 20.3372 229.857 19.0721C229.857 17.8031 230.096 16.7236 230.573 15.8334C231.05 14.9433 231.7 14.2653 232.522 13.7993C233.344 13.3297 234.272 13.0948 235.306 13.0948C236.332 13.0948 237.257 13.3297 238.079 13.7993C238.904 14.2653 239.556 14.9433 240.033 15.8334C240.514 16.7236 240.755 17.8031 240.755 19.0721ZM238.261 19.0721C238.261 18.2501 238.137 17.5569 237.891 16.9925C237.649 16.4281 237.306 16.0001 236.863 15.7084C236.42 15.4168 235.901 15.2709 235.306 15.2709C234.711 15.2709 234.192 15.4168 233.749 15.7084C233.306 16.0001 232.961 16.4281 232.715 16.9925C232.473 17.5569 232.351 18.2501 232.351 19.0721C232.351 19.894 232.473 20.5872 232.715 21.1516C232.961 21.716 233.306 22.144 233.749 22.4357C234.192 22.7274 234.711 22.8732 235.306 22.8732C235.901 22.8732 236.42 22.7274 236.863 22.4357C237.306 22.144 237.649 21.716 237.891 21.1516C238.137 20.5872 238.261 19.894 238.261 19.0721Z" fill="white"/>
</svg>
