<svg width="258" height="37" viewBox="0 0 258 37" fill="none" xmlns="http://www.w3.org/2000/svg">
<path d="M41.5696 10.4606H49.9708C55.3713 10.4606 57.8467 14.4141 57.8467 18.7371C57.8467 23.0601 55.3713 27.0893 49.9708 27.0893H41.5696V10.4606ZM48.9735 23.6122C52.001 23.6122 53.2476 21.9382 53.2476 18.7371C53.2476 15.536 51.9743 13.9377 48.9735 13.9377H45.9728V23.6166H48.9735V23.6122Z" fill="#001933"/>
<path d="M59.0978 20.8341C59.0978 17.4816 60.9499 14.1826 66.2746 14.1826C71.5994 14.1826 73.4248 17.4816 73.4248 20.8341C73.4248 24.1865 71.5727 27.4855 66.2746 27.4855C60.9766 27.4855 59.0978 24.2088 59.0978 20.8341ZM66.2746 24.1331C68.3004 24.1331 69.124 23.3317 69.124 20.8341C69.124 18.3364 68.3004 17.535 66.2746 17.535C64.2489 17.535 63.3985 18.3364 63.3985 20.8341C63.3985 23.3317 64.2222 24.1331 66.2746 24.1331Z" fill="#001933"/>
<path d="M81.6257 14.1826C86.1758 14.1826 88.3796 16.7336 88.4508 19.859H84.2258C84.1278 18.3854 83.3487 17.535 81.7014 17.535C79.9027 17.535 78.852 18.3364 78.852 20.8341C78.852 23.3317 79.827 24.1331 81.6257 24.1331C83.4244 24.1331 84.1501 23.1581 84.2747 21.7824H88.4998C88.4241 24.7564 86.3494 27.4855 81.697 27.4855C76.5191 27.4855 74.5468 24.2088 74.5468 20.8341C74.5468 17.4593 76.4479 14.1826 81.6257 14.1826Z" fill="#001933"/>
<path d="M91.0773 22.1608V17.811H88.878V15.812L91.4291 14.6856L93.2055 11.5602H95.3826V14.5877H98.784V17.8155H95.3826V23.6923H98.3833V27.0938H96.1083C92.2839 27.0938 91.0818 25.393 91.0818 22.1652L91.0773 22.1608Z" fill="#001933"/>
<path d="M99.8035 20.8341C99.8035 17.4816 101.656 14.1826 106.98 14.1826C112.305 14.1826 114.131 17.4816 114.131 20.8341C114.131 24.1865 112.278 27.4855 106.98 27.4855C101.682 27.4855 99.8035 24.2088 99.8035 20.8341ZM106.98 24.1331C109.006 24.1331 109.83 23.3317 109.83 20.8341C109.83 18.3364 109.006 17.535 106.98 17.535C104.955 17.535 104.104 18.3364 104.104 20.8341C104.104 23.3317 104.928 24.1331 106.98 24.1331Z" fill="#001933"/>
<path d="M115.805 14.5832H119.981V17.0853C120.479 15.3578 121.508 14.3828 123.507 14.3828H124.558V18.5589H123.031C120.978 18.5589 120.105 19.5607 120.105 22.085V27.0848H115.805V14.5832Z" fill="#001933"/>
<path d="M152.775 10.4828H157.103L154.254 27.1116H146.778L144.254 14.1336L141.752 27.1116H134.299L131.423 10.4828H135.75L138.15 24.3869L140.977 10.4828H147.531L150.38 24.3869L152.78 10.4828H152.775Z" fill="#001933"/>
<path d="M158.599 10.4828H163.073V13.0829H158.599V10.4828ZM158.675 14.61H162.975V27.1116H158.675V14.61Z" fill="#001933"/>
<path d="M171.029 24.9344C172.432 24.9344 172.979 24.4848 172.979 23.7591C172.979 23.1358 172.752 22.6104 171.305 22.4323L168.656 22.134C166.23 21.858 164.93 20.558 164.93 18.3853C164.93 15.4113 167.481 14.2092 170.833 14.2092C174.186 14.2092 176.684 15.3846 176.937 18.3096H173.037C172.913 17.3346 172.236 16.7603 170.86 16.7603C169.409 16.7603 168.861 17.2857 168.861 17.9846C168.861 18.51 169.159 18.9864 170.335 19.111L172.913 19.3604C175.864 19.6586 177.089 20.8607 177.089 23.2604C177.089 25.6601 175.615 27.5122 170.963 27.5122C166.31 27.5122 164.685 25.3886 164.587 23.0868H168.487C168.59 24.1108 169.435 24.9389 171.038 24.9389L171.029 24.9344Z" fill="#001933"/>
<path d="M178.25 20.834C178.25 17.21 180.352 14.2092 185.151 14.2092C190.253 14.2092 191.878 17.437 191.878 20.9097C191.878 21.3104 191.852 21.6844 191.803 21.9604H182.427C182.676 23.9594 183.678 24.6361 185.254 24.6361C186.527 24.6361 187.306 24.0841 187.653 23.3361H191.829C191.429 25.4865 189.706 27.5122 185.151 27.5122C180.076 27.5122 178.25 24.2622 178.25 20.834ZM187.805 19.4583C187.653 17.8822 186.879 17.0319 185.227 17.0319C183.575 17.0319 182.752 17.6552 182.476 19.4583H187.8H187.805Z" fill="#001933"/>
<path d="M33.2621 21.217V26.003C33.2621 27.4678 32.4785 28.8257 31.2096 29.5558L18.7125 36.7683L21.4639 26.5017C21.8423 25.0859 22.9509 23.9818 24.3667 23.6033L33.2621 21.217Z" fill="#0072E5"/>
<path d="M33.262 11.538V16.3241L24.371 13.9422C22.9553 13.5638 21.8511 12.4552 21.4727 11.0394L18.7168 0.768311L31.2095 7.98078C32.4828 8.71538 33.262 10.0688 33.262 11.5336V11.538Z" fill="#0072E5"/>
<path d="M19.625 15.7853C20.885 17.0453 22.3764 18.0648 24.046 18.7727C22.3809 19.4851 20.8805 20.5046 19.6206 21.7646C18.3606 23.029 17.3988 24.5397 16.6909 26.2137C15.983 24.5397 14.9013 23.029 13.6369 21.7646C12.3725 20.5001 10.8855 19.4895 9.22037 18.7772C10.8855 18.0693 12.3814 17.0497 13.6458 15.7898C14.9058 14.5254 15.983 12.9968 16.6909 11.3228C17.3988 12.9968 18.3651 14.5254 19.6295 15.7853H19.625Z" fill="#0072E5"/>
<path d="M14.5496 0.768311L11.7982 11.0349C11.4197 12.4507 10.3112 13.5593 8.89983 13.9377L0 16.3196V11.5336C0 10.0688 0.783577 8.71093 2.04798 7.98078L14.5496 0.768311Z" fill="#0072E5"/>
<path d="M14.5495 36.7683L2.05232 29.5558C0.783458 28.8212 0.0043335 27.4678 0.0043335 26.003V21.217L8.89971 23.6033C10.3155 23.9818 11.4196 25.0903 11.7981 26.5017L14.5495 36.7683Z" fill="#0072E5"/>
<rect x="199.878" y="2.76831" width="58" height="32" rx="6" fill="#59ACFF"/>
<path d="M214.694 13.1283C217.142 13.1283 218.118 14.7123 218.118 16.6483C218.118 18.7123 217.142 20.2963 214.694 20.2963H211.59V23.7683H208.742V13.1283H214.694ZM211.59 18.1203H213.75C214.774 18.1203 215.174 17.4963 215.174 16.6643C215.174 15.8483 214.79 15.2883 213.782 15.2883H211.59V18.1203ZM219.352 23.7683V13.1283H222.2V21.5443H226.984V23.7683H219.352ZM227.833 19.7203V13.1283H230.665V19.3523C230.665 21.2083 231.337 21.7203 232.793 21.7203C234.249 21.7203 234.921 21.2083 234.921 19.3523V13.1283H237.737V19.7203C237.737 22.5523 236.073 24.0243 232.793 24.0243C229.513 24.0243 227.833 22.5683 227.833 19.7203ZM241.689 20.3123C241.769 21.1923 242.345 21.9923 243.833 21.9923C245.193 21.9923 245.705 21.5123 245.705 20.7763C245.705 20.0723 245.289 19.7203 244.489 19.6083L242.169 19.3523C240.249 19.1283 239.145 18.0403 239.145 16.2323C239.145 14.2323 240.649 12.8563 243.721 12.8563C247.001 12.8563 248.313 14.4243 248.457 16.3123H245.673C245.561 15.4643 244.921 14.9043 243.721 14.9043C242.633 14.9043 241.993 15.3363 241.993 16.0403C241.993 16.5843 242.313 16.9843 243.129 17.0803L245.161 17.2883C247.497 17.5123 248.553 18.6163 248.553 20.5363C248.553 22.6323 247.241 24.0403 243.785 24.0403C240.281 24.0403 239.065 22.2163 238.953 20.3123H241.689Z" fill="white"/>
</svg>
