<svg width="95" height="132" viewBox="0 0 95 132" fill="none" xmlns="http://www.w3.org/2000/svg">
<path d="M1.73999 49.0366H11.1565C17.2095 49.0366 19.9841 53.4703 19.9841 58.3184C19.9841 63.1665 17.2095 67.6851 11.1565 67.6851H1.73999V49.0366ZM10.0387 63.7856C13.432 63.7856 14.8292 61.9083 14.8292 58.3184C14.8292 54.7285 13.402 52.9361 10.0387 52.9361H6.67528V63.7906H10.0387V63.7856Z" fill="#001933"/>
<path d="M21.3862 60.6749C21.3862 56.9153 23.4621 53.2156 29.4304 53.2156C35.3987 53.2156 37.4446 56.9153 37.4446 60.6749C37.4446 64.4346 35.3687 68.1343 29.4304 68.1343C23.4921 68.1343 21.3862 64.4596 21.3862 60.6749ZM29.4304 64.3747C31.7009 64.3747 32.6241 63.476 32.6241 60.6749C32.6241 57.8739 31.7009 56.9752 29.4304 56.9752C27.1599 56.9752 26.2067 57.8739 26.2067 60.6749C26.2067 63.476 27.1299 64.3747 29.4304 64.3747Z" fill="#001933"/>
<path d="M46.6365 53.2156C51.7365 53.2156 54.2066 56.0765 54.2865 59.5815H49.5508C49.441 57.9289 48.5677 56.9752 46.7214 56.9752C44.7053 56.9752 43.5277 57.8739 43.5277 60.6749C43.5277 63.476 44.6205 64.3747 46.6365 64.3747C48.6526 64.3747 49.466 63.2812 49.6057 61.7384H54.3414C54.2565 65.0737 51.9311 68.1343 46.7164 68.1343C40.9128 68.1343 38.7021 64.4596 38.7021 60.6749C38.7021 56.8903 40.833 53.2156 46.6365 53.2156Z" fill="#001933"/>
<path d="M57.2308 62.163V57.2849H54.7656V55.0431L57.625 53.7799L59.6161 50.2749H62.0563V53.6701H65.8688V57.2899H62.0563V63.8805H65.4197V67.6951H62.8697C58.5831 67.6951 57.2358 65.7878 57.2358 62.168L57.2308 62.163Z" fill="#001933"/>
<path d="M67.0115 60.6749C67.0115 56.9153 69.0874 53.2156 75.0556 53.2156C81.0239 53.2156 83.0699 56.9153 83.0699 60.6749C83.0699 64.4346 80.994 68.1343 75.0556 68.1343C69.1173 68.1343 67.0115 64.4596 67.0115 60.6749ZM75.0556 64.3747C77.3262 64.3747 78.2494 63.476 78.2494 60.6749C78.2494 57.8739 77.3262 56.9752 75.0556 56.9752C72.7851 56.9752 71.832 57.8739 71.832 60.6749C71.832 63.476 72.7552 64.3747 75.0556 64.3747Z" fill="#001933"/>
<path d="M84.9463 53.665H89.6271V56.471C90.186 54.5337 91.3387 53.4403 93.5793 53.4403H94.757V58.1236H93.0453C90.7449 58.1236 89.7668 59.247 89.7668 62.078V67.685H84.9463V53.665Z" fill="#001933"/>
<path d="M24.6947 72.3534H29.5452L26.3515 91.0018H17.973L15.1435 76.4476L12.339 91.0018H3.98049L0.756836 72.3534H5.60729L8.297 87.9462L11.4658 72.3534H18.8113L22.005 87.9462L24.6947 72.3534Z" fill="#001933"/>
<path d="M31.2219 72.3534H36.2371V75.2692H31.2219V72.3534ZM31.3068 76.9818H36.1273V91.0018H31.3068V76.9818Z" fill="#001933"/>
<path d="M45.1495 88.5603C46.7214 88.5603 47.3352 88.0561 47.3352 87.2422C47.3352 86.5432 47.0807 85.954 45.4589 85.7543L42.4897 85.4198C39.7701 85.1103 38.313 83.6523 38.313 81.2158C38.313 77.8806 41.1723 76.5325 44.9299 76.5325C48.6875 76.5325 51.487 77.8506 51.7715 81.1309H47.4001C47.2603 80.0375 46.5018 79.3934 44.9599 79.3934C43.3331 79.3934 42.7193 79.9826 42.7193 80.7664C42.7193 81.3556 43.0536 81.8898 44.371 82.0296L47.2603 82.3092C50.5688 82.6438 51.9411 83.9918 51.9411 86.683C51.9411 89.3742 50.2894 91.4512 45.0746 91.4512C39.8599 91.4512 38.0385 89.0696 37.9287 86.4883H42.3001C42.4149 87.6367 43.363 88.5653 45.1595 88.5653L45.1495 88.5603Z" fill="#001933"/>
<path d="M53.2485 83.9619C53.2485 79.8977 55.6039 76.5325 60.9833 76.5325C66.7021 76.5325 68.5235 80.1523 68.5235 84.0468C68.5235 84.4961 68.4935 84.9155 68.4386 85.2251H57.9293C58.2088 87.4669 59.3316 88.2258 61.0981 88.2258C62.5253 88.2258 63.3986 87.6067 63.7878 86.7679H68.4686C68.0195 89.1795 66.0883 91.4512 60.9833 91.4512C55.2945 91.4512 53.2485 87.8064 53.2485 83.9619ZM63.9575 82.4191C63.7878 80.6516 62.9195 79.698 61.0681 79.698C59.2168 79.698 58.2936 80.397 57.9842 82.4191H63.9525H63.9575Z" fill="#001933"/>
<path d="M39.0516 23.8226V29.19C39.0516 30.8326 38.1733 32.3555 36.7511 33.1743L22.7437 41.2628L25.8276 29.7492C26.2517 28.1614 27.4943 26.9232 29.0812 26.4988L39.0516 23.8226Z" fill="#0072E5"/>
<path d="M39.0517 12.9681V18.3354L29.0863 15.6642C27.4994 15.2398 26.2619 13.9966 25.8377 12.4088L22.7488 0.890259L36.7512 8.97873C38.1784 9.80256 39.0517 11.3204 39.0517 12.9631V12.9681Z" fill="#0072E5"/>
<path d="M23.7717 17.7312C25.1839 19.1442 26.8556 20.2876 28.7269 21.0814C26.8606 21.8803 25.1789 23.0237 23.7667 24.4367C22.3545 25.8546 21.2067 27.5372 20.4133 29.4146C19.6198 27.5372 18.4771 25.8546 17.0599 24.4367C15.6526 23.0287 13.9759 21.8853 12.1096 21.0864C13.9759 20.2926 15.6526 19.1492 17.0699 17.7362C18.4821 16.3182 19.6298 14.6356 20.4233 12.7583C21.2167 14.6356 22.3594 16.3182 23.7767 17.7312H23.7717Z" fill="#0072E5"/>
<path d="M18.0778 0.890259L14.9939 12.4039C14.5697 13.9916 13.3272 15.2348 11.7453 15.6592L1.7749 18.3354V12.9681C1.7749 11.3254 2.65317 9.80256 4.07038 8.98373L18.0778 0.890259Z" fill="#0072E5"/>
<path d="M18.0778 41.2628L4.07038 33.1743C2.64818 32.3505 1.7749 30.8326 1.7749 29.19V23.8226L11.7453 26.4988C13.3322 26.9232 14.5697 28.1664 14.9939 29.7492L18.0778 41.2628Z" fill="#0072E5"/>
<path d="M0.756836 105.451C0.756836 102.138 3.44313 99.4513 6.75684 99.4513H44.7568C48.0705 99.4513 50.7568 102.138 50.7568 105.451V125.451C50.7568 128.765 48.0705 131.451 44.7568 131.451H6.75684C3.44313 131.451 0.756836 128.765 0.756836 125.451V105.451Z" fill="#0C111D"/>
<path d="M10.0807 121.451V109.815H14.6716C15.5542 109.815 16.3061 109.983 16.9273 110.321C17.5485 110.654 18.022 111.118 18.3477 111.713C18.6773 112.304 18.8421 112.985 18.8421 113.758C18.8421 114.531 18.6754 115.213 18.3421 115.804C18.0087 116.394 17.5258 116.855 16.8932 117.184C16.2644 117.514 15.503 117.679 14.6091 117.679H11.683V115.707H14.2114C14.6849 115.707 15.075 115.626 15.3818 115.463C15.6924 115.296 15.9235 115.067 16.075 114.775C16.2303 114.48 16.308 114.141 16.308 113.758C16.308 113.372 16.2303 113.035 16.075 112.747C15.9235 112.455 15.6924 112.23 15.3818 112.071C15.0712 111.908 14.6773 111.826 14.2 111.826H12.5409V121.451H10.0807ZM20.4401 121.451V109.815H25.031C25.9098 109.815 26.6598 109.972 27.281 110.287C27.906 110.597 28.3814 111.038 28.7071 111.61C29.0367 112.179 29.2014 112.847 29.2014 113.616C29.2014 114.389 29.0348 115.054 28.7014 115.61C28.3681 116.163 27.8852 116.588 27.2526 116.883C26.6238 117.179 25.8624 117.326 24.9685 117.326H21.8946V115.349H24.5708C25.0405 115.349 25.4306 115.285 25.7412 115.156C26.0518 115.027 26.2829 114.834 26.4344 114.576C26.5897 114.319 26.6673 113.999 26.6673 113.616C26.6673 113.23 26.5897 112.904 26.4344 112.639C26.2829 112.374 26.0499 112.173 25.7355 112.037C25.4249 111.896 25.0329 111.826 24.5594 111.826H22.9003V121.451H20.4401ZM26.7242 116.156L29.6162 121.451H26.9003L24.0708 116.156H26.7242ZM41.6333 115.633C41.6333 116.902 41.3927 117.982 40.9117 118.872C40.4344 119.762 39.7829 120.442 38.9571 120.912C38.1352 121.377 37.2109 121.61 36.1844 121.61C35.1503 121.61 34.2223 121.376 33.4003 120.906C32.5783 120.436 31.9287 119.756 31.4514 118.866C30.9742 117.976 30.7355 116.898 30.7355 115.633C30.7355 114.364 30.9742 113.285 31.4514 112.394C31.9287 111.504 32.5783 110.826 33.4003 110.36C34.2223 109.891 35.1503 109.656 36.1844 109.656C37.2109 109.656 38.1352 109.891 38.9571 110.36C39.7829 110.826 40.4344 111.504 40.9117 112.394C41.3927 113.285 41.6333 114.364 41.6333 115.633ZM39.1389 115.633C39.1389 114.811 39.0158 114.118 38.7696 113.554C38.5272 112.989 38.1844 112.561 37.7412 112.269C37.298 111.978 36.7791 111.832 36.1844 111.832C35.5897 111.832 35.0708 111.978 34.6276 112.269C34.1844 112.561 33.8397 112.989 33.5935 113.554C33.3511 114.118 33.2298 114.811 33.2298 115.633C33.2298 116.455 33.3511 117.148 33.5935 117.713C33.8397 118.277 34.1844 118.705 34.6276 118.997C35.0708 119.288 35.5897 119.434 36.1844 119.434C36.7791 119.434 37.298 119.288 37.7412 118.997C38.1844 118.705 38.5272 118.277 38.7696 117.713C39.0158 117.148 39.1389 116.455 39.1389 115.633Z" fill="white"/>
</svg>
