<svg width="267" height="37" viewBox="0 0 267 37" fill="none" xmlns="http://www.w3.org/2000/svg">
<path d="M42.4481 10.0215H50.8493C56.2498 10.0215 58.7251 13.975 58.7251 18.2981C58.7251 22.6211 56.2498 26.6503 50.8493 26.6503H42.4481V10.0215ZM49.852 23.1732C52.8795 23.1732 54.1261 21.4992 54.1261 18.2981C54.1261 15.097 52.8528 13.4987 49.852 13.4987H46.8513V23.1776H49.852V23.1732Z" fill="#F2F9FF"/>
<path d="M59.9762 20.395C59.9762 17.0426 61.8283 13.7435 67.153 13.7435C72.4778 13.7435 74.3032 17.0426 74.3032 20.395C74.3032 23.7475 72.4511 27.0465 67.153 27.0465C61.855 27.0465 59.9762 23.7697 59.9762 20.395ZM67.153 23.6941C69.1788 23.6941 70.0024 22.8927 70.0024 20.395C70.0024 17.8974 69.1788 17.096 67.153 17.096C65.1273 17.096 64.277 17.8974 64.277 20.395C64.277 22.8927 65.1006 23.6941 67.153 23.6941Z" fill="#F2F9FF"/>
<path d="M82.5042 13.7435C87.0543 13.7435 89.2581 16.2946 89.3293 19.42H85.1042C85.0063 17.9464 84.2272 17.096 82.5799 17.096C80.7812 17.096 79.7305 17.8974 79.7305 20.395C79.7305 22.8927 80.7055 23.6941 82.5042 23.6941C84.3029 23.6941 85.0286 22.719 85.1532 21.3433H89.3783C89.3026 24.3174 87.2279 27.0465 82.5754 27.0465C77.3976 27.0465 75.4253 23.7697 75.4253 20.395C75.4253 17.0203 77.3264 13.7435 82.5042 13.7435Z" fill="#F2F9FF"/>
<path d="M91.9558 21.7218V17.372H89.7565V15.373L92.3075 14.2466L94.084 11.1212H96.261V14.1487H99.6625V17.3765H96.261V23.2533H99.2618V26.6547H96.9867C93.1624 26.6547 91.9603 24.954 91.9603 21.7262L91.9558 21.7218Z" fill="#F2F9FF"/>
<path d="M100.682 20.395C100.682 17.0426 102.534 13.7435 107.859 13.7435C113.183 13.7435 115.009 17.0426 115.009 20.395C115.009 23.7475 113.157 27.0465 107.859 27.0465C102.561 27.0465 100.682 23.7697 100.682 20.395ZM107.859 23.6941C109.884 23.6941 110.708 22.8927 110.708 20.395C110.708 17.8974 109.884 17.096 107.859 17.096C105.833 17.096 104.983 17.8974 104.983 20.395C104.983 22.8927 105.806 23.6941 107.859 23.6941Z" fill="#F2F9FF"/>
<path d="M116.683 14.1442H120.859V16.6463C121.358 14.9189 122.386 13.9438 124.385 13.9438H125.436V18.12H123.909C121.857 18.12 120.984 19.1217 120.984 21.6461V26.6458H116.683V14.1442Z" fill="#F2F9FF"/>
<path d="M153.654 10.0438H157.981L155.132 26.6726H147.657L145.132 13.6946L142.63 26.6726H135.177L132.301 10.0438H136.629L139.028 23.9479L141.856 10.0438H148.409L151.258 23.9479L153.658 10.0438H153.654Z" fill="#F2F9FF"/>
<path d="M159.477 10.0438H163.952V12.6439H159.477V10.0438ZM159.553 14.171H163.854V26.6726H159.553V14.171Z" fill="#F2F9FF"/>
<path d="M171.908 24.4955C173.31 24.4955 173.858 24.0458 173.858 23.3201C173.858 22.6968 173.631 22.1715 172.184 21.9934L169.535 21.6951C167.108 21.419 165.808 20.119 165.808 17.9464C165.808 14.9723 168.359 13.7703 171.712 13.7703C175.064 13.7703 177.562 14.9456 177.816 17.8707H173.916C173.791 16.8957 173.114 16.3213 171.739 16.3213C170.287 16.3213 169.74 16.8467 169.74 17.5457C169.74 18.071 170.038 18.5474 171.213 18.6721L173.791 18.9214C176.743 19.2197 177.967 20.4218 177.967 22.8215C177.967 25.2212 176.493 27.0733 171.841 27.0733C167.188 27.0733 165.563 24.9496 165.465 22.6478H169.366C169.468 23.6718 170.314 24.4999 171.917 24.4999L171.908 24.4955Z" fill="#F2F9FF"/>
<path d="M179.129 20.395C179.129 16.771 181.23 13.7703 186.029 13.7703C191.132 13.7703 192.757 16.9981 192.757 20.4707C192.757 20.8714 192.73 21.2454 192.681 21.5214H183.305C183.554 23.5204 184.556 24.1972 186.132 24.1972C187.405 24.1972 188.184 23.6451 188.532 22.8972H192.708C192.307 25.0475 190.584 27.0733 186.029 27.0733C180.954 27.0733 179.129 23.8232 179.129 20.395ZM188.683 19.0193C188.532 17.4433 187.757 16.5929 186.105 16.5929C184.453 16.5929 183.63 17.2162 183.354 19.0193H188.679H188.683Z" fill="#F2F9FF"/>
<path d="M34.1404 20.778V25.564C34.1404 27.0288 33.3568 28.3867 32.088 29.1168L19.5908 36.3293L22.3422 26.0626C22.7207 24.6469 23.8293 23.5427 25.245 23.1643L34.1404 20.778Z" fill="#0072E5"/>
<path d="M34.1404 11.099V15.8851L25.2494 13.5032C23.8337 13.1247 22.7295 12.0162 22.3511 10.6004L19.5952 0.329285L32.0879 7.54175C33.3612 8.27635 34.1404 9.6298 34.1404 11.0946V11.099Z" fill="#0072E5"/>
<path d="M20.5035 15.3463C21.7635 16.6063 23.255 17.6258 24.9245 18.3337C23.2594 19.046 21.759 20.0656 20.4991 21.3255C19.2391 22.5899 18.2773 24.1007 17.5694 25.7747C16.8615 24.1007 15.7798 22.5899 14.5154 21.3255C13.251 20.0611 11.764 19.0505 10.0989 18.3381C11.764 17.6303 13.2599 16.6107 14.5243 15.3508C15.7843 14.0864 16.8615 12.5578 17.5694 10.8838C18.2773 12.5578 19.2436 14.0863 20.508 15.3463H20.5035Z" fill="#0072E5"/>
<path d="M15.428 0.329285L12.6766 10.5959C12.2982 12.0117 11.1896 13.1203 9.77825 13.4987L0.878418 15.8806V11.0946C0.878418 9.62981 1.66199 8.2719 2.9264 7.54175L15.428 0.329285Z" fill="#0072E5"/>
<path d="M15.4278 36.3293L2.93068 29.1168C1.66181 28.3822 0.88269 27.0288 0.88269 25.564V20.778L9.77807 23.1643C11.1938 23.5427 12.298 24.6513 12.6764 26.0626L15.4278 36.3293Z" fill="#0072E5"/>
<rect x="200.757" y="2.32928" width="66" height="32" rx="6" fill="#47CD89"/>
<path d="M212.341 23.3293V14.9133H208.917V12.6893H218.581V14.9133H215.157V23.3293H212.341ZM228.789 21.4093C228.789 22.2733 228.885 22.7213 228.997 23.3293H226.149C226.021 22.8973 225.957 22.2893 225.957 21.4093V20.9773C225.957 19.9533 225.301 19.4733 224.389 19.4733H222.453V23.3293H219.605V12.6893H225.493C227.893 12.6893 229.061 13.9213 229.061 15.6333C229.061 17.1533 228.085 18.1773 226.757 18.4493C227.861 18.6893 228.789 19.2493 228.789 20.8173V21.4093ZM222.453 17.4573H224.741C225.717 17.4573 226.117 17.0093 226.117 16.0973C226.117 15.2653 225.701 14.8493 224.757 14.8493H222.453V17.4573ZM230.244 23.3293V21.1053H232.116V14.9133H230.244V12.6893H236.804V14.9133H234.932V21.1053H236.804V23.3293H230.244ZM249.202 23.3293H246.37L245.682 21.3293H241.122L240.418 23.3293H237.602L241.234 12.6893H245.57L249.202 23.3293ZM241.842 19.2013H244.962L243.394 14.6733L241.842 19.2013ZM250.121 23.3293V12.6893H252.969V21.1053H257.753V23.3293H250.121Z" fill="white"/>
</svg>
