<svg width="142" height="27" viewBox="0 0 142 27" fill="none" xmlns="http://www.w3.org/2000/svg">
<path d="M30.7637 7.17279H36.981C40.9777 7.17279 42.8096 10.0986 42.8096 13.2979C42.8096 16.4971 40.9777 19.4789 36.981 19.4789H30.7637V7.17279ZM36.243 16.9057C38.4835 16.9057 39.406 15.6668 39.406 13.2979C39.406 10.9289 38.4637 9.74604 36.243 9.74604H34.0223V16.909H36.243V16.9057Z" fill="#F2F9FF"/>
<path d="M43.7354 14.8497C43.7354 12.3687 45.1061 9.92725 49.0467 9.92725C52.9873 9.92725 54.3381 12.3687 54.3381 14.8497C54.3381 17.3307 52.9675 19.7722 49.0467 19.7722C45.1258 19.7722 43.7354 17.3472 43.7354 14.8497ZM49.0467 17.2912C50.5458 17.2912 51.1553 16.6981 51.1553 14.8497C51.1553 13.0013 50.5458 12.4082 49.0467 12.4082C47.5475 12.4082 46.9182 13.0013 46.9182 14.8497C46.9182 16.6981 47.5277 17.2912 49.0467 17.2912Z" fill="#F2F9FF"/>
<path d="M60.4073 9.92725C63.7746 9.92725 65.4055 11.8152 65.4582 14.1281H62.3314C62.259 13.0376 61.6824 12.4082 60.4633 12.4082C59.1322 12.4082 58.3546 13.0013 58.3546 14.8497C58.3546 16.6981 59.0762 17.2912 60.4073 17.2912C61.7384 17.2912 62.2754 16.5696 62.3677 15.5515H65.4945C65.4385 17.7524 63.9031 19.7722 60.46 19.7722C56.6281 19.7722 55.1685 17.3472 55.1685 14.8497C55.1685 12.3522 56.5754 9.92725 60.4073 9.92725Z" fill="#F2F9FF"/>
<path d="M67.402 15.8315V12.6125H65.7744V11.1331L67.6623 10.2995L68.9769 7.98657H70.5881V10.227H73.1053V12.6158H70.5881V16.9649H72.8088V19.4822H71.1251C68.2949 19.4822 67.4053 18.2236 67.4053 15.8348L67.402 15.8315Z" fill="#F2F9FF"/>
<path d="M73.8598 14.8497C73.8598 12.3687 75.2304 9.92725 79.171 9.92725C83.1116 9.92725 84.4625 12.3687 84.4625 14.8497C84.4625 17.3307 83.0919 19.7722 79.171 19.7722C75.2502 19.7722 73.8598 17.3472 73.8598 14.8497ZM79.171 17.2912C80.6702 17.2912 81.2797 16.6981 81.2797 14.8497C81.2797 13.0013 80.6702 12.4082 79.171 12.4082C77.6719 12.4082 77.0426 13.0013 77.0426 14.8497C77.0426 16.6981 77.6521 17.2912 79.171 17.2912Z" fill="#F2F9FF"/>
<path d="M85.7015 10.2238H88.7921V12.0755C89.1611 10.7971 89.9222 10.0755 91.4016 10.0755H92.1791V13.166H91.049C89.5301 13.166 88.8843 13.9074 88.8843 15.7755V19.4756H85.7015V10.2238Z" fill="#F2F9FF"/>
<path d="M113.062 7.18927H116.264L114.156 19.4954H108.624L106.755 9.89102L104.904 19.4954H99.3883L97.2598 7.18927H100.462L102.238 17.479L104.33 7.18927H109.18L111.289 17.479L113.065 7.18927H113.062Z" fill="#F2F9FF"/>
<path d="M117.371 7.18927H120.683V9.11344H117.371V7.18927ZM117.427 10.2436H120.61V19.4954H117.427V10.2436Z" fill="#F2F9FF"/>
<path d="M126.571 17.8842C127.608 17.8842 128.014 17.5515 128.014 17.0144C128.014 16.5531 127.846 16.1643 126.775 16.0325L124.814 15.8118C123.019 15.6075 122.057 14.6454 122.057 13.0376C122.057 10.8366 123.945 9.94702 126.426 9.94702C128.907 9.94702 130.755 10.8169 130.943 12.9815H128.057C127.964 12.26 127.463 11.8349 126.445 11.8349C125.371 11.8349 124.966 12.2237 124.966 12.741C124.966 13.1298 125.187 13.4824 126.057 13.5746L127.964 13.7591C130.149 13.9799 131.055 14.8695 131.055 16.6454C131.055 18.4213 129.964 19.7919 126.521 19.7919C123.078 19.7919 121.875 18.2203 121.803 16.5169H124.689C124.765 17.2747 125.391 17.8875 126.577 17.8875L126.571 17.8842Z" fill="#F2F9FF"/>
<path d="M131.915 14.8497C131.915 12.1677 133.47 9.94702 137.022 9.94702C140.797 9.94702 142 12.3358 142 14.9057C142 15.2023 141.98 15.479 141.944 15.6833H135.005C135.19 17.1627 135.931 17.6635 137.097 17.6635C138.04 17.6635 138.616 17.2549 138.873 16.7014H141.964C141.667 18.2928 140.392 19.7919 137.022 19.7919C133.265 19.7919 131.915 17.3867 131.915 14.8497ZM138.985 13.8316C138.873 12.6652 138.3 12.0359 137.078 12.0359C135.855 12.0359 135.246 12.4972 135.041 13.8316H138.982H138.985Z" fill="#F2F9FF"/>
<path d="M24.6157 15.1331V18.675C24.6157 19.759 24.0358 20.7639 23.0968 21.3042L13.8482 26.6418L15.8844 19.044C16.1645 17.9963 16.9849 17.1791 18.0326 16.8991L24.6157 15.1331Z" fill="#0072E5"/>
<path d="M24.6156 7.97016V11.5121L18.0359 9.74936C16.9881 9.4693 16.171 8.64889 15.8909 7.60114L13.8514 0L23.0967 5.3376C24.039 5.88124 24.6156 6.88287 24.6156 7.96686V7.97016Z" fill="#0072E5"/>
<path d="M14.5235 11.1134C15.456 12.0458 16.5597 12.8004 17.7953 13.3242C16.563 13.8514 15.4527 14.6059 14.5202 15.5383C13.5878 16.4741 12.876 17.5921 12.3521 18.831C11.8283 17.5921 11.0277 16.4741 10.092 15.5383C9.15628 14.6026 8.05581 13.8547 6.82355 13.3275C8.05581 12.8036 9.16287 12.0491 10.0986 11.1167C11.031 10.181 11.8283 9.04976 12.3521 7.81091C12.876 9.04976 13.5911 10.181 14.5268 11.1134H14.5235Z" fill="#0072E5"/>
<path d="M10.7675 0L8.73126 7.59784C8.4512 8.64559 7.63079 9.466 6.58633 9.74606L0 11.5088V7.96686C0 6.88287 0.579887 5.87795 1.51561 5.3376L10.7675 0Z" fill="#0072E5"/>
<path d="M10.7674 26.6418L1.51885 21.3042C0.579827 20.7606 0.00323486 19.759 0.00323486 18.675V15.1331L6.58627 16.8991C7.63403 17.1791 8.45114 17.9995 8.7312 19.044L10.7674 26.6418Z" fill="#0072E5"/>
</svg>
