<svg width="259" height="37" viewBox="0 0 259 37" fill="none" xmlns="http://www.w3.org/2000/svg">
<path d="M42.3266 10.4606H50.7278C56.1282 10.4606 58.6036 14.4141 58.6036 18.7371C58.6036 23.0601 56.1282 27.0893 50.7278 27.0893H42.3266V10.4606ZM49.7305 23.6122C52.758 23.6122 54.0046 21.9382 54.0046 18.7371C54.0046 15.536 52.7313 13.9377 49.7305 13.9377H46.7298V23.6166H49.7305V23.6122Z" fill="#F2F9FF"/>
<path d="M59.8547 20.8341C59.8547 17.4816 61.7068 14.1826 67.0315 14.1826C72.3563 14.1826 74.1817 17.4816 74.1817 20.8341C74.1817 24.1865 72.3296 27.4855 67.0315 27.4855C61.7335 27.4855 59.8547 24.2088 59.8547 20.8341ZM67.0315 24.1331C69.0572 24.1331 69.8809 23.3317 69.8809 20.8341C69.8809 18.3364 69.0572 17.535 67.0315 17.535C65.0058 17.535 64.1554 18.3364 64.1554 20.8341C64.1554 23.3317 64.9791 24.1331 67.0315 24.1331Z" fill="#F2F9FF"/>
<path d="M82.3826 14.1826C86.9327 14.1826 89.1365 16.7336 89.2077 19.859H84.9827C84.8847 18.3854 84.1056 17.535 82.4583 17.535C80.6596 17.535 79.6089 18.3364 79.6089 20.8341C79.6089 23.3317 80.5839 24.1331 82.3826 24.1331C84.1813 24.1331 84.907 23.1581 85.0316 21.7824H89.2567C89.181 24.7564 87.1063 27.4855 82.4538 27.4855C77.276 27.4855 75.3037 24.2088 75.3037 20.8341C75.3037 17.4593 77.2048 14.1826 82.3826 14.1826Z" fill="#F2F9FF"/>
<path d="M91.8342 22.1608V17.811H89.6349V15.812L92.186 14.6856L93.9624 11.5602H96.1395V14.5877H99.5409V17.8155H96.1395V23.6923H99.1402V27.0938H96.8652C93.0408 27.0938 91.8387 25.393 91.8387 22.1652L91.8342 22.1608Z" fill="#F2F9FF"/>
<path d="M100.56 20.8341C100.56 17.4816 102.413 14.1826 107.737 14.1826C113.062 14.1826 114.887 17.4816 114.887 20.8341C114.887 24.1865 113.035 27.4855 107.737 27.4855C102.439 27.4855 100.56 24.2088 100.56 20.8341ZM107.737 24.1331C109.763 24.1331 110.587 23.3317 110.587 20.8341C110.587 18.3364 109.763 17.535 107.737 17.535C105.712 17.535 104.861 18.3364 104.861 20.8341C104.861 23.3317 105.685 24.1331 107.737 24.1331Z" fill="#F2F9FF"/>
<path d="M116.562 14.5832H120.738V17.0853C121.236 15.3578 122.265 14.3828 124.264 14.3828H125.315V18.5589H123.787C121.735 18.5589 120.862 19.5607 120.862 22.085V27.0848H116.562V14.5832Z" fill="#F2F9FF"/>
<path d="M153.532 10.4828H157.86L155.01 27.1116H147.535L145.011 14.1336L142.509 27.1116H135.056L132.18 10.4828H136.507L138.907 24.3869L141.734 10.4828H148.288L151.137 24.3869L153.537 10.4828H153.532Z" fill="#F2F9FF"/>
<path d="M159.356 10.4828H163.83V13.0829H159.356V10.4828ZM159.431 14.61H163.732V27.1116H159.431V14.61Z" fill="#F2F9FF"/>
<path d="M171.786 24.9344C173.189 24.9344 173.736 24.4848 173.736 23.7591C173.736 23.1358 173.509 22.6104 172.062 22.4323L169.413 22.134C166.987 21.858 165.687 20.558 165.687 18.3853C165.687 15.4113 168.238 14.2092 171.59 14.2092C174.943 14.2092 177.44 15.3846 177.694 18.3096H173.794C173.67 17.3346 172.993 16.7603 171.617 16.7603C170.166 16.7603 169.618 17.2857 169.618 17.9846C169.618 18.51 169.916 18.9864 171.092 19.111L173.67 19.3604C176.621 19.6586 177.846 20.8607 177.846 23.2604C177.846 25.6601 176.372 27.5122 171.719 27.5122C167.067 27.5122 165.442 25.3886 165.344 23.0868H169.244C169.346 24.1108 170.192 24.9389 171.795 24.9389L171.786 24.9344Z" fill="#F2F9FF"/>
<path d="M179.007 20.834C179.007 17.21 181.109 14.2092 185.908 14.2092C191.01 14.2092 192.635 17.437 192.635 20.9097C192.635 21.3104 192.608 21.6844 192.56 21.9604H183.183C183.433 23.9594 184.434 24.6361 186.01 24.6361C187.284 24.6361 188.063 24.0841 188.41 23.3361H192.586C192.186 25.4865 190.463 27.5122 185.908 27.5122C180.833 27.5122 179.007 24.2622 179.007 20.834ZM188.561 19.4583C188.41 17.8822 187.635 17.0319 185.984 17.0319C184.332 17.0319 183.508 17.6552 183.232 19.4583H188.557H188.561Z" fill="#F2F9FF"/>
<path d="M34.019 21.217V26.003C34.019 27.4678 33.2354 28.8257 31.9665 29.5558L19.4694 36.7683L22.2208 26.5017C22.5992 25.0859 23.7078 23.9818 25.1236 23.6033L34.019 21.217Z" fill="#0072E5"/>
<path d="M34.0188 11.538V16.3241L25.1279 13.9422C23.7121 13.5638 22.608 12.4552 22.2296 11.0394L19.4737 0.768311L31.9664 7.98078C33.2397 8.71538 34.0188 10.0688 34.0188 11.5336V11.538Z" fill="#0072E5"/>
<path d="M20.3819 15.7853C21.6419 17.0453 23.1334 18.0648 24.8029 18.7727C23.1378 19.4851 21.6375 20.5046 20.3775 21.7646C19.1175 23.029 18.1557 24.5397 17.4478 26.2137C16.7399 24.5397 15.6582 23.029 14.3938 21.7646C13.1294 20.5001 11.6424 19.4895 9.97729 18.7772C11.6424 18.0693 13.1383 17.0497 14.4027 15.7898C15.6627 14.5254 16.7399 12.9968 17.4478 11.3228C18.1557 12.9968 19.122 14.5254 20.3864 15.7853H20.3819Z" fill="#0072E5"/>
<path d="M15.3065 0.768311L12.5551 11.0349C12.1766 12.4507 11.0681 13.5593 9.65672 13.9377L0.756897 16.3196V11.5336C0.756897 10.0688 1.54047 8.71093 2.80488 7.98078L15.3065 0.768311Z" fill="#0072E5"/>
<path d="M15.3064 36.7683L2.80922 29.5558C1.54036 28.8212 0.76123 27.4678 0.76123 26.003V21.217L9.65661 23.6033C11.0724 23.9818 12.1765 25.0903 12.5549 26.5017L15.3064 36.7683Z" fill="#0072E5"/>
<rect x="200.635" y="2.76831" width="58" height="32" rx="6" fill="#59ACFF"/>
<path d="M215.451 13.1283C217.899 13.1283 218.875 14.7123 218.875 16.6483C218.875 18.7123 217.899 20.2963 215.451 20.2963H212.347V23.7683H209.499V13.1283H215.451ZM212.347 18.1203H214.507C215.531 18.1203 215.931 17.4963 215.931 16.6643C215.931 15.8483 215.547 15.2883 214.539 15.2883H212.347V18.1203ZM220.109 23.7683V13.1283H222.957V21.5443H227.741V23.7683H220.109ZM228.59 19.7203V13.1283H231.422V19.3523C231.422 21.2083 232.094 21.7203 233.55 21.7203C235.006 21.7203 235.678 21.2083 235.678 19.3523V13.1283H238.494V19.7203C238.494 22.5523 236.83 24.0243 233.55 24.0243C230.27 24.0243 228.59 22.5683 228.59 19.7203ZM242.446 20.3123C242.526 21.1923 243.102 21.9923 244.59 21.9923C245.95 21.9923 246.462 21.5123 246.462 20.7763C246.462 20.0723 246.046 19.7203 245.246 19.6083L242.926 19.3523C241.006 19.1283 239.902 18.0403 239.902 16.2323C239.902 14.2323 241.406 12.8563 244.478 12.8563C247.758 12.8563 249.07 14.4243 249.214 16.3123H246.43C246.318 15.4643 245.678 14.9043 244.478 14.9043C243.39 14.9043 242.75 15.3363 242.75 16.0403C242.75 16.5843 243.07 16.9843 243.886 17.0803L245.918 17.2883C248.254 17.5123 249.31 18.6163 249.31 20.5363C249.31 22.6323 247.998 24.0403 244.542 24.0403C241.038 24.0403 239.822 22.2163 239.71 20.3123H242.446Z" fill="white"/>
</svg>
