<svg width="212" height="57" viewBox="0 0 212 57" fill="none" xmlns="http://www.w3.org/2000/svg">
<path d="M49.0275 12.0513H58.8074C65.0942 12.0513 67.9759 16.6537 67.9759 21.6862C67.9759 26.7187 65.0942 31.4092 58.8074 31.4092H49.0275V12.0513ZM57.6465 27.3614C61.1708 27.3614 62.622 25.4126 62.622 21.6862C62.622 17.9597 61.1397 16.0991 57.6465 16.0991H54.1533V27.3666H57.6465V27.3614Z" fill="#001933"/>
<path d="M69.4323 24.1273C69.4323 20.2246 71.5883 16.3842 77.787 16.3842C83.9856 16.3842 86.1106 20.2246 86.1106 24.1273C86.1106 28.03 83.9545 31.8704 77.787 31.8704C71.6194 31.8704 69.4323 28.0559 69.4323 24.1273ZM77.787 27.9678C80.1451 27.9678 81.104 27.0349 81.104 24.1273C81.104 21.2197 80.1451 20.2868 77.787 20.2868C75.4288 20.2868 74.4389 21.2197 74.4389 24.1273C74.4389 27.0349 75.3977 27.9678 77.787 27.9678Z" fill="#001933"/>
<path d="M95.6576 16.3842C100.954 16.3842 103.52 19.3539 103.603 22.9923H98.6843C98.5703 21.2767 97.6633 20.2868 95.7457 20.2868C93.6518 20.2868 92.4287 21.2197 92.4287 24.1273C92.4287 27.0349 93.5637 27.9678 95.6576 27.9678C97.7514 27.9678 98.5962 26.8327 98.7413 25.2312H103.66C103.572 28.6934 101.157 31.8704 95.7405 31.8704C89.7129 31.8704 87.4169 28.0559 87.4169 24.1273C87.4169 20.1987 89.6299 16.3842 95.6576 16.3842Z" fill="#001933"/>
<path d="M106.66 25.6717V20.6081H104.1V18.281L107.07 16.9698L109.138 13.3314H111.672V16.8557H115.632V20.6133H111.672V27.4546H115.165V31.4143H112.517C108.065 31.4143 106.665 29.4344 106.665 25.6769L106.66 25.6717Z" fill="#001933"/>
<path d="M116.819 24.1273C116.819 20.2246 118.975 16.3842 125.173 16.3842C131.372 16.3842 133.497 20.2246 133.497 24.1273C133.497 28.03 131.341 31.8704 125.173 31.8704C119.006 31.8704 116.819 28.0559 116.819 24.1273ZM125.173 27.9678C127.531 27.9678 128.49 27.0349 128.49 24.1273C128.49 21.2197 127.531 20.2868 125.173 20.2868C122.815 20.2868 121.825 21.2197 121.825 24.1273C121.825 27.0349 122.784 27.9678 125.173 27.9678Z" fill="#001933"/>
<path d="M135.446 16.8508H140.308V19.7635C140.888 17.7526 142.085 16.6176 144.412 16.6176H145.635V21.479H143.858C141.468 21.479 140.453 22.6452 140.453 25.5838V31.4041H135.446V16.8508Z" fill="#001933"/>
<path d="M72.8684 36.2501H77.9061L74.5891 55.608H65.8871L62.9485 40.5L60.0357 55.608H51.3597L48.0116 36.2501H53.0493L55.8428 52.4361L59.1339 36.2501H66.763L70.08 52.4361L72.8736 36.2501H72.8684Z" fill="#001933"/>
<path d="M79.6475 36.2501H84.8562V39.2769H79.6475V36.2501ZM79.7356 41.0546H84.7422V55.608H79.7356V41.0546Z" fill="#001933"/>
<path d="M94.1131 53.0785C95.7457 53.0785 96.3831 52.555 96.3831 51.7102C96.3831 50.9846 96.1188 50.3731 94.4344 50.1657L91.3506 49.8185C88.526 49.4972 87.0126 47.9838 87.0126 45.4546C87.0126 41.9924 89.9824 40.5931 93.885 40.5931C97.7877 40.5931 100.695 41.9613 100.991 45.3665H96.4505C96.3054 44.2314 95.5176 43.5628 93.9161 43.5628C92.2265 43.5628 91.589 44.1744 91.589 44.9881C91.589 45.5997 91.9363 46.1542 93.3045 46.2994L96.3054 46.5896C99.7416 46.9369 101.167 48.3362 101.167 51.1298C101.167 53.9233 99.4514 56.0793 94.0353 56.0793C88.6193 56.0793 86.7275 53.6071 86.6135 50.9276H91.1537C91.2729 52.1197 92.2576 53.0837 94.1234 53.0837L94.1131 53.0785Z" fill="#001933"/>
<path d="M102.524 48.3051C102.524 44.0863 104.971 40.5931 110.558 40.5931C116.497 40.5931 118.389 44.3506 118.389 48.3932C118.389 48.8597 118.358 49.295 118.301 49.6164H107.386C107.676 51.9435 108.842 52.7312 110.677 52.7312C112.159 52.7312 113.066 52.0886 113.471 51.2179H118.332C117.866 53.7212 115.86 56.0793 110.558 56.0793C104.649 56.0793 102.524 52.2959 102.524 48.3051ZM113.647 46.7036C113.471 44.8689 112.569 43.879 110.646 43.879C108.723 43.879 107.764 44.6046 107.443 46.7036H113.642H113.647Z" fill="#001933"/>
<path d="M39.3563 24.5731V30.1446C39.3563 31.8497 38.4441 33.4305 36.967 34.2805L22.4188 42.6766L25.6218 30.7251C26.0623 29.0769 27.3529 27.7916 29.001 27.3511L39.3563 24.5731Z" fill="#0072E5"/>
<path d="M39.3562 13.3056V18.8771L29.0061 16.1043C27.358 15.6637 26.0727 14.3732 25.6321 12.7251L22.424 0.768311L36.9669 9.16448C38.4492 10.0196 39.3562 11.5952 39.3562 13.3004V13.3056Z" fill="#0072E5"/>
<path d="M23.4813 18.25C24.948 19.7167 26.6843 20.9036 28.6278 21.7277C26.6894 22.5569 24.9428 23.7438 23.4761 25.2105C22.0093 26.6824 20.8173 28.429 19.9932 30.3778C19.1692 28.429 17.9823 26.6824 16.5104 25.2105C15.0385 23.7386 13.3074 22.5621 11.369 21.7328C13.3074 20.9088 15.0488 19.7219 16.5207 18.2552C17.9875 16.7832 19.1795 15.0366 20.0036 13.0879C20.8277 15.0366 22.0145 16.7832 23.4865 18.25H23.4813Z" fill="#0072E5"/>
<path d="M17.5728 0.768311L14.3699 12.7199C13.9293 14.368 12.6388 15.6586 10.9958 16.0991L0.635376 18.8719V13.3004C0.635376 11.5952 1.54755 10.0145 3.01947 9.16448L17.5728 0.768311Z" fill="#0072E5"/>
<path d="M17.5728 42.6766L3.0246 34.2805C1.5475 33.4253 0.640503 31.8497 0.640503 30.1446V24.5731L10.9958 27.3511C12.6439 27.7916 13.9293 29.0821 14.3698 30.7251L17.5728 42.6766Z" fill="#0072E5"/>
<rect x="153.635" y="12.4239" width="58" height="32" rx="6" fill="#59ACFF"/>
<path d="M168.451 22.7839C170.899 22.7839 171.875 24.3679 171.875 26.3039C171.875 28.3679 170.899 29.9519 168.451 29.9519H165.347V33.4239H162.499V22.7839H168.451ZM165.347 27.7759H167.507C168.531 27.7759 168.931 27.1519 168.931 26.3199C168.931 25.5039 168.547 24.9439 167.539 24.9439H165.347V27.7759ZM173.109 33.4239V22.7839H175.957V31.1999H180.741V33.4239H173.109ZM181.59 29.3759V22.7839H184.422V29.0079C184.422 30.8639 185.094 31.3759 186.55 31.3759C188.006 31.3759 188.678 30.8639 188.678 29.0079V22.7839H191.494V29.3759C191.494 32.2079 189.83 33.6799 186.55 33.6799C183.27 33.6799 181.59 32.2239 181.59 29.3759ZM195.446 29.9679C195.526 30.8479 196.102 31.6479 197.59 31.6479C198.95 31.6479 199.462 31.1679 199.462 30.4319C199.462 29.7279 199.046 29.3759 198.246 29.2639L195.926 29.0079C194.006 28.7839 192.902 27.6959 192.902 25.8879C192.902 23.8879 194.406 22.5119 197.478 22.5119C200.758 22.5119 202.07 24.0799 202.214 25.9679H199.43C199.318 25.1199 198.678 24.5599 197.478 24.5599C196.39 24.5599 195.75 24.9919 195.75 25.6959C195.75 26.2399 196.07 26.6399 196.886 26.7359L198.918 26.9439C201.254 27.1679 202.31 28.2719 202.31 30.1919C202.31 32.2879 200.998 33.6959 197.542 33.6959C194.038 33.6959 192.822 31.8719 192.71 29.9679H195.446Z" fill="white"/>
</svg>
