<svg width="192" height="36" viewBox="0 0 192 36" fill="none" xmlns="http://www.w3.org/2000/svg">
<path d="M41.5698 9.69226H49.971C55.3715 9.69226 57.8468 13.6458 57.8468 17.9688C57.8468 22.2918 55.3715 26.321 49.971 26.321H41.5698V9.69226ZM48.9737 22.8439C52.0012 22.8439 53.2478 21.1699 53.2478 17.9688C53.2478 14.7677 51.9745 13.1694 48.9737 13.1694H45.973V22.8483H48.9737V22.8439Z" fill="#001933"/>
<path d="M59.0979 20.0657C59.0979 16.7133 60.95 13.4142 66.2747 13.4142C71.5995 13.4142 73.4249 16.7133 73.4249 20.0657C73.4249 23.4182 71.5728 26.7172 66.2747 26.7172C60.9767 26.7172 59.0979 23.4405 59.0979 20.0657ZM66.2747 23.3648C68.3005 23.3648 69.1241 22.5634 69.1241 20.0657C69.1241 17.5681 68.3005 16.7667 66.2747 16.7667C64.249 16.7667 63.3987 17.5681 63.3987 20.0657C63.3987 22.5634 64.2223 23.3648 66.2747 23.3648Z" fill="#001933"/>
<path d="M81.6258 13.4142C86.1759 13.4142 88.3797 15.9653 88.4509 19.0907H84.2258C84.1279 17.6171 83.3488 16.7667 81.7015 16.7667C79.9028 16.7667 78.8521 17.5681 78.8521 20.0657C78.8521 22.5634 79.8271 23.3648 81.6258 23.3648C83.4244 23.3648 84.1501 22.3898 84.2748 21.014H88.4999C88.4242 23.9881 86.3495 26.7172 81.697 26.7172C76.5192 26.7172 74.5469 23.4405 74.5469 20.0657C74.5469 16.691 76.4479 13.4142 81.6258 13.4142Z" fill="#001933"/>
<path d="M91.0778 21.3925V17.0427H88.8784V15.0437L91.4295 13.9173L93.2059 10.7919H95.383V13.8194H98.7844V17.0472H95.383V22.924H98.3837V26.3254H96.1087C92.2843 26.3254 91.0822 24.6247 91.0822 21.3969L91.0778 21.3925Z" fill="#001933"/>
<path d="M99.8037 20.0657C99.8037 16.7133 101.656 13.4142 106.981 13.4142C112.305 13.4142 114.131 16.7133 114.131 20.0657C114.131 23.4182 112.279 26.7172 106.981 26.7172C101.683 26.7172 99.8037 23.4405 99.8037 20.0657ZM106.981 23.3648C109.006 23.3648 109.83 22.5634 109.83 20.0657C109.83 17.5681 109.006 16.7667 106.981 16.7667C104.955 16.7667 104.104 17.5681 104.104 20.0657C104.104 22.5634 104.928 23.3648 106.981 23.3648Z" fill="#001933"/>
<path d="M115.805 13.8148H119.981V16.317C120.479 14.5895 121.508 13.6145 123.507 13.6145H124.558V17.7906H123.031C120.978 17.7906 120.105 18.7923 120.105 21.3167V26.3165H115.805V13.8148Z" fill="#001933"/>
<path d="M152.775 9.71454H157.103L154.253 26.3433H146.778L144.254 13.3653L141.752 26.3433H134.299L131.423 9.71454H135.75L138.15 23.6186L140.977 9.71454H147.531L150.38 23.6186L152.78 9.71454H152.775Z" fill="#001933"/>
<path d="M158.599 9.71454H163.073V12.3146H158.599V9.71454ZM158.675 13.8417H162.975V26.3433H158.675V13.8417Z" fill="#001933"/>
<path d="M171.029 24.1661C172.432 24.1661 172.979 23.7165 172.979 22.9908C172.979 22.3675 172.752 21.8421 171.305 21.664L168.656 21.3657C166.23 21.0897 164.93 19.7897 164.93 17.617C164.93 14.643 167.481 13.4409 170.834 13.4409C174.186 13.4409 176.684 14.6163 176.937 17.5413H173.037C172.913 16.5663 172.236 15.992 170.86 15.992C169.409 15.992 168.861 16.5173 168.861 17.2163C168.861 17.7417 169.16 18.2181 170.335 18.3427L172.913 18.592C175.864 18.8903 177.089 20.0924 177.089 22.4921C177.089 24.8918 175.615 26.7439 170.963 26.7439C166.31 26.7439 164.685 24.6202 164.587 22.3185H168.487C168.59 23.3425 169.436 24.1706 171.038 24.1706L171.029 24.1661Z" fill="#001933"/>
<path d="M178.25 20.0657C178.25 16.4417 180.352 13.4409 185.151 13.4409C190.253 13.4409 191.878 16.6687 191.878 20.1414C191.878 20.5421 191.852 20.9161 191.803 21.1921H182.427C182.676 23.1911 183.678 23.8678 185.254 23.8678C186.527 23.8678 187.306 23.3158 187.653 22.5678H191.83C191.429 24.7182 189.706 26.7439 185.151 26.7439C180.076 26.7439 178.25 23.4938 178.25 20.0657ZM187.805 18.69C187.653 17.1139 186.879 16.2636 185.227 16.2636C183.575 16.2636 182.752 16.8869 182.476 18.69H187.8H187.805Z" fill="#001933"/>
<path d="M33.262 20.4487V25.2347C33.262 26.6995 32.4784 28.0574 31.2096 28.7875L18.7124 36L21.4638 25.7334C21.8423 24.3176 22.9508 23.2134 24.3666 22.835L33.262 20.4487Z" fill="#0072E5"/>
<path d="M33.2619 10.7697V15.5558L24.371 13.1739C22.9552 12.7954 21.8511 11.6869 21.4727 10.2711L18.7168 0L31.2095 7.21247C32.4828 7.94707 33.2619 9.30052 33.2619 10.7653V10.7697Z" fill="#0072E5"/>
<path d="M19.6251 15.017C20.8851 16.277 22.3765 17.2965 24.0461 18.0044C22.381 18.7167 20.8806 19.7363 19.6207 20.9962C18.3607 22.2607 17.3989 23.7714 16.691 25.4454C15.9831 23.7714 14.9014 22.2607 13.637 20.9962C12.3726 19.7318 10.8856 18.7212 9.22046 18.0089C10.8856 17.301 12.3815 16.2814 13.6459 15.0215C14.9058 13.7571 15.9831 12.2285 16.691 10.5545C17.3989 12.2285 18.3652 13.7571 19.6296 15.017H19.6251Z" fill="#0072E5"/>
<path d="M14.5496 0L11.7982 10.2666C11.4197 11.6824 10.3112 12.791 8.89983 13.1694L0 15.5513V10.7653C0 9.30052 0.783577 7.94262 2.04798 7.21247L14.5496 0Z" fill="#0072E5"/>
<path d="M14.5495 36L2.05238 28.7875C0.783519 28.0529 0.00439453 26.6995 0.00439453 25.2347V20.4487L8.89977 22.835C10.3156 23.2134 11.4197 24.322 11.7981 25.7334L14.5495 36Z" fill="#0072E5"/>
</svg>
